<mxfile host="Electron" agent="Mozilla/5.0 (Windows NT 10.0; Win64; x64) AppleWebKit/537.36 (KHTML, like Gecko) draw.io/24.7.8 Chrome/128.0.6613.36 Electron/32.0.1 Safari/537.36" version="24.7.8" pages="6">
  <diagram id="EC1ovMBbOlfkQJTIohDs" name="Flights">
    <mxGraphModel dx="2449" dy="1606" grid="0" gridSize="10" guides="1" tooltips="1" connect="1" arrows="1" fold="1" page="0" pageScale="1" pageWidth="827" pageHeight="1169" math="0" shadow="0">
      <root>
        <mxCell id="0" />
        <mxCell id="1" parent="0" />
        <mxCell id="AZ_xCfwsIbXF0odujIhw-3" style="edgeStyle=orthogonalEdgeStyle;rounded=0;orthogonalLoop=1;jettySize=auto;html=1;entryX=0.5;entryY=0;entryDx=0;entryDy=0;" parent="1" source="AZ_xCfwsIbXF0odujIhw-1" target="AZ_xCfwsIbXF0odujIhw-2" edge="1">
          <mxGeometry relative="1" as="geometry" />
        </mxCell>
        <mxCell id="AZ_xCfwsIbXF0odujIhw-1" value="Начало" style="ellipse;whiteSpace=wrap;html=1;" parent="1" vertex="1">
          <mxGeometry x="79" y="-34.5" width="120" height="40" as="geometry" />
        </mxCell>
        <mxCell id="AZ_xCfwsIbXF0odujIhw-6" style="edgeStyle=orthogonalEdgeStyle;rounded=0;orthogonalLoop=1;jettySize=auto;html=1;entryX=0.5;entryY=0;entryDx=0;entryDy=0;" parent="1" source="AZ_xCfwsIbXF0odujIhw-2" target="AZ_xCfwsIbXF0odujIhw-5" edge="1">
          <mxGeometry relative="1" as="geometry" />
        </mxCell>
        <mxCell id="AZ_xCfwsIbXF0odujIhw-2" value="Ввод значений" style="shape=parallelogram;perimeter=parallelogramPerimeter;whiteSpace=wrap;html=1;fixedSize=1;" parent="1" vertex="1">
          <mxGeometry x="79" y="25.5" width="120" height="20" as="geometry" />
        </mxCell>
        <mxCell id="AZ_xCfwsIbXF0odujIhw-16" style="edgeStyle=orthogonalEdgeStyle;rounded=0;orthogonalLoop=1;jettySize=auto;html=1;entryX=0.5;entryY=1;entryDx=0;entryDy=0;" parent="1" source="AZ_xCfwsIbXF0odujIhw-5" target="AZ_xCfwsIbXF0odujIhw-14" edge="1">
          <mxGeometry relative="1" as="geometry" />
        </mxCell>
        <mxCell id="AZ_xCfwsIbXF0odujIhw-5" value="Цикл 1&lt;br&gt;&lt;font style=&quot;font-size: 10px;&quot;&gt;string.IsNullOrEmpty&lt;/font&gt;" style="shape=loopLimit;whiteSpace=wrap;html=1;" parent="1" vertex="1">
          <mxGeometry x="79" y="65.5" width="120" height="40" as="geometry" />
        </mxCell>
        <mxCell id="AZ_xCfwsIbXF0odujIhw-21" style="edgeStyle=orthogonalEdgeStyle;rounded=0;orthogonalLoop=1;jettySize=auto;html=1;entryX=0.5;entryY=0;entryDx=0;entryDy=0;" parent="1" source="AZ_xCfwsIbXF0odujIhw-14" target="AZ_xCfwsIbXF0odujIhw-17" edge="1">
          <mxGeometry relative="1" as="geometry" />
        </mxCell>
        <mxCell id="AZ_xCfwsIbXF0odujIhw-19" style="edgeStyle=orthogonalEdgeStyle;rounded=0;orthogonalLoop=1;jettySize=auto;html=1;entryX=0.5;entryY=0;entryDx=0;entryDy=0;" parent="1" source="AZ_xCfwsIbXF0odujIhw-17" target="AZ_xCfwsIbXF0odujIhw-18" edge="1">
          <mxGeometry relative="1" as="geometry" />
        </mxCell>
        <mxCell id="AZ_xCfwsIbXF0odujIhw-23" style="edgeStyle=orthogonalEdgeStyle;rounded=0;orthogonalLoop=1;jettySize=auto;html=1;entryX=0.5;entryY=0;entryDx=0;entryDy=0;" parent="1" source="AZ_xCfwsIbXF0odujIhw-17" target="AZ_xCfwsIbXF0odujIhw-22" edge="1">
          <mxGeometry relative="1" as="geometry" />
        </mxCell>
        <mxCell id="AZ_xCfwsIbXF0odujIhw-17" value="Поле пустое" style="rhombus;whiteSpace=wrap;html=1;" parent="1" vertex="1">
          <mxGeometry x="79" y="165.5" width="120" height="40" as="geometry" />
        </mxCell>
        <mxCell id="OvKCwNrRggis_gEX_jeD-2" style="edgeStyle=orthogonalEdgeStyle;rounded=0;orthogonalLoop=1;jettySize=auto;html=1;entryX=0.5;entryY=0;entryDx=0;entryDy=0;" edge="1" parent="1" source="AZ_xCfwsIbXF0odujIhw-18" target="OvKCwNrRggis_gEX_jeD-1">
          <mxGeometry relative="1" as="geometry" />
        </mxCell>
        <mxCell id="AZ_xCfwsIbXF0odujIhw-18" value="Ошибка&lt;br&gt;&lt;font style=&quot;font-size: 10px;&quot;&gt;Пожалуйста, заполни все поля!&lt;/font&gt;" style="shape=parallelogram;perimeter=parallelogramPerimeter;whiteSpace=wrap;html=1;fixedSize=1;" parent="1" vertex="1">
          <mxGeometry x="-81" y="205.5" width="140" height="40" as="geometry" />
        </mxCell>
        <mxCell id="AZ_xCfwsIbXF0odujIhw-20" value="Да" style="text;html=1;align=center;verticalAlign=middle;whiteSpace=wrap;rounded=0;" parent="1" vertex="1">
          <mxGeometry x="49" y="165.5" width="20" height="20" as="geometry" />
        </mxCell>
        <mxCell id="AZ_xCfwsIbXF0odujIhw-30" style="edgeStyle=orthogonalEdgeStyle;rounded=0;orthogonalLoop=1;jettySize=auto;html=1;entryX=0.5;entryY=1;entryDx=0;entryDy=0;" parent="1" source="AZ_xCfwsIbXF0odujIhw-22" target="AZ_xCfwsIbXF0odujIhw-27" edge="1">
          <mxGeometry relative="1" as="geometry" />
        </mxCell>
        <mxCell id="AZ_xCfwsIbXF0odujIhw-22" value="Цикл 2&lt;br&gt;&lt;font style=&quot;font-size: 10px;&quot;&gt;bus == null&lt;/font&gt;" style="shape=loopLimit;whiteSpace=wrap;html=1;" parent="1" vertex="1">
          <mxGeometry x="79" y="225.5" width="120" height="40" as="geometry" />
        </mxCell>
        <mxCell id="AZ_xCfwsIbXF0odujIhw-24" value="Нет" style="text;html=1;align=center;verticalAlign=middle;whiteSpace=wrap;rounded=0;" parent="1" vertex="1">
          <mxGeometry x="149" y="205.5" width="30" height="20" as="geometry" />
        </mxCell>
        <mxCell id="AZ_xCfwsIbXF0odujIhw-25" value="" style="group" parent="1" vertex="1" connectable="0">
          <mxGeometry x="79" y="125.5" width="120" height="20" as="geometry" />
        </mxCell>
        <mxCell id="AZ_xCfwsIbXF0odujIhw-14" value="" style="shape=loopLimit;whiteSpace=wrap;html=1;rotation=-180;direction=east;" parent="AZ_xCfwsIbXF0odujIhw-25" vertex="1">
          <mxGeometry width="120" height="20" as="geometry" />
        </mxCell>
        <mxCell id="AZ_xCfwsIbXF0odujIhw-15" value="Цикл 1" style="text;html=1;align=center;verticalAlign=middle;whiteSpace=wrap;rounded=0;direction=west;" parent="AZ_xCfwsIbXF0odujIhw-25" vertex="1">
          <mxGeometry x="30" y="2.5" width="60" height="15" as="geometry" />
        </mxCell>
        <mxCell id="AZ_xCfwsIbXF0odujIhw-26" value="" style="group" parent="1" vertex="1" connectable="0">
          <mxGeometry x="79" y="285.5" width="120" height="20" as="geometry" />
        </mxCell>
        <mxCell id="AZ_xCfwsIbXF0odujIhw-27" value="" style="shape=loopLimit;whiteSpace=wrap;html=1;rotation=-180;direction=east;" parent="AZ_xCfwsIbXF0odujIhw-26" vertex="1">
          <mxGeometry width="120" height="20" as="geometry" />
        </mxCell>
        <mxCell id="AZ_xCfwsIbXF0odujIhw-28" value="Цикл 2" style="text;html=1;align=center;verticalAlign=middle;whiteSpace=wrap;rounded=0;direction=west;" parent="AZ_xCfwsIbXF0odujIhw-26" vertex="1">
          <mxGeometry x="30" y="2.5" width="60" height="15" as="geometry" />
        </mxCell>
        <mxCell id="AZ_xCfwsIbXF0odujIhw-33" style="edgeStyle=orthogonalEdgeStyle;rounded=0;orthogonalLoop=1;jettySize=auto;html=1;entryX=0.5;entryY=0;entryDx=0;entryDy=0;" parent="1" source="AZ_xCfwsIbXF0odujIhw-31" target="AZ_xCfwsIbXF0odujIhw-32" edge="1">
          <mxGeometry relative="1" as="geometry" />
        </mxCell>
        <mxCell id="AZ_xCfwsIbXF0odujIhw-41" style="edgeStyle=orthogonalEdgeStyle;rounded=0;orthogonalLoop=1;jettySize=auto;html=1;entryX=0.5;entryY=0;entryDx=0;entryDy=0;" parent="1" source="AZ_xCfwsIbXF0odujIhw-31" target="AZ_xCfwsIbXF0odujIhw-40" edge="1">
          <mxGeometry relative="1" as="geometry" />
        </mxCell>
        <mxCell id="AZ_xCfwsIbXF0odujIhw-31" value="ID существует" style="rhombus;whiteSpace=wrap;html=1;" parent="1" vertex="1">
          <mxGeometry x="79" y="325.5" width="120" height="40" as="geometry" />
        </mxCell>
        <mxCell id="AZ_xCfwsIbXF0odujIhw-169" style="edgeStyle=orthogonalEdgeStyle;rounded=0;orthogonalLoop=1;jettySize=auto;html=1;endArrow=none;endFill=0;" parent="1" source="AZ_xCfwsIbXF0odujIhw-32" edge="1">
          <mxGeometry relative="1" as="geometry">
            <mxPoint x="-118" y="385.5" as="targetPoint" />
          </mxGeometry>
        </mxCell>
        <mxCell id="AZ_xCfwsIbXF0odujIhw-32" value="Ошибка&lt;br&gt;&lt;font style=&quot;font-size: 10px;&quot;&gt;Автобуса с таким ID не существует!&lt;/font&gt;" style="shape=parallelogram;perimeter=parallelogramPerimeter;whiteSpace=wrap;html=1;fixedSize=1;" parent="1" vertex="1">
          <mxGeometry x="-81" y="365.5" width="140" height="40" as="geometry" />
        </mxCell>
        <mxCell id="AZ_xCfwsIbXF0odujIhw-34" value="Нет" style="text;html=1;align=center;verticalAlign=middle;whiteSpace=wrap;rounded=0;" parent="1" vertex="1">
          <mxGeometry x="44" y="325.5" width="30" height="20" as="geometry" />
        </mxCell>
        <mxCell id="AZ_xCfwsIbXF0odujIhw-35" style="edgeStyle=orthogonalEdgeStyle;rounded=0;orthogonalLoop=1;jettySize=auto;html=1;entryX=0.5;entryY=0;entryDx=0;entryDy=0;" parent="1" source="AZ_xCfwsIbXF0odujIhw-27" target="AZ_xCfwsIbXF0odujIhw-31" edge="1">
          <mxGeometry relative="1" as="geometry" />
        </mxCell>
        <mxCell id="AZ_xCfwsIbXF0odujIhw-36" value="Да" style="text;html=1;align=center;verticalAlign=middle;whiteSpace=wrap;rounded=0;" parent="1" vertex="1">
          <mxGeometry x="154" y="365.5" width="20" height="20" as="geometry" />
        </mxCell>
        <mxCell id="AZ_xCfwsIbXF0odujIhw-45" style="edgeStyle=orthogonalEdgeStyle;rounded=0;orthogonalLoop=1;jettySize=auto;html=1;entryX=0.5;entryY=1;entryDx=0;entryDy=0;" parent="1" source="AZ_xCfwsIbXF0odujIhw-40" target="AZ_xCfwsIbXF0odujIhw-43" edge="1">
          <mxGeometry relative="1" as="geometry" />
        </mxCell>
        <mxCell id="AZ_xCfwsIbXF0odujIhw-40" value="Цикл 3&lt;br&gt;&lt;font style=&quot;font-size: 10px;&quot;&gt;bus.BusStatus != &quot;В эксплуатации&quot;&lt;/font&gt;" style="shape=loopLimit;whiteSpace=wrap;html=1;" parent="1" vertex="1">
          <mxGeometry x="79" y="385.5" width="120" height="50" as="geometry" />
        </mxCell>
        <mxCell id="AZ_xCfwsIbXF0odujIhw-42" value="" style="group" parent="1" vertex="1" connectable="0">
          <mxGeometry x="79" y="455.5" width="120" height="20" as="geometry" />
        </mxCell>
        <mxCell id="AZ_xCfwsIbXF0odujIhw-43" value="" style="shape=loopLimit;whiteSpace=wrap;html=1;rotation=-180;direction=east;" parent="AZ_xCfwsIbXF0odujIhw-42" vertex="1">
          <mxGeometry width="120" height="20" as="geometry" />
        </mxCell>
        <mxCell id="AZ_xCfwsIbXF0odujIhw-44" value="Цикл 3" style="text;html=1;align=center;verticalAlign=middle;whiteSpace=wrap;rounded=0;direction=west;" parent="AZ_xCfwsIbXF0odujIhw-42" vertex="1">
          <mxGeometry x="30" y="2.5" width="60" height="15" as="geometry" />
        </mxCell>
        <mxCell id="AZ_xCfwsIbXF0odujIhw-52" style="edgeStyle=orthogonalEdgeStyle;rounded=0;orthogonalLoop=1;jettySize=auto;html=1;entryX=0.5;entryY=0;entryDx=0;entryDy=0;" parent="1" source="AZ_xCfwsIbXF0odujIhw-46" target="AZ_xCfwsIbXF0odujIhw-51" edge="1">
          <mxGeometry relative="1" as="geometry" />
        </mxCell>
        <mxCell id="AZ_xCfwsIbXF0odujIhw-55" style="edgeStyle=orthogonalEdgeStyle;rounded=0;orthogonalLoop=1;jettySize=auto;html=1;entryX=0.5;entryY=0;entryDx=0;entryDy=0;" parent="1" source="AZ_xCfwsIbXF0odujIhw-46" target="AZ_xCfwsIbXF0odujIhw-54" edge="1">
          <mxGeometry relative="1" as="geometry" />
        </mxCell>
        <mxCell id="AZ_xCfwsIbXF0odujIhw-46" value="В эксплуатации" style="rhombus;whiteSpace=wrap;html=1;" parent="1" vertex="1">
          <mxGeometry x="79" y="495.5" width="120" height="40" as="geometry" />
        </mxCell>
        <mxCell id="AZ_xCfwsIbXF0odujIhw-50" style="edgeStyle=orthogonalEdgeStyle;rounded=0;orthogonalLoop=1;jettySize=auto;html=1;entryX=0.5;entryY=0;entryDx=0;entryDy=0;" parent="1" source="AZ_xCfwsIbXF0odujIhw-43" target="AZ_xCfwsIbXF0odujIhw-46" edge="1">
          <mxGeometry relative="1" as="geometry" />
        </mxCell>
        <mxCell id="OvKCwNrRggis_gEX_jeD-3" style="edgeStyle=orthogonalEdgeStyle;rounded=0;orthogonalLoop=1;jettySize=auto;html=1;endArrow=none;endFill=0;" edge="1" parent="1" source="AZ_xCfwsIbXF0odujIhw-51">
          <mxGeometry relative="1" as="geometry">
            <mxPoint x="-117.51898734177223" y="555.5" as="targetPoint" />
            <Array as="points">
              <mxPoint x="-118" y="555.5" />
              <mxPoint x="-118" y="556.5" />
              <mxPoint x="-117" y="556.5" />
            </Array>
          </mxGeometry>
        </mxCell>
        <mxCell id="AZ_xCfwsIbXF0odujIhw-51" value="Ошибка&lt;br&gt;&lt;font style=&quot;font-size: 10px;&quot;&gt;Выбранный автобус должен&lt;br&gt;быть в эксплуатации!&lt;/font&gt;" style="shape=parallelogram;perimeter=parallelogramPerimeter;whiteSpace=wrap;html=1;fixedSize=1;" parent="1" vertex="1">
          <mxGeometry x="-101" y="535.5" width="160" height="40" as="geometry" />
        </mxCell>
        <mxCell id="AZ_xCfwsIbXF0odujIhw-53" value="Нет" style="text;html=1;align=center;verticalAlign=middle;whiteSpace=wrap;rounded=0;" parent="1" vertex="1">
          <mxGeometry x="44" y="495.5" width="30" height="20" as="geometry" />
        </mxCell>
        <mxCell id="AZ_xCfwsIbXF0odujIhw-61" style="edgeStyle=orthogonalEdgeStyle;rounded=0;orthogonalLoop=1;jettySize=auto;html=1;entryX=0.5;entryY=1;entryDx=0;entryDy=0;" parent="1" source="AZ_xCfwsIbXF0odujIhw-54" target="AZ_xCfwsIbXF0odujIhw-58" edge="1">
          <mxGeometry relative="1" as="geometry" />
        </mxCell>
        <mxCell id="AZ_xCfwsIbXF0odujIhw-54" value="Цикл 4&lt;br&gt;&lt;font style=&quot;font-size: 10px;&quot;&gt;!System.Text.RegularExpressions.Regex.IsMatch(departurePoint, placePattern&lt;/font&gt;" style="shape=loopLimit;whiteSpace=wrap;html=1;" parent="1" vertex="1">
          <mxGeometry x="-11" y="595.5" width="300" height="50" as="geometry" />
        </mxCell>
        <mxCell id="AZ_xCfwsIbXF0odujIhw-56" value="Да" style="text;html=1;align=center;verticalAlign=middle;whiteSpace=wrap;rounded=0;" parent="1" vertex="1">
          <mxGeometry x="154" y="535.5" width="20" height="20" as="geometry" />
        </mxCell>
        <mxCell id="AZ_xCfwsIbXF0odujIhw-57" value="" style="group" parent="1" vertex="1" connectable="0">
          <mxGeometry x="-11" y="665.5" width="300" height="20" as="geometry" />
        </mxCell>
        <mxCell id="AZ_xCfwsIbXF0odujIhw-58" value="" style="shape=loopLimit;whiteSpace=wrap;html=1;rotation=-180;direction=east;" parent="AZ_xCfwsIbXF0odujIhw-57" vertex="1">
          <mxGeometry width="300" height="20" as="geometry" />
        </mxCell>
        <mxCell id="AZ_xCfwsIbXF0odujIhw-59" value="Цикл 4" style="text;html=1;align=center;verticalAlign=middle;whiteSpace=wrap;rounded=0;direction=west;" parent="AZ_xCfwsIbXF0odujIhw-57" vertex="1">
          <mxGeometry x="75" y="2.5" width="150" height="15" as="geometry" />
        </mxCell>
        <mxCell id="AZ_xCfwsIbXF0odujIhw-65" style="edgeStyle=orthogonalEdgeStyle;rounded=0;orthogonalLoop=1;jettySize=auto;html=1;entryX=0.5;entryY=0;entryDx=0;entryDy=0;" parent="1" source="AZ_xCfwsIbXF0odujIhw-60" target="AZ_xCfwsIbXF0odujIhw-64" edge="1">
          <mxGeometry relative="1" as="geometry" />
        </mxCell>
        <mxCell id="AZ_xCfwsIbXF0odujIhw-69" style="edgeStyle=orthogonalEdgeStyle;rounded=0;orthogonalLoop=1;jettySize=auto;html=1;entryX=0.5;entryY=0;entryDx=0;entryDy=0;" parent="1" source="AZ_xCfwsIbXF0odujIhw-60" target="AZ_xCfwsIbXF0odujIhw-67" edge="1">
          <mxGeometry relative="1" as="geometry" />
        </mxCell>
        <mxCell id="AZ_xCfwsIbXF0odujIhw-60" value="Есть буквы" style="rhombus;whiteSpace=wrap;html=1;" parent="1" vertex="1">
          <mxGeometry x="512" y="86" width="120" height="40" as="geometry" />
        </mxCell>
        <mxCell id="AZ_xCfwsIbXF0odujIhw-171" style="edgeStyle=orthogonalEdgeStyle;rounded=0;orthogonalLoop=1;jettySize=auto;html=1;endArrow=none;endFill=0;" parent="1" source="AZ_xCfwsIbXF0odujIhw-64" edge="1">
          <mxGeometry relative="1" as="geometry">
            <mxPoint x="312" y="146" as="targetPoint" />
            <Array as="points">
              <mxPoint x="311" y="146" />
              <mxPoint x="311" y="146" />
            </Array>
          </mxGeometry>
        </mxCell>
        <mxCell id="AZ_xCfwsIbXF0odujIhw-64" value="Ошибка&lt;br&gt;&lt;font style=&quot;font-size: 10px;&quot;&gt;В поле «Место отправления»&lt;br&gt;должны быть буквы!&lt;/font&gt;" style="shape=parallelogram;perimeter=parallelogramPerimeter;whiteSpace=wrap;html=1;fixedSize=1;" parent="1" vertex="1">
          <mxGeometry x="332" y="126" width="160" height="40" as="geometry" />
        </mxCell>
        <mxCell id="AZ_xCfwsIbXF0odujIhw-66" value="Нет" style="text;html=1;align=center;verticalAlign=middle;whiteSpace=wrap;rounded=0;" parent="1" vertex="1">
          <mxGeometry x="477" y="86" width="30" height="20" as="geometry" />
        </mxCell>
        <mxCell id="AZ_xCfwsIbXF0odujIhw-74" style="edgeStyle=orthogonalEdgeStyle;rounded=0;orthogonalLoop=1;jettySize=auto;html=1;entryX=0.5;entryY=1;entryDx=0;entryDy=0;" parent="1" source="AZ_xCfwsIbXF0odujIhw-67" target="AZ_xCfwsIbXF0odujIhw-72" edge="1">
          <mxGeometry relative="1" as="geometry" />
        </mxCell>
        <mxCell id="AZ_xCfwsIbXF0odujIhw-67" value="Цикл 5&lt;br&gt;&lt;font style=&quot;font-size: 10px;&quot;&gt;!System.Text.RegularExpressions.Regex.IsMatch(arrivalPoint, placePattern&lt;/font&gt;" style="shape=loopLimit;whiteSpace=wrap;html=1;" parent="1" vertex="1">
          <mxGeometry x="422" y="186" width="300" height="50" as="geometry" />
        </mxCell>
        <mxCell id="AZ_xCfwsIbXF0odujIhw-70" value="Да" style="text;html=1;align=center;verticalAlign=middle;whiteSpace=wrap;rounded=0;" parent="1" vertex="1">
          <mxGeometry x="587" y="126" width="20" height="20" as="geometry" />
        </mxCell>
        <mxCell id="AZ_xCfwsIbXF0odujIhw-71" value="" style="group" parent="1" vertex="1" connectable="0">
          <mxGeometry x="422" y="256" width="300" height="20" as="geometry" />
        </mxCell>
        <mxCell id="AZ_xCfwsIbXF0odujIhw-72" value="" style="shape=loopLimit;whiteSpace=wrap;html=1;rotation=-180;direction=east;" parent="AZ_xCfwsIbXF0odujIhw-71" vertex="1">
          <mxGeometry width="300" height="20" as="geometry" />
        </mxCell>
        <mxCell id="AZ_xCfwsIbXF0odujIhw-73" value="Цикл 5" style="text;html=1;align=center;verticalAlign=middle;whiteSpace=wrap;rounded=0;direction=west;" parent="AZ_xCfwsIbXF0odujIhw-71" vertex="1">
          <mxGeometry x="75" y="2.5" width="150" height="15" as="geometry" />
        </mxCell>
        <mxCell id="AZ_xCfwsIbXF0odujIhw-78" style="edgeStyle=orthogonalEdgeStyle;rounded=0;orthogonalLoop=1;jettySize=auto;html=1;entryX=0.5;entryY=0;entryDx=0;entryDy=0;" parent="1" source="AZ_xCfwsIbXF0odujIhw-75" target="AZ_xCfwsIbXF0odujIhw-77" edge="1">
          <mxGeometry relative="1" as="geometry" />
        </mxCell>
        <mxCell id="AZ_xCfwsIbXF0odujIhw-81" style="edgeStyle=orthogonalEdgeStyle;rounded=0;orthogonalLoop=1;jettySize=auto;html=1;entryX=0.5;entryY=0;entryDx=0;entryDy=0;" parent="1" source="AZ_xCfwsIbXF0odujIhw-75" target="AZ_xCfwsIbXF0odujIhw-80" edge="1">
          <mxGeometry relative="1" as="geometry" />
        </mxCell>
        <mxCell id="AZ_xCfwsIbXF0odujIhw-75" value="Есть буквы" style="rhombus;whiteSpace=wrap;html=1;" parent="1" vertex="1">
          <mxGeometry x="512" y="296" width="120" height="40" as="geometry" />
        </mxCell>
        <mxCell id="AZ_xCfwsIbXF0odujIhw-76" style="edgeStyle=orthogonalEdgeStyle;rounded=0;orthogonalLoop=1;jettySize=auto;html=1;entryX=0.5;entryY=0;entryDx=0;entryDy=0;" parent="1" source="AZ_xCfwsIbXF0odujIhw-72" target="AZ_xCfwsIbXF0odujIhw-75" edge="1">
          <mxGeometry relative="1" as="geometry" />
        </mxCell>
        <mxCell id="AZ_xCfwsIbXF0odujIhw-172" style="edgeStyle=orthogonalEdgeStyle;rounded=0;orthogonalLoop=1;jettySize=auto;html=1;endArrow=none;endFill=0;" parent="1" source="AZ_xCfwsIbXF0odujIhw-77" edge="1">
          <mxGeometry relative="1" as="geometry">
            <mxPoint x="312" y="356" as="targetPoint" />
            <Array as="points">
              <mxPoint x="311" y="356" />
              <mxPoint x="311" y="356" />
            </Array>
          </mxGeometry>
        </mxCell>
        <mxCell id="AZ_xCfwsIbXF0odujIhw-77" value="Ошибка&lt;br&gt;&lt;font style=&quot;font-size: 10px;&quot;&gt;В поле «Место прибытия»&lt;br&gt;должны быть буквы!&lt;/font&gt;" style="shape=parallelogram;perimeter=parallelogramPerimeter;whiteSpace=wrap;html=1;fixedSize=1;" parent="1" vertex="1">
          <mxGeometry x="332" y="336" width="160" height="40" as="geometry" />
        </mxCell>
        <mxCell id="AZ_xCfwsIbXF0odujIhw-79" value="Нет" style="text;html=1;align=center;verticalAlign=middle;whiteSpace=wrap;rounded=0;" parent="1" vertex="1">
          <mxGeometry x="477" y="296" width="30" height="20" as="geometry" />
        </mxCell>
        <mxCell id="AZ_xCfwsIbXF0odujIhw-88" style="edgeStyle=orthogonalEdgeStyle;rounded=0;orthogonalLoop=1;jettySize=auto;html=1;entryX=0.5;entryY=1;entryDx=0;entryDy=0;" parent="1" source="AZ_xCfwsIbXF0odujIhw-80" target="AZ_xCfwsIbXF0odujIhw-85" edge="1">
          <mxGeometry relative="1" as="geometry" />
        </mxCell>
        <mxCell id="AZ_xCfwsIbXF0odujIhw-80" value="Цикл 6&lt;br&gt;&lt;font style=&quot;font-size: 10px;&quot;&gt;!System.Text.RegularExpressions.Regex.IsMatch(departureDate, datePattern&lt;/font&gt;" style="shape=loopLimit;whiteSpace=wrap;html=1;" parent="1" vertex="1">
          <mxGeometry x="422" y="396" width="300" height="50" as="geometry" />
        </mxCell>
        <mxCell id="AZ_xCfwsIbXF0odujIhw-82" value="Да" style="text;html=1;align=center;verticalAlign=middle;whiteSpace=wrap;rounded=0;" parent="1" vertex="1">
          <mxGeometry x="587" y="336" width="20" height="20" as="geometry" />
        </mxCell>
        <mxCell id="AZ_xCfwsIbXF0odujIhw-84" value="" style="group" parent="1" vertex="1" connectable="0">
          <mxGeometry x="422" y="466" width="300" height="20" as="geometry" />
        </mxCell>
        <mxCell id="AZ_xCfwsIbXF0odujIhw-85" value="" style="shape=loopLimit;whiteSpace=wrap;html=1;rotation=-180;direction=east;" parent="AZ_xCfwsIbXF0odujIhw-84" vertex="1">
          <mxGeometry width="300" height="20" as="geometry" />
        </mxCell>
        <mxCell id="AZ_xCfwsIbXF0odujIhw-86" value="Цикл 6" style="text;html=1;align=center;verticalAlign=middle;whiteSpace=wrap;rounded=0;direction=west;" parent="AZ_xCfwsIbXF0odujIhw-84" vertex="1">
          <mxGeometry x="75" y="2.5" width="150" height="15" as="geometry" />
        </mxCell>
        <mxCell id="AZ_xCfwsIbXF0odujIhw-93" style="edgeStyle=orthogonalEdgeStyle;rounded=0;orthogonalLoop=1;jettySize=auto;html=1;entryX=0.5;entryY=0;entryDx=0;entryDy=0;" parent="1" source="AZ_xCfwsIbXF0odujIhw-89" target="AZ_xCfwsIbXF0odujIhw-92" edge="1">
          <mxGeometry relative="1" as="geometry" />
        </mxCell>
        <mxCell id="AZ_xCfwsIbXF0odujIhw-96" style="edgeStyle=orthogonalEdgeStyle;rounded=0;orthogonalLoop=1;jettySize=auto;html=1;entryX=0.5;entryY=0;entryDx=0;entryDy=0;" parent="1" source="AZ_xCfwsIbXF0odujIhw-89" target="AZ_xCfwsIbXF0odujIhw-95" edge="1">
          <mxGeometry relative="1" as="geometry" />
        </mxCell>
        <mxCell id="AZ_xCfwsIbXF0odujIhw-89" value="Неверная дата" style="rhombus;whiteSpace=wrap;html=1;" parent="1" vertex="1">
          <mxGeometry x="512" y="506" width="120" height="40" as="geometry" />
        </mxCell>
        <mxCell id="AZ_xCfwsIbXF0odujIhw-91" style="edgeStyle=orthogonalEdgeStyle;rounded=0;orthogonalLoop=1;jettySize=auto;html=1;entryX=0.5;entryY=0;entryDx=0;entryDy=0;" parent="1" source="AZ_xCfwsIbXF0odujIhw-85" target="AZ_xCfwsIbXF0odujIhw-89" edge="1">
          <mxGeometry relative="1" as="geometry" />
        </mxCell>
        <mxCell id="AZ_xCfwsIbXF0odujIhw-173" style="edgeStyle=orthogonalEdgeStyle;rounded=0;orthogonalLoop=1;jettySize=auto;html=1;endArrow=none;endFill=0;" parent="1" source="AZ_xCfwsIbXF0odujIhw-92" edge="1">
          <mxGeometry relative="1" as="geometry">
            <mxPoint x="311" y="566" as="targetPoint" />
          </mxGeometry>
        </mxCell>
        <mxCell id="AZ_xCfwsIbXF0odujIhw-92" value="Ошибка&lt;br&gt;&lt;span style=&quot;font-size: 10px;&quot;&gt;Неверный формат даты&lt;br&gt;в поле «Дата отправления»!&lt;/span&gt;" style="shape=parallelogram;perimeter=parallelogramPerimeter;whiteSpace=wrap;html=1;fixedSize=1;" parent="1" vertex="1">
          <mxGeometry x="332" y="546" width="160" height="40" as="geometry" />
        </mxCell>
        <mxCell id="AZ_xCfwsIbXF0odujIhw-94" value="Да" style="text;html=1;align=center;verticalAlign=middle;whiteSpace=wrap;rounded=0;" parent="1" vertex="1">
          <mxGeometry x="482" y="506" width="20" height="20" as="geometry" />
        </mxCell>
        <mxCell id="AZ_xCfwsIbXF0odujIhw-102" style="edgeStyle=orthogonalEdgeStyle;rounded=0;orthogonalLoop=1;jettySize=auto;html=1;entryX=0.5;entryY=1;entryDx=0;entryDy=0;" parent="1" source="AZ_xCfwsIbXF0odujIhw-95" target="AZ_xCfwsIbXF0odujIhw-100" edge="1">
          <mxGeometry relative="1" as="geometry" />
        </mxCell>
        <mxCell id="AZ_xCfwsIbXF0odujIhw-95" value="Цикл 7&lt;br&gt;&lt;font style=&quot;font-size: 10px;&quot;&gt;!System.Text.RegularExpressions.Regex.IsMatch(arrivalDate, datePattern&lt;/font&gt;" style="shape=loopLimit;whiteSpace=wrap;html=1;" parent="1" vertex="1">
          <mxGeometry x="432" y="606" width="280" height="50" as="geometry" />
        </mxCell>
        <mxCell id="AZ_xCfwsIbXF0odujIhw-97" value="Нет" style="text;html=1;align=center;verticalAlign=middle;whiteSpace=wrap;rounded=0;" parent="1" vertex="1">
          <mxGeometry x="582" y="546" width="30" height="20" as="geometry" />
        </mxCell>
        <mxCell id="AZ_xCfwsIbXF0odujIhw-99" value="" style="group" parent="1" vertex="1" connectable="0">
          <mxGeometry x="432" y="676" width="280" height="20" as="geometry" />
        </mxCell>
        <mxCell id="AZ_xCfwsIbXF0odujIhw-100" value="" style="shape=loopLimit;whiteSpace=wrap;html=1;rotation=-180;direction=east;" parent="AZ_xCfwsIbXF0odujIhw-99" vertex="1">
          <mxGeometry width="280" height="20" as="geometry" />
        </mxCell>
        <mxCell id="AZ_xCfwsIbXF0odujIhw-101" value="Цикл 7" style="text;html=1;align=center;verticalAlign=middle;whiteSpace=wrap;rounded=0;direction=west;" parent="AZ_xCfwsIbXF0odujIhw-99" vertex="1">
          <mxGeometry x="70" y="2.5" width="140" height="15" as="geometry" />
        </mxCell>
        <mxCell id="AZ_xCfwsIbXF0odujIhw-107" style="edgeStyle=orthogonalEdgeStyle;rounded=0;orthogonalLoop=1;jettySize=auto;html=1;entryX=0.5;entryY=0;entryDx=0;entryDy=0;" parent="1" source="AZ_xCfwsIbXF0odujIhw-103" target="AZ_xCfwsIbXF0odujIhw-106" edge="1">
          <mxGeometry relative="1" as="geometry" />
        </mxCell>
        <mxCell id="AZ_xCfwsIbXF0odujIhw-111" style="edgeStyle=orthogonalEdgeStyle;rounded=0;orthogonalLoop=1;jettySize=auto;html=1;entryX=0.5;entryY=0;entryDx=0;entryDy=0;" parent="1" source="AZ_xCfwsIbXF0odujIhw-103" target="AZ_xCfwsIbXF0odujIhw-110" edge="1">
          <mxGeometry relative="1" as="geometry" />
        </mxCell>
        <mxCell id="AZ_xCfwsIbXF0odujIhw-103" value="Неверная дата" style="rhombus;whiteSpace=wrap;html=1;" parent="1" vertex="1">
          <mxGeometry x="942" y="-15" width="120" height="40" as="geometry" />
        </mxCell>
        <mxCell id="AZ_xCfwsIbXF0odujIhw-174" style="edgeStyle=orthogonalEdgeStyle;rounded=0;orthogonalLoop=1;jettySize=auto;html=1;endArrow=none;endFill=0;" parent="1" source="AZ_xCfwsIbXF0odujIhw-106" edge="1">
          <mxGeometry relative="1" as="geometry">
            <mxPoint x="742" y="45" as="targetPoint" />
          </mxGeometry>
        </mxCell>
        <mxCell id="AZ_xCfwsIbXF0odujIhw-106" value="Ошибка&lt;br&gt;&lt;span style=&quot;font-size: 10px;&quot;&gt;Неверный формат даты&lt;br&gt;в поле «Дата прибытия»!&lt;/span&gt;" style="shape=parallelogram;perimeter=parallelogramPerimeter;whiteSpace=wrap;html=1;fixedSize=1;" parent="1" vertex="1">
          <mxGeometry x="782" y="25" width="140" height="40" as="geometry" />
        </mxCell>
        <mxCell id="AZ_xCfwsIbXF0odujIhw-108" value="Да" style="text;html=1;align=center;verticalAlign=middle;whiteSpace=wrap;rounded=0;" parent="1" vertex="1">
          <mxGeometry x="912" y="-15" width="20" height="20" as="geometry" />
        </mxCell>
        <mxCell id="AZ_xCfwsIbXF0odujIhw-117" style="edgeStyle=orthogonalEdgeStyle;rounded=0;orthogonalLoop=1;jettySize=auto;html=1;entryX=0.5;entryY=1;entryDx=0;entryDy=0;" parent="1" source="AZ_xCfwsIbXF0odujIhw-110" target="AZ_xCfwsIbXF0odujIhw-114" edge="1">
          <mxGeometry relative="1" as="geometry" />
        </mxCell>
        <mxCell id="AZ_xCfwsIbXF0odujIhw-110" value="Цикл 8&lt;br&gt;&lt;font style=&quot;font-size: 10px;&quot;&gt;!System.Text.RegularExpressions.Regex.IsMatch(departureTime, timePattern&lt;/font&gt;" style="shape=loopLimit;whiteSpace=wrap;html=1;" parent="1" vertex="1">
          <mxGeometry x="857" y="85" width="290" height="50" as="geometry" />
        </mxCell>
        <mxCell id="AZ_xCfwsIbXF0odujIhw-112" value="Нет" style="text;html=1;align=center;verticalAlign=middle;whiteSpace=wrap;rounded=0;" parent="1" vertex="1">
          <mxGeometry x="1012" y="25" width="30" height="20" as="geometry" />
        </mxCell>
        <mxCell id="AZ_xCfwsIbXF0odujIhw-113" value="р" style="group" parent="1" vertex="1" connectable="0">
          <mxGeometry x="857" y="155" width="290" height="20" as="geometry" />
        </mxCell>
        <mxCell id="AZ_xCfwsIbXF0odujIhw-114" value="" style="shape=loopLimit;whiteSpace=wrap;html=1;rotation=-180;direction=east;" parent="AZ_xCfwsIbXF0odujIhw-113" vertex="1">
          <mxGeometry width="290" height="20" as="geometry" />
        </mxCell>
        <mxCell id="AZ_xCfwsIbXF0odujIhw-115" value="Цикл 8" style="text;html=1;align=center;verticalAlign=middle;whiteSpace=wrap;rounded=0;direction=west;" parent="AZ_xCfwsIbXF0odujIhw-113" vertex="1">
          <mxGeometry x="70" y="2.5" width="140" height="15" as="geometry" />
        </mxCell>
        <mxCell id="AZ_xCfwsIbXF0odujIhw-121" style="edgeStyle=orthogonalEdgeStyle;rounded=0;orthogonalLoop=1;jettySize=auto;html=1;entryX=0.5;entryY=0;entryDx=0;entryDy=0;" parent="1" source="AZ_xCfwsIbXF0odujIhw-118" target="AZ_xCfwsIbXF0odujIhw-120" edge="1">
          <mxGeometry relative="1" as="geometry" />
        </mxCell>
        <mxCell id="AZ_xCfwsIbXF0odujIhw-124" style="edgeStyle=orthogonalEdgeStyle;rounded=0;orthogonalLoop=1;jettySize=auto;html=1;entryX=0.5;entryY=0;entryDx=0;entryDy=0;" parent="1" source="AZ_xCfwsIbXF0odujIhw-118" target="AZ_xCfwsIbXF0odujIhw-123" edge="1">
          <mxGeometry relative="1" as="geometry" />
        </mxCell>
        <mxCell id="AZ_xCfwsIbXF0odujIhw-118" value="Неверное время" style="rhombus;whiteSpace=wrap;html=1;" parent="1" vertex="1">
          <mxGeometry x="942" y="195" width="120" height="40" as="geometry" />
        </mxCell>
        <mxCell id="AZ_xCfwsIbXF0odujIhw-119" style="edgeStyle=orthogonalEdgeStyle;rounded=0;orthogonalLoop=1;jettySize=auto;html=1;entryX=0.5;entryY=0;entryDx=0;entryDy=0;" parent="1" source="AZ_xCfwsIbXF0odujIhw-114" target="AZ_xCfwsIbXF0odujIhw-118" edge="1">
          <mxGeometry relative="1" as="geometry" />
        </mxCell>
        <mxCell id="AZ_xCfwsIbXF0odujIhw-175" style="edgeStyle=orthogonalEdgeStyle;rounded=0;orthogonalLoop=1;jettySize=auto;html=1;endArrow=none;endFill=0;" parent="1" source="AZ_xCfwsIbXF0odujIhw-120" edge="1">
          <mxGeometry relative="1" as="geometry">
            <mxPoint x="742" y="255" as="targetPoint" />
          </mxGeometry>
        </mxCell>
        <mxCell id="AZ_xCfwsIbXF0odujIhw-120" value="Ошибка&lt;br&gt;&lt;span style=&quot;font-size: 10px;&quot;&gt;Неверный формат времени в поле «Время отправления»&lt;/span&gt;" style="shape=parallelogram;perimeter=parallelogramPerimeter;whiteSpace=wrap;html=1;fixedSize=1;" parent="1" vertex="1">
          <mxGeometry x="762" y="235" width="160" height="40" as="geometry" />
        </mxCell>
        <mxCell id="AZ_xCfwsIbXF0odujIhw-122" value="Да" style="text;html=1;align=center;verticalAlign=middle;whiteSpace=wrap;rounded=0;" parent="1" vertex="1">
          <mxGeometry x="912" y="195" width="20" height="20" as="geometry" />
        </mxCell>
        <mxCell id="AZ_xCfwsIbXF0odujIhw-130" style="edgeStyle=orthogonalEdgeStyle;rounded=0;orthogonalLoop=1;jettySize=auto;html=1;entryX=0.5;entryY=1;entryDx=0;entryDy=0;" parent="1" source="AZ_xCfwsIbXF0odujIhw-123" target="AZ_xCfwsIbXF0odujIhw-127" edge="1">
          <mxGeometry relative="1" as="geometry" />
        </mxCell>
        <mxCell id="AZ_xCfwsIbXF0odujIhw-123" value="Цикл 9&lt;br&gt;&lt;font style=&quot;font-size: 10px;&quot;&gt;!System.Text.RegularExpressions.Regex.IsMatch(arrivalTime, timePattern&lt;/font&gt;" style="shape=loopLimit;whiteSpace=wrap;html=1;" parent="1" vertex="1">
          <mxGeometry x="857" y="295" width="290" height="50" as="geometry" />
        </mxCell>
        <mxCell id="AZ_xCfwsIbXF0odujIhw-125" value="Нет" style="text;html=1;align=center;verticalAlign=middle;whiteSpace=wrap;rounded=0;" parent="1" vertex="1">
          <mxGeometry x="1012" y="235" width="30" height="20" as="geometry" />
        </mxCell>
        <mxCell id="AZ_xCfwsIbXF0odujIhw-126" value="р" style="group" parent="1" vertex="1" connectable="0">
          <mxGeometry x="857" y="365" width="290" height="20" as="geometry" />
        </mxCell>
        <mxCell id="AZ_xCfwsIbXF0odujIhw-127" value="" style="shape=loopLimit;whiteSpace=wrap;html=1;rotation=-180;direction=east;" parent="AZ_xCfwsIbXF0odujIhw-126" vertex="1">
          <mxGeometry width="290" height="20" as="geometry" />
        </mxCell>
        <mxCell id="AZ_xCfwsIbXF0odujIhw-128" value="Цикл 9" style="text;html=1;align=center;verticalAlign=middle;whiteSpace=wrap;rounded=0;direction=west;" parent="AZ_xCfwsIbXF0odujIhw-126" vertex="1">
          <mxGeometry x="70" y="2.5" width="140" height="15" as="geometry" />
        </mxCell>
        <mxCell id="AZ_xCfwsIbXF0odujIhw-134" style="edgeStyle=orthogonalEdgeStyle;rounded=0;orthogonalLoop=1;jettySize=auto;html=1;entryX=0.5;entryY=0;entryDx=0;entryDy=0;" parent="1" source="AZ_xCfwsIbXF0odujIhw-131" target="AZ_xCfwsIbXF0odujIhw-133" edge="1">
          <mxGeometry relative="1" as="geometry" />
        </mxCell>
        <mxCell id="AZ_xCfwsIbXF0odujIhw-137" style="edgeStyle=orthogonalEdgeStyle;rounded=0;orthogonalLoop=1;jettySize=auto;html=1;entryX=0.5;entryY=0;entryDx=0;entryDy=0;" parent="1" source="AZ_xCfwsIbXF0odujIhw-131" target="AZ_xCfwsIbXF0odujIhw-136" edge="1">
          <mxGeometry relative="1" as="geometry" />
        </mxCell>
        <mxCell id="AZ_xCfwsIbXF0odujIhw-131" value="Неверное время" style="rhombus;whiteSpace=wrap;html=1;" parent="1" vertex="1">
          <mxGeometry x="942" y="405" width="120" height="40" as="geometry" />
        </mxCell>
        <mxCell id="AZ_xCfwsIbXF0odujIhw-132" style="edgeStyle=orthogonalEdgeStyle;rounded=0;orthogonalLoop=1;jettySize=auto;html=1;entryX=0.5;entryY=0;entryDx=0;entryDy=0;" parent="1" source="AZ_xCfwsIbXF0odujIhw-127" target="AZ_xCfwsIbXF0odujIhw-131" edge="1">
          <mxGeometry relative="1" as="geometry" />
        </mxCell>
        <mxCell id="AZ_xCfwsIbXF0odujIhw-176" style="edgeStyle=orthogonalEdgeStyle;rounded=0;orthogonalLoop=1;jettySize=auto;html=1;endArrow=none;endFill=0;" parent="1" source="AZ_xCfwsIbXF0odujIhw-133" edge="1">
          <mxGeometry relative="1" as="geometry">
            <mxPoint x="742" y="465" as="targetPoint" />
          </mxGeometry>
        </mxCell>
        <mxCell id="AZ_xCfwsIbXF0odujIhw-133" value="Ошибка&lt;br&gt;&lt;span style=&quot;font-size: 10px;&quot;&gt;Неверный формат времени в поле «Время прибытия»&lt;/span&gt;" style="shape=parallelogram;perimeter=parallelogramPerimeter;whiteSpace=wrap;html=1;fixedSize=1;" parent="1" vertex="1">
          <mxGeometry x="762" y="445" width="160" height="40" as="geometry" />
        </mxCell>
        <mxCell id="AZ_xCfwsIbXF0odujIhw-135" value="Да" style="text;html=1;align=center;verticalAlign=middle;whiteSpace=wrap;rounded=0;" parent="1" vertex="1">
          <mxGeometry x="912" y="405" width="20" height="20" as="geometry" />
        </mxCell>
        <mxCell id="AZ_xCfwsIbXF0odujIhw-153" style="edgeStyle=orthogonalEdgeStyle;rounded=0;orthogonalLoop=1;jettySize=auto;html=1;entryX=0.5;entryY=1;entryDx=0;entryDy=0;" parent="1" source="AZ_xCfwsIbXF0odujIhw-136" target="AZ_xCfwsIbXF0odujIhw-143" edge="1">
          <mxGeometry relative="1" as="geometry" />
        </mxCell>
        <mxCell id="AZ_xCfwsIbXF0odujIhw-136" value="Цикл 10&lt;br&gt;&lt;font style=&quot;font-size: 10px;&quot;&gt;Data.flight == null&lt;/font&gt;" style="shape=loopLimit;whiteSpace=wrap;html=1;" parent="1" vertex="1">
          <mxGeometry x="949.5" y="505" width="105" height="40" as="geometry" />
        </mxCell>
        <mxCell id="AZ_xCfwsIbXF0odujIhw-138" value="Нет" style="text;html=1;align=center;verticalAlign=middle;whiteSpace=wrap;rounded=0;" parent="1" vertex="1">
          <mxGeometry x="1012" y="445" width="30" height="20" as="geometry" />
        </mxCell>
        <mxCell id="AZ_xCfwsIbXF0odujIhw-151" value="" style="group" parent="1" vertex="1" connectable="0">
          <mxGeometry x="949.5" y="565" width="105" height="40" as="geometry" />
        </mxCell>
        <mxCell id="AZ_xCfwsIbXF0odujIhw-143" value="" style="shape=loopLimit;whiteSpace=wrap;html=1;rotation=-180;" parent="AZ_xCfwsIbXF0odujIhw-151" vertex="1">
          <mxGeometry width="105" height="40" as="geometry" />
        </mxCell>
        <mxCell id="AZ_xCfwsIbXF0odujIhw-150" value="Цикл 10" style="text;html=1;align=center;verticalAlign=middle;whiteSpace=wrap;rounded=0;" parent="AZ_xCfwsIbXF0odujIhw-151" vertex="1">
          <mxGeometry x="22.5" y="5" width="60" height="30" as="geometry" />
        </mxCell>
        <mxCell id="AZ_xCfwsIbXF0odujIhw-161" style="edgeStyle=orthogonalEdgeStyle;rounded=0;orthogonalLoop=1;jettySize=auto;html=1;entryX=0.5;entryY=0;entryDx=0;entryDy=0;" parent="1" source="AZ_xCfwsIbXF0odujIhw-154" target="AZ_xCfwsIbXF0odujIhw-155" edge="1">
          <mxGeometry relative="1" as="geometry" />
        </mxCell>
        <mxCell id="AZ_xCfwsIbXF0odujIhw-166" style="edgeStyle=orthogonalEdgeStyle;rounded=0;orthogonalLoop=1;jettySize=auto;html=1;entryX=0.5;entryY=0;entryDx=0;entryDy=0;" parent="1" source="AZ_xCfwsIbXF0odujIhw-154" target="AZ_xCfwsIbXF0odujIhw-165" edge="1">
          <mxGeometry relative="1" as="geometry" />
        </mxCell>
        <mxCell id="AZ_xCfwsIbXF0odujIhw-154" value="Значение новое" style="rhombus;whiteSpace=wrap;html=1;" parent="1" vertex="1">
          <mxGeometry x="942" y="625" width="120" height="40" as="geometry" />
        </mxCell>
        <mxCell id="AZ_xCfwsIbXF0odujIhw-162" style="edgeStyle=orthogonalEdgeStyle;rounded=0;orthogonalLoop=1;jettySize=auto;html=1;entryX=1;entryY=0.5;entryDx=0;entryDy=0;" parent="1" source="AZ_xCfwsIbXF0odujIhw-155" target="AZ_xCfwsIbXF0odujIhw-160" edge="1">
          <mxGeometry relative="1" as="geometry">
            <Array as="points">
              <mxPoint x="1142" y="745" />
            </Array>
          </mxGeometry>
        </mxCell>
        <mxCell id="AZ_xCfwsIbXF0odujIhw-155" value="Внести&lt;br&gt;изменения" style="shape=parallelogram;perimeter=parallelogramPerimeter;whiteSpace=wrap;html=1;fixedSize=1;" parent="1" vertex="1">
          <mxGeometry x="1092" y="665" width="100" height="40" as="geometry" />
        </mxCell>
        <mxCell id="AZ_xCfwsIbXF0odujIhw-157" value="Нет" style="text;html=1;align=center;verticalAlign=middle;whiteSpace=wrap;rounded=0;" parent="1" vertex="1">
          <mxGeometry x="1072" y="625" width="30" height="20" as="geometry" />
        </mxCell>
        <mxCell id="AZ_xCfwsIbXF0odujIhw-159" style="edgeStyle=orthogonalEdgeStyle;rounded=0;orthogonalLoop=1;jettySize=auto;html=1;entryX=0.5;entryY=0;entryDx=0;entryDy=0;" parent="1" source="AZ_xCfwsIbXF0odujIhw-143" target="AZ_xCfwsIbXF0odujIhw-154" edge="1">
          <mxGeometry relative="1" as="geometry" />
        </mxCell>
        <mxCell id="AZ_xCfwsIbXF0odujIhw-160" value="Конец" style="ellipse;whiteSpace=wrap;html=1;" parent="1" vertex="1">
          <mxGeometry x="942" y="725" width="120" height="40" as="geometry" />
        </mxCell>
        <mxCell id="AZ_xCfwsIbXF0odujIhw-164" value="Да" style="text;html=1;align=center;verticalAlign=middle;whiteSpace=wrap;rounded=0;" parent="1" vertex="1">
          <mxGeometry x="912" y="625" width="20" height="20" as="geometry" />
        </mxCell>
        <mxCell id="AZ_xCfwsIbXF0odujIhw-167" style="edgeStyle=orthogonalEdgeStyle;rounded=0;orthogonalLoop=1;jettySize=auto;html=1;entryX=0;entryY=0.5;entryDx=0;entryDy=0;" parent="1" source="AZ_xCfwsIbXF0odujIhw-165" target="AZ_xCfwsIbXF0odujIhw-160" edge="1">
          <mxGeometry relative="1" as="geometry">
            <Array as="points">
              <mxPoint x="862" y="745" />
            </Array>
          </mxGeometry>
        </mxCell>
        <mxCell id="AZ_xCfwsIbXF0odujIhw-165" value="Сохранить&lt;br&gt;новую строку" style="shape=parallelogram;perimeter=parallelogramPerimeter;whiteSpace=wrap;html=1;fixedSize=1;" parent="1" vertex="1">
          <mxGeometry x="812" y="665" width="110" height="40" as="geometry" />
        </mxCell>
        <mxCell id="w1g-K1cln3i7FLHQHJpq-1" value="1" style="ellipse;whiteSpace=wrap;html=1;aspect=fixed;" vertex="1" parent="1">
          <mxGeometry x="129" y="706.5" width="20" height="20" as="geometry" />
        </mxCell>
        <mxCell id="w1g-K1cln3i7FLHQHJpq-2" style="edgeStyle=orthogonalEdgeStyle;rounded=0;orthogonalLoop=1;jettySize=auto;html=1;entryX=0.5;entryY=0;entryDx=0;entryDy=0;" edge="1" parent="1" source="AZ_xCfwsIbXF0odujIhw-58" target="w1g-K1cln3i7FLHQHJpq-1">
          <mxGeometry relative="1" as="geometry" />
        </mxCell>
        <mxCell id="OvKCwNrRggis_gEX_jeD-1" value="1" style="whiteSpace=wrap;html=1;aspect=fixed;" vertex="1" parent="1">
          <mxGeometry x="-128" y="706.5" width="20" height="20" as="geometry" />
        </mxCell>
        <mxCell id="OvKCwNrRggis_gEX_jeD-5" style="edgeStyle=orthogonalEdgeStyle;rounded=0;orthogonalLoop=1;jettySize=auto;html=1;entryX=0.5;entryY=0;entryDx=0;entryDy=0;" edge="1" parent="1" source="OvKCwNrRggis_gEX_jeD-4" target="AZ_xCfwsIbXF0odujIhw-60">
          <mxGeometry relative="1" as="geometry" />
        </mxCell>
        <mxCell id="OvKCwNrRggis_gEX_jeD-4" value="1" style="ellipse;whiteSpace=wrap;html=1;aspect=fixed;" vertex="1" parent="1">
          <mxGeometry x="562" y="40" width="20" height="20" as="geometry" />
        </mxCell>
        <mxCell id="OvKCwNrRggis_gEX_jeD-7" style="edgeStyle=orthogonalEdgeStyle;rounded=0;orthogonalLoop=1;jettySize=auto;html=1;" edge="1" parent="1" source="OvKCwNrRggis_gEX_jeD-6">
          <mxGeometry relative="1" as="geometry">
            <mxPoint x="311" y="713.3333333333333" as="targetPoint" />
          </mxGeometry>
        </mxCell>
        <mxCell id="OvKCwNrRggis_gEX_jeD-6" value="1" style="whiteSpace=wrap;html=1;aspect=fixed;" vertex="1" parent="1">
          <mxGeometry x="301" y="40" width="20" height="20" as="geometry" />
        </mxCell>
        <mxCell id="OvKCwNrRggis_gEX_jeD-8" value="2" style="ellipse;whiteSpace=wrap;html=1;aspect=fixed;" vertex="1" parent="1">
          <mxGeometry x="562" y="713" width="20" height="20" as="geometry" />
        </mxCell>
        <mxCell id="OvKCwNrRggis_gEX_jeD-9" value="2" style="whiteSpace=wrap;html=1;aspect=fixed;" vertex="1" parent="1">
          <mxGeometry x="301" y="713" width="20" height="20" as="geometry" />
        </mxCell>
        <mxCell id="OvKCwNrRggis_gEX_jeD-16" value="" style="endArrow=classic;html=1;rounded=0;entryX=0.5;entryY=0;entryDx=0;entryDy=0;exitX=0.5;exitY=0;exitDx=0;exitDy=0;" edge="1" parent="1" source="AZ_xCfwsIbXF0odujIhw-100" target="OvKCwNrRggis_gEX_jeD-8">
          <mxGeometry width="50" height="50" relative="1" as="geometry">
            <mxPoint x="516" y="717" as="sourcePoint" />
            <mxPoint x="566" y="667" as="targetPoint" />
          </mxGeometry>
        </mxCell>
        <mxCell id="OvKCwNrRggis_gEX_jeD-18" style="edgeStyle=orthogonalEdgeStyle;rounded=0;orthogonalLoop=1;jettySize=auto;html=1;entryX=0.5;entryY=0;entryDx=0;entryDy=0;" edge="1" parent="1" source="OvKCwNrRggis_gEX_jeD-17" target="AZ_xCfwsIbXF0odujIhw-103">
          <mxGeometry relative="1" as="geometry" />
        </mxCell>
        <mxCell id="OvKCwNrRggis_gEX_jeD-17" value="2" style="ellipse;whiteSpace=wrap;html=1;aspect=fixed;" vertex="1" parent="1">
          <mxGeometry x="992" y="-53" width="20" height="20" as="geometry" />
        </mxCell>
        <mxCell id="OvKCwNrRggis_gEX_jeD-20" style="edgeStyle=orthogonalEdgeStyle;rounded=0;orthogonalLoop=1;jettySize=auto;html=1;entryX=0;entryY=0.5;entryDx=0;entryDy=0;" edge="1" parent="1" source="OvKCwNrRggis_gEX_jeD-19" target="AZ_xCfwsIbXF0odujIhw-160">
          <mxGeometry relative="1" as="geometry">
            <Array as="points">
              <mxPoint x="742" y="745" />
            </Array>
          </mxGeometry>
        </mxCell>
        <mxCell id="OvKCwNrRggis_gEX_jeD-19" value="2" style="whiteSpace=wrap;html=1;aspect=fixed;" vertex="1" parent="1">
          <mxGeometry x="733" y="-53" width="20" height="20" as="geometry" />
        </mxCell>
      </root>
    </mxGraphModel>
  </diagram>
  <diagram name="Tickets" id="JpL5yrquPBzvnQ_WXyoJ">
    <mxGraphModel dx="1789" dy="582" grid="0" gridSize="10" guides="1" tooltips="1" connect="1" arrows="1" fold="1" page="0" pageScale="1" pageWidth="827" pageHeight="1169" math="0" shadow="0">
      <root>
        <mxCell id="GfaLNNudZ0-2-Tv1ZKhT-0" />
        <mxCell id="GfaLNNudZ0-2-Tv1ZKhT-1" parent="GfaLNNudZ0-2-Tv1ZKhT-0" />
        <mxCell id="GfaLNNudZ0-2-Tv1ZKhT-2" style="edgeStyle=orthogonalEdgeStyle;rounded=0;orthogonalLoop=1;jettySize=auto;html=1;entryX=0.5;entryY=0;entryDx=0;entryDy=0;" parent="GfaLNNudZ0-2-Tv1ZKhT-1" source="GfaLNNudZ0-2-Tv1ZKhT-3" target="GfaLNNudZ0-2-Tv1ZKhT-5" edge="1">
          <mxGeometry relative="1" as="geometry" />
        </mxCell>
        <mxCell id="GfaLNNudZ0-2-Tv1ZKhT-3" value="Начало" style="ellipse;whiteSpace=wrap;html=1;" parent="GfaLNNudZ0-2-Tv1ZKhT-1" vertex="1">
          <mxGeometry x="-267" y="474" width="120" height="40" as="geometry" />
        </mxCell>
        <mxCell id="GfaLNNudZ0-2-Tv1ZKhT-4" style="edgeStyle=orthogonalEdgeStyle;rounded=0;orthogonalLoop=1;jettySize=auto;html=1;entryX=0.5;entryY=0;entryDx=0;entryDy=0;" parent="GfaLNNudZ0-2-Tv1ZKhT-1" source="GfaLNNudZ0-2-Tv1ZKhT-5" target="GfaLNNudZ0-2-Tv1ZKhT-7" edge="1">
          <mxGeometry relative="1" as="geometry" />
        </mxCell>
        <mxCell id="GfaLNNudZ0-2-Tv1ZKhT-5" value="Ввод значений" style="shape=parallelogram;perimeter=parallelogramPerimeter;whiteSpace=wrap;html=1;fixedSize=1;" parent="GfaLNNudZ0-2-Tv1ZKhT-1" vertex="1">
          <mxGeometry x="-267" y="534" width="120" height="20" as="geometry" />
        </mxCell>
        <mxCell id="GfaLNNudZ0-2-Tv1ZKhT-6" style="edgeStyle=orthogonalEdgeStyle;rounded=0;orthogonalLoop=1;jettySize=auto;html=1;entryX=0.5;entryY=1;entryDx=0;entryDy=0;" parent="GfaLNNudZ0-2-Tv1ZKhT-1" source="GfaLNNudZ0-2-Tv1ZKhT-7" target="GfaLNNudZ0-2-Tv1ZKhT-19" edge="1">
          <mxGeometry relative="1" as="geometry" />
        </mxCell>
        <mxCell id="GfaLNNudZ0-2-Tv1ZKhT-7" value="Цикл 1&lt;br&gt;&lt;font style=&quot;font-size: 10px;&quot;&gt;string.IsNullOrEmpty&lt;/font&gt;" style="shape=loopLimit;whiteSpace=wrap;html=1;" parent="GfaLNNudZ0-2-Tv1ZKhT-1" vertex="1">
          <mxGeometry x="-267" y="574" width="120" height="40" as="geometry" />
        </mxCell>
        <mxCell id="GfaLNNudZ0-2-Tv1ZKhT-8" style="edgeStyle=orthogonalEdgeStyle;rounded=0;orthogonalLoop=1;jettySize=auto;html=1;entryX=0.5;entryY=0;entryDx=0;entryDy=0;" parent="GfaLNNudZ0-2-Tv1ZKhT-1" source="GfaLNNudZ0-2-Tv1ZKhT-19" target="GfaLNNudZ0-2-Tv1ZKhT-11" edge="1">
          <mxGeometry relative="1" as="geometry" />
        </mxCell>
        <mxCell id="GfaLNNudZ0-2-Tv1ZKhT-9" style="edgeStyle=orthogonalEdgeStyle;rounded=0;orthogonalLoop=1;jettySize=auto;html=1;entryX=0.5;entryY=0;entryDx=0;entryDy=0;" parent="GfaLNNudZ0-2-Tv1ZKhT-1" source="GfaLNNudZ0-2-Tv1ZKhT-11" target="GfaLNNudZ0-2-Tv1ZKhT-13" edge="1">
          <mxGeometry relative="1" as="geometry" />
        </mxCell>
        <mxCell id="GfaLNNudZ0-2-Tv1ZKhT-10" style="edgeStyle=orthogonalEdgeStyle;rounded=0;orthogonalLoop=1;jettySize=auto;html=1;entryX=0.5;entryY=0;entryDx=0;entryDy=0;" parent="GfaLNNudZ0-2-Tv1ZKhT-1" source="GfaLNNudZ0-2-Tv1ZKhT-11" target="GfaLNNudZ0-2-Tv1ZKhT-16" edge="1">
          <mxGeometry relative="1" as="geometry" />
        </mxCell>
        <mxCell id="GfaLNNudZ0-2-Tv1ZKhT-11" value="Поле пустое" style="rhombus;whiteSpace=wrap;html=1;" parent="GfaLNNudZ0-2-Tv1ZKhT-1" vertex="1">
          <mxGeometry x="-267" y="674" width="120" height="40" as="geometry" />
        </mxCell>
        <mxCell id="0CnjlhxT1tGoZYBVwWb5-1" style="edgeStyle=orthogonalEdgeStyle;rounded=0;orthogonalLoop=1;jettySize=auto;html=1;entryX=0.5;entryY=0;entryDx=0;entryDy=0;" edge="1" parent="GfaLNNudZ0-2-Tv1ZKhT-1" source="GfaLNNudZ0-2-Tv1ZKhT-13" target="0CnjlhxT1tGoZYBVwWb5-0">
          <mxGeometry relative="1" as="geometry" />
        </mxCell>
        <mxCell id="GfaLNNudZ0-2-Tv1ZKhT-13" value="Ошибка&lt;br&gt;&lt;font style=&quot;font-size: 10px;&quot;&gt;Пожалуйста, заполни все поля!&lt;/font&gt;" style="shape=parallelogram;perimeter=parallelogramPerimeter;whiteSpace=wrap;html=1;fixedSize=1;" parent="GfaLNNudZ0-2-Tv1ZKhT-1" vertex="1">
          <mxGeometry x="-427" y="714" width="140" height="40" as="geometry" />
        </mxCell>
        <mxCell id="GfaLNNudZ0-2-Tv1ZKhT-14" value="Да" style="text;html=1;align=center;verticalAlign=middle;whiteSpace=wrap;rounded=0;" parent="GfaLNNudZ0-2-Tv1ZKhT-1" vertex="1">
          <mxGeometry x="-297" y="674" width="20" height="20" as="geometry" />
        </mxCell>
        <mxCell id="GfaLNNudZ0-2-Tv1ZKhT-15" style="edgeStyle=orthogonalEdgeStyle;rounded=0;orthogonalLoop=1;jettySize=auto;html=1;entryX=0.5;entryY=1;entryDx=0;entryDy=0;" parent="GfaLNNudZ0-2-Tv1ZKhT-1" source="GfaLNNudZ0-2-Tv1ZKhT-16" target="GfaLNNudZ0-2-Tv1ZKhT-22" edge="1">
          <mxGeometry relative="1" as="geometry" />
        </mxCell>
        <mxCell id="GfaLNNudZ0-2-Tv1ZKhT-16" value="Цикл 2&lt;br&gt;&lt;font style=&quot;font-size: 10px;&quot;&gt;flight == null&lt;/font&gt;" style="shape=loopLimit;whiteSpace=wrap;html=1;" parent="GfaLNNudZ0-2-Tv1ZKhT-1" vertex="1">
          <mxGeometry x="-267" y="734" width="120" height="40" as="geometry" />
        </mxCell>
        <mxCell id="GfaLNNudZ0-2-Tv1ZKhT-17" value="Нет" style="text;html=1;align=center;verticalAlign=middle;whiteSpace=wrap;rounded=0;" parent="GfaLNNudZ0-2-Tv1ZKhT-1" vertex="1">
          <mxGeometry x="-197" y="714" width="30" height="20" as="geometry" />
        </mxCell>
        <mxCell id="GfaLNNudZ0-2-Tv1ZKhT-18" value="" style="group" parent="GfaLNNudZ0-2-Tv1ZKhT-1" vertex="1" connectable="0">
          <mxGeometry x="-267" y="634" width="120" height="20" as="geometry" />
        </mxCell>
        <mxCell id="GfaLNNudZ0-2-Tv1ZKhT-19" value="" style="shape=loopLimit;whiteSpace=wrap;html=1;rotation=-180;direction=east;" parent="GfaLNNudZ0-2-Tv1ZKhT-18" vertex="1">
          <mxGeometry width="120" height="20" as="geometry" />
        </mxCell>
        <mxCell id="GfaLNNudZ0-2-Tv1ZKhT-20" value="Цикл 1" style="text;html=1;align=center;verticalAlign=middle;whiteSpace=wrap;rounded=0;direction=west;" parent="GfaLNNudZ0-2-Tv1ZKhT-18" vertex="1">
          <mxGeometry x="30" y="2.5" width="60" height="15" as="geometry" />
        </mxCell>
        <mxCell id="GfaLNNudZ0-2-Tv1ZKhT-21" value="" style="group" parent="GfaLNNudZ0-2-Tv1ZKhT-1" vertex="1" connectable="0">
          <mxGeometry x="-267" y="794" width="120" height="20" as="geometry" />
        </mxCell>
        <mxCell id="GfaLNNudZ0-2-Tv1ZKhT-22" value="" style="shape=loopLimit;whiteSpace=wrap;html=1;rotation=-180;direction=east;" parent="GfaLNNudZ0-2-Tv1ZKhT-21" vertex="1">
          <mxGeometry width="120" height="20" as="geometry" />
        </mxCell>
        <mxCell id="GfaLNNudZ0-2-Tv1ZKhT-23" value="Цикл 2" style="text;html=1;align=center;verticalAlign=middle;whiteSpace=wrap;rounded=0;direction=west;" parent="GfaLNNudZ0-2-Tv1ZKhT-21" vertex="1">
          <mxGeometry x="30" y="2.5" width="60" height="15" as="geometry" />
        </mxCell>
        <mxCell id="GfaLNNudZ0-2-Tv1ZKhT-24" style="edgeStyle=orthogonalEdgeStyle;rounded=0;orthogonalLoop=1;jettySize=auto;html=1;entryX=0.5;entryY=0;entryDx=0;entryDy=0;" parent="GfaLNNudZ0-2-Tv1ZKhT-1" source="GfaLNNudZ0-2-Tv1ZKhT-26" target="GfaLNNudZ0-2-Tv1ZKhT-28" edge="1">
          <mxGeometry relative="1" as="geometry" />
        </mxCell>
        <mxCell id="GfaLNNudZ0-2-Tv1ZKhT-25" style="edgeStyle=orthogonalEdgeStyle;rounded=0;orthogonalLoop=1;jettySize=auto;html=1;entryX=0.5;entryY=0;entryDx=0;entryDy=0;" parent="GfaLNNudZ0-2-Tv1ZKhT-1" source="GfaLNNudZ0-2-Tv1ZKhT-26" target="GfaLNNudZ0-2-Tv1ZKhT-33" edge="1">
          <mxGeometry relative="1" as="geometry" />
        </mxCell>
        <mxCell id="GfaLNNudZ0-2-Tv1ZKhT-26" value="ID существует" style="rhombus;whiteSpace=wrap;html=1;" parent="GfaLNNudZ0-2-Tv1ZKhT-1" vertex="1">
          <mxGeometry x="80" y="400" width="120" height="40" as="geometry" />
        </mxCell>
        <mxCell id="GfaLNNudZ0-2-Tv1ZKhT-27" style="edgeStyle=orthogonalEdgeStyle;rounded=0;orthogonalLoop=1;jettySize=auto;html=1;endArrow=none;endFill=0;" parent="GfaLNNudZ0-2-Tv1ZKhT-1" source="GfaLNNudZ0-2-Tv1ZKhT-28" edge="1">
          <mxGeometry relative="1" as="geometry">
            <mxPoint x="-120" y="460" as="targetPoint" />
          </mxGeometry>
        </mxCell>
        <mxCell id="GfaLNNudZ0-2-Tv1ZKhT-28" value="Ошибка&lt;br&gt;&lt;font style=&quot;font-size: 10px;&quot;&gt;Рейса с таким ID не существует!&lt;/font&gt;" style="shape=parallelogram;perimeter=parallelogramPerimeter;whiteSpace=wrap;html=1;fixedSize=1;" parent="GfaLNNudZ0-2-Tv1ZKhT-1" vertex="1">
          <mxGeometry x="-80" y="440" width="140" height="40" as="geometry" />
        </mxCell>
        <mxCell id="GfaLNNudZ0-2-Tv1ZKhT-29" value="Нет" style="text;html=1;align=center;verticalAlign=middle;whiteSpace=wrap;rounded=0;" parent="GfaLNNudZ0-2-Tv1ZKhT-1" vertex="1">
          <mxGeometry x="45" y="400" width="30" height="20" as="geometry" />
        </mxCell>
        <mxCell id="GfaLNNudZ0-2-Tv1ZKhT-31" value="Да" style="text;html=1;align=center;verticalAlign=middle;whiteSpace=wrap;rounded=0;" parent="GfaLNNudZ0-2-Tv1ZKhT-1" vertex="1">
          <mxGeometry x="155" y="440" width="20" height="20" as="geometry" />
        </mxCell>
        <mxCell id="GfaLNNudZ0-2-Tv1ZKhT-32" style="edgeStyle=orthogonalEdgeStyle;rounded=0;orthogonalLoop=1;jettySize=auto;html=1;entryX=0.5;entryY=1;entryDx=0;entryDy=0;" parent="GfaLNNudZ0-2-Tv1ZKhT-1" source="GfaLNNudZ0-2-Tv1ZKhT-33" target="GfaLNNudZ0-2-Tv1ZKhT-35" edge="1">
          <mxGeometry relative="1" as="geometry" />
        </mxCell>
        <mxCell id="GfaLNNudZ0-2-Tv1ZKhT-33" value="Цикл 3&lt;br&gt;&lt;font style=&quot;font-size: 10px;&quot;&gt;!decimal.TryParse(ticketPrice, out decimal price)&lt;/font&gt;" style="shape=loopLimit;whiteSpace=wrap;html=1;" parent="GfaLNNudZ0-2-Tv1ZKhT-1" vertex="1">
          <mxGeometry x="70" y="460" width="140" height="50" as="geometry" />
        </mxCell>
        <mxCell id="GfaLNNudZ0-2-Tv1ZKhT-34" value="" style="group" parent="GfaLNNudZ0-2-Tv1ZKhT-1" vertex="1" connectable="0">
          <mxGeometry x="70" y="530" width="140" height="20" as="geometry" />
        </mxCell>
        <mxCell id="GfaLNNudZ0-2-Tv1ZKhT-35" value="" style="shape=loopLimit;whiteSpace=wrap;html=1;rotation=-180;direction=east;" parent="GfaLNNudZ0-2-Tv1ZKhT-34" vertex="1">
          <mxGeometry width="140" height="20" as="geometry" />
        </mxCell>
        <mxCell id="GfaLNNudZ0-2-Tv1ZKhT-36" value="Цикл 3" style="text;html=1;align=center;verticalAlign=middle;whiteSpace=wrap;rounded=0;direction=west;" parent="GfaLNNudZ0-2-Tv1ZKhT-34" vertex="1">
          <mxGeometry x="35" y="2.5" width="70" height="15" as="geometry" />
        </mxCell>
        <mxCell id="GfaLNNudZ0-2-Tv1ZKhT-37" style="edgeStyle=orthogonalEdgeStyle;rounded=0;orthogonalLoop=1;jettySize=auto;html=1;entryX=0.5;entryY=0;entryDx=0;entryDy=0;" parent="GfaLNNudZ0-2-Tv1ZKhT-1" source="GfaLNNudZ0-2-Tv1ZKhT-39" target="GfaLNNudZ0-2-Tv1ZKhT-42" edge="1">
          <mxGeometry relative="1" as="geometry" />
        </mxCell>
        <mxCell id="2g8RrUxxCOsX7trWKCzF-0" style="edgeStyle=orthogonalEdgeStyle;rounded=0;orthogonalLoop=1;jettySize=auto;html=1;entryX=0.5;entryY=0;entryDx=0;entryDy=0;" parent="GfaLNNudZ0-2-Tv1ZKhT-1" source="GfaLNNudZ0-2-Tv1ZKhT-39" target="GfaLNNudZ0-2-Tv1ZKhT-123" edge="1">
          <mxGeometry relative="1" as="geometry" />
        </mxCell>
        <mxCell id="GfaLNNudZ0-2-Tv1ZKhT-39" value="Есть цифры" style="rhombus;whiteSpace=wrap;html=1;" parent="GfaLNNudZ0-2-Tv1ZKhT-1" vertex="1">
          <mxGeometry x="80" y="570" width="120" height="40" as="geometry" />
        </mxCell>
        <mxCell id="GfaLNNudZ0-2-Tv1ZKhT-40" style="edgeStyle=orthogonalEdgeStyle;rounded=0;orthogonalLoop=1;jettySize=auto;html=1;entryX=0.5;entryY=0;entryDx=0;entryDy=0;" parent="GfaLNNudZ0-2-Tv1ZKhT-1" source="GfaLNNudZ0-2-Tv1ZKhT-35" target="GfaLNNudZ0-2-Tv1ZKhT-39" edge="1">
          <mxGeometry relative="1" as="geometry" />
        </mxCell>
        <mxCell id="GfaLNNudZ0-2-Tv1ZKhT-41" style="edgeStyle=orthogonalEdgeStyle;rounded=0;orthogonalLoop=1;jettySize=auto;html=1;endArrow=none;endFill=0;" parent="GfaLNNudZ0-2-Tv1ZKhT-1" source="GfaLNNudZ0-2-Tv1ZKhT-42" edge="1">
          <mxGeometry relative="1" as="geometry">
            <mxPoint x="-120" y="630" as="targetPoint" />
          </mxGeometry>
        </mxCell>
        <mxCell id="GfaLNNudZ0-2-Tv1ZKhT-42" value="Ошибка&lt;br&gt;&lt;span style=&quot;font-size: 10px;&quot;&gt;В поле «Цена» должны быть цифры!&lt;/span&gt;" style="shape=parallelogram;perimeter=parallelogramPerimeter;whiteSpace=wrap;html=1;fixedSize=1;" parent="GfaLNNudZ0-2-Tv1ZKhT-1" vertex="1">
          <mxGeometry x="-100" y="610" width="160" height="40" as="geometry" />
        </mxCell>
        <mxCell id="GfaLNNudZ0-2-Tv1ZKhT-43" value="Нет" style="text;html=1;align=center;verticalAlign=middle;whiteSpace=wrap;rounded=0;" parent="GfaLNNudZ0-2-Tv1ZKhT-1" vertex="1">
          <mxGeometry x="45" y="570" width="30" height="20" as="geometry" />
        </mxCell>
        <mxCell id="GfaLNNudZ0-2-Tv1ZKhT-46" value="Да" style="text;html=1;align=center;verticalAlign=middle;whiteSpace=wrap;rounded=0;" parent="GfaLNNudZ0-2-Tv1ZKhT-1" vertex="1">
          <mxGeometry x="155" y="610" width="20" height="20" as="geometry" />
        </mxCell>
        <mxCell id="GfaLNNudZ0-2-Tv1ZKhT-122" style="edgeStyle=orthogonalEdgeStyle;rounded=0;orthogonalLoop=1;jettySize=auto;html=1;entryX=0.5;entryY=1;entryDx=0;entryDy=0;" parent="GfaLNNudZ0-2-Tv1ZKhT-1" source="GfaLNNudZ0-2-Tv1ZKhT-123" target="GfaLNNudZ0-2-Tv1ZKhT-126" edge="1">
          <mxGeometry relative="1" as="geometry" />
        </mxCell>
        <mxCell id="GfaLNNudZ0-2-Tv1ZKhT-123" value="Цикл 10&lt;br&gt;&lt;font style=&quot;font-size: 10px;&quot;&gt;Data.flight == null&lt;/font&gt;" style="shape=loopLimit;whiteSpace=wrap;html=1;" parent="GfaLNNudZ0-2-Tv1ZKhT-1" vertex="1">
          <mxGeometry x="87.5" y="640" width="105" height="40" as="geometry" />
        </mxCell>
        <mxCell id="GfaLNNudZ0-2-Tv1ZKhT-125" value="" style="group" parent="GfaLNNudZ0-2-Tv1ZKhT-1" vertex="1" connectable="0">
          <mxGeometry x="87.5" y="700" width="105" height="40" as="geometry" />
        </mxCell>
        <mxCell id="GfaLNNudZ0-2-Tv1ZKhT-126" value="" style="shape=loopLimit;whiteSpace=wrap;html=1;rotation=-180;" parent="GfaLNNudZ0-2-Tv1ZKhT-125" vertex="1">
          <mxGeometry width="105" height="40" as="geometry" />
        </mxCell>
        <mxCell id="GfaLNNudZ0-2-Tv1ZKhT-127" value="Цикл 10" style="text;html=1;align=center;verticalAlign=middle;whiteSpace=wrap;rounded=0;" parent="GfaLNNudZ0-2-Tv1ZKhT-125" vertex="1">
          <mxGeometry x="22.5" y="5" width="60" height="30" as="geometry" />
        </mxCell>
        <mxCell id="GfaLNNudZ0-2-Tv1ZKhT-128" style="edgeStyle=orthogonalEdgeStyle;rounded=0;orthogonalLoop=1;jettySize=auto;html=1;entryX=0.5;entryY=0;entryDx=0;entryDy=0;" parent="GfaLNNudZ0-2-Tv1ZKhT-1" source="GfaLNNudZ0-2-Tv1ZKhT-130" target="GfaLNNudZ0-2-Tv1ZKhT-132" edge="1">
          <mxGeometry relative="1" as="geometry" />
        </mxCell>
        <mxCell id="GfaLNNudZ0-2-Tv1ZKhT-129" style="edgeStyle=orthogonalEdgeStyle;rounded=0;orthogonalLoop=1;jettySize=auto;html=1;entryX=0.5;entryY=0;entryDx=0;entryDy=0;" parent="GfaLNNudZ0-2-Tv1ZKhT-1" source="GfaLNNudZ0-2-Tv1ZKhT-130" target="GfaLNNudZ0-2-Tv1ZKhT-138" edge="1">
          <mxGeometry relative="1" as="geometry" />
        </mxCell>
        <mxCell id="GfaLNNudZ0-2-Tv1ZKhT-130" value="Значение новое" style="rhombus;whiteSpace=wrap;html=1;" parent="GfaLNNudZ0-2-Tv1ZKhT-1" vertex="1">
          <mxGeometry x="80" y="760" width="120" height="40" as="geometry" />
        </mxCell>
        <mxCell id="GfaLNNudZ0-2-Tv1ZKhT-131" style="edgeStyle=orthogonalEdgeStyle;rounded=0;orthogonalLoop=1;jettySize=auto;html=1;entryX=1;entryY=0.5;entryDx=0;entryDy=0;" parent="GfaLNNudZ0-2-Tv1ZKhT-1" source="GfaLNNudZ0-2-Tv1ZKhT-132" target="GfaLNNudZ0-2-Tv1ZKhT-135" edge="1">
          <mxGeometry relative="1" as="geometry">
            <Array as="points">
              <mxPoint x="280" y="880" />
            </Array>
          </mxGeometry>
        </mxCell>
        <mxCell id="GfaLNNudZ0-2-Tv1ZKhT-132" value="Внести&lt;br&gt;изменения" style="shape=parallelogram;perimeter=parallelogramPerimeter;whiteSpace=wrap;html=1;fixedSize=1;" parent="GfaLNNudZ0-2-Tv1ZKhT-1" vertex="1">
          <mxGeometry x="230" y="800" width="100" height="40" as="geometry" />
        </mxCell>
        <mxCell id="GfaLNNudZ0-2-Tv1ZKhT-133" value="Нет" style="text;html=1;align=center;verticalAlign=middle;whiteSpace=wrap;rounded=0;" parent="GfaLNNudZ0-2-Tv1ZKhT-1" vertex="1">
          <mxGeometry x="210" y="760" width="30" height="20" as="geometry" />
        </mxCell>
        <mxCell id="GfaLNNudZ0-2-Tv1ZKhT-134" style="edgeStyle=orthogonalEdgeStyle;rounded=0;orthogonalLoop=1;jettySize=auto;html=1;entryX=0.5;entryY=0;entryDx=0;entryDy=0;" parent="GfaLNNudZ0-2-Tv1ZKhT-1" source="GfaLNNudZ0-2-Tv1ZKhT-126" target="GfaLNNudZ0-2-Tv1ZKhT-130" edge="1">
          <mxGeometry relative="1" as="geometry" />
        </mxCell>
        <mxCell id="GfaLNNudZ0-2-Tv1ZKhT-135" value="Конец" style="ellipse;whiteSpace=wrap;html=1;" parent="GfaLNNudZ0-2-Tv1ZKhT-1" vertex="1">
          <mxGeometry x="80" y="860" width="120" height="40" as="geometry" />
        </mxCell>
        <mxCell id="GfaLNNudZ0-2-Tv1ZKhT-136" value="Да" style="text;html=1;align=center;verticalAlign=middle;whiteSpace=wrap;rounded=0;" parent="GfaLNNudZ0-2-Tv1ZKhT-1" vertex="1">
          <mxGeometry x="50" y="760" width="20" height="20" as="geometry" />
        </mxCell>
        <mxCell id="GfaLNNudZ0-2-Tv1ZKhT-137" style="edgeStyle=orthogonalEdgeStyle;rounded=0;orthogonalLoop=1;jettySize=auto;html=1;entryX=0;entryY=0.5;entryDx=0;entryDy=0;" parent="GfaLNNudZ0-2-Tv1ZKhT-1" source="GfaLNNudZ0-2-Tv1ZKhT-138" target="GfaLNNudZ0-2-Tv1ZKhT-135" edge="1">
          <mxGeometry relative="1" as="geometry">
            <Array as="points">
              <mxPoint y="880" />
            </Array>
          </mxGeometry>
        </mxCell>
        <mxCell id="GfaLNNudZ0-2-Tv1ZKhT-138" value="Сохранить&lt;br&gt;новую строку" style="shape=parallelogram;perimeter=parallelogramPerimeter;whiteSpace=wrap;html=1;fixedSize=1;" parent="GfaLNNudZ0-2-Tv1ZKhT-1" vertex="1">
          <mxGeometry x="-50" y="800" width="110" height="40" as="geometry" />
        </mxCell>
        <mxCell id="4AKbS3Zlhx8Dung3U2IC-0" value="1" style="ellipse;whiteSpace=wrap;html=1;aspect=fixed;" vertex="1" parent="GfaLNNudZ0-2-Tv1ZKhT-1">
          <mxGeometry x="-217" y="830" width="20" height="20" as="geometry" />
        </mxCell>
        <mxCell id="4AKbS3Zlhx8Dung3U2IC-4" value="" style="endArrow=classic;html=1;rounded=0;entryX=0.5;entryY=0;entryDx=0;entryDy=0;exitX=0.5;exitY=0;exitDx=0;exitDy=0;" edge="1" parent="GfaLNNudZ0-2-Tv1ZKhT-1" source="GfaLNNudZ0-2-Tv1ZKhT-22" target="4AKbS3Zlhx8Dung3U2IC-0">
          <mxGeometry width="50" height="50" relative="1" as="geometry">
            <mxPoint x="-170" y="770" as="sourcePoint" />
            <mxPoint x="-120" y="720" as="targetPoint" />
          </mxGeometry>
        </mxCell>
        <mxCell id="0CnjlhxT1tGoZYBVwWb5-0" value="1" style="whiteSpace=wrap;html=1;aspect=fixed;" vertex="1" parent="GfaLNNudZ0-2-Tv1ZKhT-1">
          <mxGeometry x="-367" y="830" width="20" height="20" as="geometry" />
        </mxCell>
        <mxCell id="0CnjlhxT1tGoZYBVwWb5-3" style="edgeStyle=orthogonalEdgeStyle;rounded=0;orthogonalLoop=1;jettySize=auto;html=1;entryX=0.5;entryY=0;entryDx=0;entryDy=0;" edge="1" parent="GfaLNNudZ0-2-Tv1ZKhT-1" source="0CnjlhxT1tGoZYBVwWb5-2" target="GfaLNNudZ0-2-Tv1ZKhT-26">
          <mxGeometry relative="1" as="geometry" />
        </mxCell>
        <mxCell id="0CnjlhxT1tGoZYBVwWb5-2" value="1" style="ellipse;whiteSpace=wrap;html=1;aspect=fixed;" vertex="1" parent="GfaLNNudZ0-2-Tv1ZKhT-1">
          <mxGeometry x="130" y="360" width="20" height="20" as="geometry" />
        </mxCell>
        <mxCell id="0CnjlhxT1tGoZYBVwWb5-5" style="edgeStyle=orthogonalEdgeStyle;rounded=0;orthogonalLoop=1;jettySize=auto;html=1;entryX=0;entryY=0.5;entryDx=0;entryDy=0;" edge="1" parent="GfaLNNudZ0-2-Tv1ZKhT-1" source="0CnjlhxT1tGoZYBVwWb5-4" target="GfaLNNudZ0-2-Tv1ZKhT-135">
          <mxGeometry relative="1" as="geometry">
            <Array as="points">
              <mxPoint x="-120" y="880" />
            </Array>
          </mxGeometry>
        </mxCell>
        <mxCell id="0CnjlhxT1tGoZYBVwWb5-4" value="1" style="whiteSpace=wrap;html=1;aspect=fixed;" vertex="1" parent="GfaLNNudZ0-2-Tv1ZKhT-1">
          <mxGeometry x="-130" y="360" width="20" height="20" as="geometry" />
        </mxCell>
      </root>
    </mxGraphModel>
  </diagram>
  <diagram name="Buses" id="ul3t7YQ4a2J1Nwr8CQPY">
    <mxGraphModel dx="2234" dy="844" grid="0" gridSize="10" guides="1" tooltips="1" connect="1" arrows="1" fold="1" page="0" pageScale="1" pageWidth="827" pageHeight="1169" math="0" shadow="0">
      <root>
        <mxCell id="7tuzXcdUXrdJQI32HFEA-0" />
        <mxCell id="7tuzXcdUXrdJQI32HFEA-1" parent="7tuzXcdUXrdJQI32HFEA-0" />
        <mxCell id="7tuzXcdUXrdJQI32HFEA-2" style="edgeStyle=orthogonalEdgeStyle;rounded=0;orthogonalLoop=1;jettySize=auto;html=1;entryX=0.5;entryY=0;entryDx=0;entryDy=0;" parent="7tuzXcdUXrdJQI32HFEA-1" source="7tuzXcdUXrdJQI32HFEA-3" target="7tuzXcdUXrdJQI32HFEA-5" edge="1">
          <mxGeometry relative="1" as="geometry" />
        </mxCell>
        <mxCell id="7tuzXcdUXrdJQI32HFEA-3" value="Начало" style="ellipse;whiteSpace=wrap;html=1;" parent="7tuzXcdUXrdJQI32HFEA-1" vertex="1">
          <mxGeometry x="-463" y="30" width="120" height="40" as="geometry" />
        </mxCell>
        <mxCell id="7tuzXcdUXrdJQI32HFEA-4" style="edgeStyle=orthogonalEdgeStyle;rounded=0;orthogonalLoop=1;jettySize=auto;html=1;entryX=0.5;entryY=0;entryDx=0;entryDy=0;" parent="7tuzXcdUXrdJQI32HFEA-1" source="7tuzXcdUXrdJQI32HFEA-5" target="7tuzXcdUXrdJQI32HFEA-7" edge="1">
          <mxGeometry relative="1" as="geometry" />
        </mxCell>
        <mxCell id="7tuzXcdUXrdJQI32HFEA-5" value="Ввод значений" style="shape=parallelogram;perimeter=parallelogramPerimeter;whiteSpace=wrap;html=1;fixedSize=1;" parent="7tuzXcdUXrdJQI32HFEA-1" vertex="1">
          <mxGeometry x="-463" y="90" width="120" height="20" as="geometry" />
        </mxCell>
        <mxCell id="7tuzXcdUXrdJQI32HFEA-6" style="edgeStyle=orthogonalEdgeStyle;rounded=0;orthogonalLoop=1;jettySize=auto;html=1;entryX=0.5;entryY=1;entryDx=0;entryDy=0;" parent="7tuzXcdUXrdJQI32HFEA-1" source="7tuzXcdUXrdJQI32HFEA-7" target="7tuzXcdUXrdJQI32HFEA-19" edge="1">
          <mxGeometry relative="1" as="geometry" />
        </mxCell>
        <mxCell id="7tuzXcdUXrdJQI32HFEA-7" value="Цикл 1&lt;br&gt;&lt;font style=&quot;font-size: 10px;&quot;&gt;string.IsNullOrEmpty&lt;/font&gt;" style="shape=loopLimit;whiteSpace=wrap;html=1;" parent="7tuzXcdUXrdJQI32HFEA-1" vertex="1">
          <mxGeometry x="-463" y="130" width="120" height="40" as="geometry" />
        </mxCell>
        <mxCell id="7tuzXcdUXrdJQI32HFEA-8" style="edgeStyle=orthogonalEdgeStyle;rounded=0;orthogonalLoop=1;jettySize=auto;html=1;entryX=0.5;entryY=0;entryDx=0;entryDy=0;" parent="7tuzXcdUXrdJQI32HFEA-1" source="7tuzXcdUXrdJQI32HFEA-19" target="7tuzXcdUXrdJQI32HFEA-11" edge="1">
          <mxGeometry relative="1" as="geometry" />
        </mxCell>
        <mxCell id="7tuzXcdUXrdJQI32HFEA-10" style="edgeStyle=orthogonalEdgeStyle;rounded=0;orthogonalLoop=1;jettySize=auto;html=1;entryX=0.5;entryY=0;entryDx=0;entryDy=0;" parent="7tuzXcdUXrdJQI32HFEA-1" source="7tuzXcdUXrdJQI32HFEA-11" target="7tuzXcdUXrdJQI32HFEA-16" edge="1">
          <mxGeometry relative="1" as="geometry" />
        </mxCell>
        <mxCell id="X4ylje505w6BaTdTYDWJ-0" style="edgeStyle=orthogonalEdgeStyle;rounded=0;orthogonalLoop=1;jettySize=auto;html=1;entryX=1;entryY=0.5;entryDx=0;entryDy=0;" parent="7tuzXcdUXrdJQI32HFEA-1" source="7tuzXcdUXrdJQI32HFEA-11" target="7tuzXcdUXrdJQI32HFEA-13" edge="1">
          <mxGeometry relative="1" as="geometry" />
        </mxCell>
        <mxCell id="7tuzXcdUXrdJQI32HFEA-11" value="Поле пустое" style="rhombus;whiteSpace=wrap;html=1;" parent="7tuzXcdUXrdJQI32HFEA-1" vertex="1">
          <mxGeometry x="-463" y="230" width="120" height="40" as="geometry" />
        </mxCell>
        <mxCell id="I5gxuKiB4czhWme-lOhZ-7" style="edgeStyle=orthogonalEdgeStyle;rounded=0;orthogonalLoop=1;jettySize=auto;html=1;entryX=0.5;entryY=0;entryDx=0;entryDy=0;" parent="7tuzXcdUXrdJQI32HFEA-1" source="7tuzXcdUXrdJQI32HFEA-13" edge="1" target="I5gxuKiB4czhWme-lOhZ-8">
          <mxGeometry relative="1" as="geometry">
            <mxPoint x="-690" y="559.9999999999999" as="targetPoint" />
            <Array as="points">
              <mxPoint x="-662" y="250" />
            </Array>
          </mxGeometry>
        </mxCell>
        <mxCell id="7tuzXcdUXrdJQI32HFEA-13" value="Ошибка&lt;br&gt;&lt;font style=&quot;font-size: 10px;&quot;&gt;Пожалуйста, заполни все поля!&lt;/font&gt;" style="shape=parallelogram;perimeter=parallelogramPerimeter;whiteSpace=wrap;html=1;fixedSize=1;" parent="7tuzXcdUXrdJQI32HFEA-1" vertex="1">
          <mxGeometry x="-638" y="230" width="140" height="40" as="geometry" />
        </mxCell>
        <mxCell id="7tuzXcdUXrdJQI32HFEA-14" value="Да" style="text;html=1;align=center;verticalAlign=middle;whiteSpace=wrap;rounded=0;" parent="7tuzXcdUXrdJQI32HFEA-1" vertex="1">
          <mxGeometry x="-483" y="230" width="20" height="20" as="geometry" />
        </mxCell>
        <mxCell id="7tuzXcdUXrdJQI32HFEA-15" style="edgeStyle=orthogonalEdgeStyle;rounded=0;orthogonalLoop=1;jettySize=auto;html=1;entryX=0.5;entryY=1;entryDx=0;entryDy=0;" parent="7tuzXcdUXrdJQI32HFEA-1" source="7tuzXcdUXrdJQI32HFEA-16" target="7tuzXcdUXrdJQI32HFEA-22" edge="1">
          <mxGeometry relative="1" as="geometry" />
        </mxCell>
        <mxCell id="7tuzXcdUXrdJQI32HFEA-16" value="Цикл 2&lt;br&gt;&lt;font style=&quot;font-size: 10px;&quot;&gt;!System.Text.RegularExpressions.Regex.IsMatch(busLicensePlate, licensePlatePattern)&lt;/font&gt;" style="shape=loopLimit;whiteSpace=wrap;html=1;" parent="7tuzXcdUXrdJQI32HFEA-1" vertex="1">
          <mxGeometry x="-558" y="290" width="310" height="40" as="geometry" />
        </mxCell>
        <mxCell id="7tuzXcdUXrdJQI32HFEA-17" value="Нет" style="text;html=1;align=center;verticalAlign=middle;whiteSpace=wrap;rounded=0;" parent="7tuzXcdUXrdJQI32HFEA-1" vertex="1">
          <mxGeometry x="-443" y="270" width="30" height="20" as="geometry" />
        </mxCell>
        <mxCell id="7tuzXcdUXrdJQI32HFEA-18" value="" style="group" parent="7tuzXcdUXrdJQI32HFEA-1" vertex="1" connectable="0">
          <mxGeometry x="-463" y="190" width="120" height="20" as="geometry" />
        </mxCell>
        <mxCell id="7tuzXcdUXrdJQI32HFEA-19" value="" style="shape=loopLimit;whiteSpace=wrap;html=1;rotation=-180;direction=east;" parent="7tuzXcdUXrdJQI32HFEA-18" vertex="1">
          <mxGeometry width="120" height="20" as="geometry" />
        </mxCell>
        <mxCell id="7tuzXcdUXrdJQI32HFEA-20" value="Цикл 1" style="text;html=1;align=center;verticalAlign=middle;whiteSpace=wrap;rounded=0;direction=west;" parent="7tuzXcdUXrdJQI32HFEA-18" vertex="1">
          <mxGeometry x="30" y="2.5" width="60" height="15" as="geometry" />
        </mxCell>
        <mxCell id="7tuzXcdUXrdJQI32HFEA-21" value="" style="group" parent="7tuzXcdUXrdJQI32HFEA-1" vertex="1" connectable="0">
          <mxGeometry x="-558" y="350" width="310" height="20" as="geometry" />
        </mxCell>
        <mxCell id="7tuzXcdUXrdJQI32HFEA-22" value="" style="shape=loopLimit;whiteSpace=wrap;html=1;rotation=-180;direction=east;" parent="7tuzXcdUXrdJQI32HFEA-21" vertex="1">
          <mxGeometry width="310" height="20" as="geometry" />
        </mxCell>
        <mxCell id="7tuzXcdUXrdJQI32HFEA-23" value="Цикл 2" style="text;html=1;align=center;verticalAlign=middle;whiteSpace=wrap;rounded=0;direction=west;" parent="7tuzXcdUXrdJQI32HFEA-21" vertex="1">
          <mxGeometry x="77.5" y="2.5" width="155" height="15" as="geometry" />
        </mxCell>
        <mxCell id="7tuzXcdUXrdJQI32HFEA-24" style="edgeStyle=orthogonalEdgeStyle;rounded=0;orthogonalLoop=1;jettySize=auto;html=1;entryX=0.5;entryY=0;entryDx=0;entryDy=0;" parent="7tuzXcdUXrdJQI32HFEA-1" source="7tuzXcdUXrdJQI32HFEA-26" target="7tuzXcdUXrdJQI32HFEA-28" edge="1">
          <mxGeometry relative="1" as="geometry" />
        </mxCell>
        <mxCell id="7tuzXcdUXrdJQI32HFEA-25" style="edgeStyle=orthogonalEdgeStyle;rounded=0;orthogonalLoop=1;jettySize=auto;html=1;entryX=0.5;entryY=0;entryDx=0;entryDy=0;" parent="7tuzXcdUXrdJQI32HFEA-1" source="7tuzXcdUXrdJQI32HFEA-26" target="7tuzXcdUXrdJQI32HFEA-33" edge="1">
          <mxGeometry relative="1" as="geometry" />
        </mxCell>
        <mxCell id="7tuzXcdUXrdJQI32HFEA-26" value="Неверный&lt;br&gt;номер" style="rhombus;whiteSpace=wrap;html=1;" parent="7tuzXcdUXrdJQI32HFEA-1" vertex="1">
          <mxGeometry x="-493" y="390" width="180" height="40" as="geometry" />
        </mxCell>
        <mxCell id="7tuzXcdUXrdJQI32HFEA-27" style="edgeStyle=orthogonalEdgeStyle;rounded=0;orthogonalLoop=1;jettySize=auto;html=1;endArrow=none;endFill=0;" parent="7tuzXcdUXrdJQI32HFEA-1" source="7tuzXcdUXrdJQI32HFEA-28" edge="1">
          <mxGeometry relative="1" as="geometry">
            <mxPoint x="-662" y="450" as="targetPoint" />
            <Array as="points">
              <mxPoint x="-662" y="450" />
            </Array>
          </mxGeometry>
        </mxCell>
        <mxCell id="7tuzXcdUXrdJQI32HFEA-28" value="Ошибка&lt;br&gt;&lt;span style=&quot;font-size: 10px;&quot;&gt;Неверный номерной&lt;br&gt;знак!&lt;/span&gt;" style="shape=parallelogram;perimeter=parallelogramPerimeter;whiteSpace=wrap;html=1;fixedSize=1;" parent="7tuzXcdUXrdJQI32HFEA-1" vertex="1">
          <mxGeometry x="-648" y="430" width="140" height="40" as="geometry" />
        </mxCell>
        <mxCell id="7tuzXcdUXrdJQI32HFEA-29" value="Да" style="text;html=1;align=center;verticalAlign=middle;whiteSpace=wrap;rounded=0;" parent="7tuzXcdUXrdJQI32HFEA-1" vertex="1">
          <mxGeometry x="-513" y="390" width="30" height="20" as="geometry" />
        </mxCell>
        <mxCell id="7tuzXcdUXrdJQI32HFEA-30" style="edgeStyle=orthogonalEdgeStyle;rounded=0;orthogonalLoop=1;jettySize=auto;html=1;entryX=0.5;entryY=0;entryDx=0;entryDy=0;" parent="7tuzXcdUXrdJQI32HFEA-1" source="7tuzXcdUXrdJQI32HFEA-22" target="7tuzXcdUXrdJQI32HFEA-26" edge="1">
          <mxGeometry relative="1" as="geometry" />
        </mxCell>
        <mxCell id="7tuzXcdUXrdJQI32HFEA-31" value="Нет" style="text;html=1;align=center;verticalAlign=middle;whiteSpace=wrap;rounded=0;" parent="7tuzXcdUXrdJQI32HFEA-1" vertex="1">
          <mxGeometry x="-438" y="430" width="20" height="20" as="geometry" />
        </mxCell>
        <mxCell id="XaZgcLjFqqzCOr37Tj6B-1" style="edgeStyle=orthogonalEdgeStyle;rounded=0;orthogonalLoop=1;jettySize=auto;html=1;entryX=0.5;entryY=1;entryDx=0;entryDy=0;" parent="7tuzXcdUXrdJQI32HFEA-1" source="7tuzXcdUXrdJQI32HFEA-33" target="7tuzXcdUXrdJQI32HFEA-35" edge="1">
          <mxGeometry relative="1" as="geometry" />
        </mxCell>
        <mxCell id="7tuzXcdUXrdJQI32HFEA-33" value="Цикл 3&lt;br&gt;&lt;font style=&quot;font-size: 10px;&quot;&gt;!int.TryParse(busYearOfManufacture, out int year)&lt;/font&gt;" style="shape=loopLimit;whiteSpace=wrap;html=1;" parent="7tuzXcdUXrdJQI32HFEA-1" vertex="1">
          <mxGeometry x="-490.5" y="450" width="175" height="50" as="geometry" />
        </mxCell>
        <mxCell id="7tuzXcdUXrdJQI32HFEA-34" value="" style="group" parent="7tuzXcdUXrdJQI32HFEA-1" vertex="1" connectable="0">
          <mxGeometry x="-489.25" y="520" width="172.5" height="20" as="geometry" />
        </mxCell>
        <mxCell id="7tuzXcdUXrdJQI32HFEA-35" value="" style="shape=loopLimit;whiteSpace=wrap;html=1;rotation=-180;direction=east;" parent="7tuzXcdUXrdJQI32HFEA-34" vertex="1">
          <mxGeometry width="172.5" height="20" as="geometry" />
        </mxCell>
        <mxCell id="7tuzXcdUXrdJQI32HFEA-36" value="Цикл 3" style="text;html=1;align=center;verticalAlign=middle;whiteSpace=wrap;rounded=0;direction=west;" parent="7tuzXcdUXrdJQI32HFEA-34" vertex="1">
          <mxGeometry x="43.125" y="2.5" width="86.25" height="15" as="geometry" />
        </mxCell>
        <mxCell id="7tuzXcdUXrdJQI32HFEA-37" style="edgeStyle=orthogonalEdgeStyle;rounded=0;orthogonalLoop=1;jettySize=auto;html=1;entryX=0.5;entryY=0;entryDx=0;entryDy=0;" parent="7tuzXcdUXrdJQI32HFEA-1" source="7tuzXcdUXrdJQI32HFEA-39" target="7tuzXcdUXrdJQI32HFEA-42" edge="1">
          <mxGeometry relative="1" as="geometry" />
        </mxCell>
        <mxCell id="7tuzXcdUXrdJQI32HFEA-38" style="edgeStyle=orthogonalEdgeStyle;rounded=0;orthogonalLoop=1;jettySize=auto;html=1;entryX=0.5;entryY=0;entryDx=0;entryDy=0;" parent="7tuzXcdUXrdJQI32HFEA-1" source="7tuzXcdUXrdJQI32HFEA-39" target="7tuzXcdUXrdJQI32HFEA-45" edge="1">
          <mxGeometry relative="1" as="geometry" />
        </mxCell>
        <mxCell id="7tuzXcdUXrdJQI32HFEA-39" value="В поле&lt;br&gt;число" style="rhombus;whiteSpace=wrap;html=1;" parent="7tuzXcdUXrdJQI32HFEA-1" vertex="1">
          <mxGeometry x="-23" y="124" width="120" height="40" as="geometry" />
        </mxCell>
        <mxCell id="7tuzXcdUXrdJQI32HFEA-41" style="edgeStyle=orthogonalEdgeStyle;rounded=0;orthogonalLoop=1;jettySize=auto;html=1;endArrow=classic;endFill=1;entryX=0.5;entryY=0;entryDx=0;entryDy=0;" parent="7tuzXcdUXrdJQI32HFEA-1" source="7tuzXcdUXrdJQI32HFEA-42" target="I5gxuKiB4czhWme-lOhZ-14" edge="1">
          <mxGeometry relative="1" as="geometry">
            <mxPoint x="-248" y="184" as="targetPoint" />
            <Array as="points">
              <mxPoint x="-235" y="184" />
            </Array>
          </mxGeometry>
        </mxCell>
        <mxCell id="7tuzXcdUXrdJQI32HFEA-42" value="Ошибка&lt;br&gt;&lt;span style=&quot;font-size: 10px;&quot;&gt;&quot;В поле «Год производства» должно быть число!&lt;/span&gt;" style="shape=parallelogram;perimeter=parallelogramPerimeter;whiteSpace=wrap;html=1;fixedSize=1;" parent="7tuzXcdUXrdJQI32HFEA-1" vertex="1">
          <mxGeometry x="-218" y="164" width="160" height="40" as="geometry" />
        </mxCell>
        <mxCell id="7tuzXcdUXrdJQI32HFEA-43" value="Нет" style="text;html=1;align=center;verticalAlign=middle;whiteSpace=wrap;rounded=0;" parent="7tuzXcdUXrdJQI32HFEA-1" vertex="1">
          <mxGeometry x="-68" y="124" width="30" height="20" as="geometry" />
        </mxCell>
        <mxCell id="7tuzXcdUXrdJQI32HFEA-44" style="edgeStyle=orthogonalEdgeStyle;rounded=0;orthogonalLoop=1;jettySize=auto;html=1;entryX=0.5;entryY=1;entryDx=0;entryDy=0;" parent="7tuzXcdUXrdJQI32HFEA-1" source="7tuzXcdUXrdJQI32HFEA-45" target="7tuzXcdUXrdJQI32HFEA-48" edge="1">
          <mxGeometry relative="1" as="geometry" />
        </mxCell>
        <mxCell id="7tuzXcdUXrdJQI32HFEA-45" value="Цикл 4&lt;br&gt;&lt;font style=&quot;font-size: 10px;&quot;&gt;!int.TryParse(busCapacity, out int capacity)&lt;/font&gt;" style="shape=loopLimit;whiteSpace=wrap;html=1;" parent="7tuzXcdUXrdJQI32HFEA-1" vertex="1">
          <mxGeometry x="-65.5" y="204" width="205" height="30" as="geometry" />
        </mxCell>
        <mxCell id="7tuzXcdUXrdJQI32HFEA-46" value="Да" style="text;html=1;align=center;verticalAlign=middle;whiteSpace=wrap;rounded=0;" parent="7tuzXcdUXrdJQI32HFEA-1" vertex="1">
          <mxGeometry x="2" y="164" width="20" height="20" as="geometry" />
        </mxCell>
        <mxCell id="7tuzXcdUXrdJQI32HFEA-47" value="" style="group" parent="7tuzXcdUXrdJQI32HFEA-1" vertex="1" connectable="0">
          <mxGeometry x="-65.5" y="254" width="205" height="20" as="geometry" />
        </mxCell>
        <mxCell id="7tuzXcdUXrdJQI32HFEA-48" value="" style="shape=loopLimit;whiteSpace=wrap;html=1;rotation=-180;direction=east;" parent="7tuzXcdUXrdJQI32HFEA-47" vertex="1">
          <mxGeometry width="205" height="20" as="geometry" />
        </mxCell>
        <mxCell id="7tuzXcdUXrdJQI32HFEA-49" value="Цикл 4" style="text;html=1;align=center;verticalAlign=middle;whiteSpace=wrap;rounded=0;direction=west;" parent="7tuzXcdUXrdJQI32HFEA-47" vertex="1">
          <mxGeometry x="51.25" y="2.5" width="102.5" height="15" as="geometry" />
        </mxCell>
        <mxCell id="7tuzXcdUXrdJQI32HFEA-50" style="edgeStyle=orthogonalEdgeStyle;rounded=0;orthogonalLoop=1;jettySize=auto;html=1;entryX=0.5;entryY=0;entryDx=0;entryDy=0;" parent="7tuzXcdUXrdJQI32HFEA-1" source="7tuzXcdUXrdJQI32HFEA-52" target="7tuzXcdUXrdJQI32HFEA-55" edge="1">
          <mxGeometry relative="1" as="geometry" />
        </mxCell>
        <mxCell id="7tuzXcdUXrdJQI32HFEA-51" style="edgeStyle=orthogonalEdgeStyle;rounded=0;orthogonalLoop=1;jettySize=auto;html=1;entryX=0.5;entryY=0;entryDx=0;entryDy=0;" parent="7tuzXcdUXrdJQI32HFEA-1" source="7tuzXcdUXrdJQI32HFEA-52" target="7tuzXcdUXrdJQI32HFEA-58" edge="1">
          <mxGeometry relative="1" as="geometry" />
        </mxCell>
        <mxCell id="7tuzXcdUXrdJQI32HFEA-52" value="В поле&lt;br&gt;число" style="rhombus;whiteSpace=wrap;html=1;" parent="7tuzXcdUXrdJQI32HFEA-1" vertex="1">
          <mxGeometry x="-23" y="294" width="120" height="40" as="geometry" />
        </mxCell>
        <mxCell id="7tuzXcdUXrdJQI32HFEA-53" style="edgeStyle=orthogonalEdgeStyle;rounded=0;orthogonalLoop=1;jettySize=auto;html=1;entryX=0.5;entryY=0;entryDx=0;entryDy=0;" parent="7tuzXcdUXrdJQI32HFEA-1" source="7tuzXcdUXrdJQI32HFEA-48" target="7tuzXcdUXrdJQI32HFEA-52" edge="1">
          <mxGeometry relative="1" as="geometry" />
        </mxCell>
        <mxCell id="7tuzXcdUXrdJQI32HFEA-54" style="edgeStyle=orthogonalEdgeStyle;rounded=0;orthogonalLoop=1;jettySize=auto;html=1;endArrow=none;endFill=0;" parent="7tuzXcdUXrdJQI32HFEA-1" source="7tuzXcdUXrdJQI32HFEA-55" edge="1">
          <mxGeometry relative="1" as="geometry">
            <mxPoint x="-235" y="354" as="targetPoint" />
            <Array as="points">
              <mxPoint x="-235" y="354" />
              <mxPoint x="-235" y="355" />
              <mxPoint x="-236" y="355" />
            </Array>
          </mxGeometry>
        </mxCell>
        <mxCell id="7tuzXcdUXrdJQI32HFEA-55" value="Ошибка&lt;br&gt;&lt;span style=&quot;font-size: 10px;&quot;&gt;В поле «Вместимость» &lt;br&gt;должно быть число!&lt;/span&gt;" style="shape=parallelogram;perimeter=parallelogramPerimeter;whiteSpace=wrap;html=1;fixedSize=1;" parent="7tuzXcdUXrdJQI32HFEA-1" vertex="1">
          <mxGeometry x="-218" y="334" width="160" height="40" as="geometry" />
        </mxCell>
        <mxCell id="7tuzXcdUXrdJQI32HFEA-56" value="Нет" style="text;html=1;align=center;verticalAlign=middle;whiteSpace=wrap;rounded=0;" parent="7tuzXcdUXrdJQI32HFEA-1" vertex="1">
          <mxGeometry x="-68" y="294" width="30" height="20" as="geometry" />
        </mxCell>
        <mxCell id="XaZgcLjFqqzCOr37Tj6B-3" style="edgeStyle=orthogonalEdgeStyle;rounded=0;orthogonalLoop=1;jettySize=auto;html=1;entryX=0.5;entryY=0;entryDx=0;entryDy=0;" parent="7tuzXcdUXrdJQI32HFEA-1" source="7tuzXcdUXrdJQI32HFEA-58" target="7tuzXcdUXrdJQI32HFEA-71" edge="1">
          <mxGeometry relative="1" as="geometry" />
        </mxCell>
        <mxCell id="7tuzXcdUXrdJQI32HFEA-58" value="Цикл 5&lt;br&gt;&lt;font style=&quot;font-size: 10px;&quot;&gt;year &amp;lt; 1990&lt;/font&gt;" style="shape=loopLimit;whiteSpace=wrap;html=1;" parent="7tuzXcdUXrdJQI32HFEA-1" vertex="1">
          <mxGeometry x="-10.5" y="364" width="95" height="30" as="geometry" />
        </mxCell>
        <mxCell id="7tuzXcdUXrdJQI32HFEA-59" value="Да" style="text;html=1;align=center;verticalAlign=middle;whiteSpace=wrap;rounded=0;" parent="7tuzXcdUXrdJQI32HFEA-1" vertex="1">
          <mxGeometry x="2" y="334" width="20" height="20" as="geometry" />
        </mxCell>
        <mxCell id="7tuzXcdUXrdJQI32HFEA-60" value="" style="group" parent="7tuzXcdUXrdJQI32HFEA-1" vertex="1" connectable="0">
          <mxGeometry x="-8" y="504" width="90" height="20" as="geometry" />
        </mxCell>
        <mxCell id="7tuzXcdUXrdJQI32HFEA-61" value="" style="shape=loopLimit;whiteSpace=wrap;html=1;rotation=-180;direction=east;" parent="7tuzXcdUXrdJQI32HFEA-60" vertex="1">
          <mxGeometry width="90.00000000000001" height="20" as="geometry" />
        </mxCell>
        <mxCell id="7tuzXcdUXrdJQI32HFEA-62" value="Цикл 5" style="text;html=1;align=center;verticalAlign=middle;whiteSpace=wrap;rounded=0;direction=west;" parent="7tuzXcdUXrdJQI32HFEA-60" vertex="1">
          <mxGeometry x="22.500000000000004" y="2.5" width="45.00000000000001" height="15" as="geometry" />
        </mxCell>
        <mxCell id="XaZgcLjFqqzCOr37Tj6B-16" style="edgeStyle=orthogonalEdgeStyle;rounded=0;orthogonalLoop=1;jettySize=auto;html=1;entryX=0.5;entryY=0;entryDx=0;entryDy=0;" parent="7tuzXcdUXrdJQI32HFEA-1" source="7tuzXcdUXrdJQI32HFEA-65" target="7tuzXcdUXrdJQI32HFEA-68" edge="1">
          <mxGeometry relative="1" as="geometry" />
        </mxCell>
        <mxCell id="XaZgcLjFqqzCOr37Tj6B-17" style="edgeStyle=orthogonalEdgeStyle;rounded=0;orthogonalLoop=1;jettySize=auto;html=1;entryX=0.5;entryY=0;entryDx=0;entryDy=0;" parent="7tuzXcdUXrdJQI32HFEA-1" source="7tuzXcdUXrdJQI32HFEA-65" target="7tuzXcdUXrdJQI32HFEA-84" edge="1">
          <mxGeometry relative="1" as="geometry" />
        </mxCell>
        <mxCell id="7tuzXcdUXrdJQI32HFEA-65" value="Автобус&lt;br&gt;подходит" style="rhombus;whiteSpace=wrap;html=1;" parent="7tuzXcdUXrdJQI32HFEA-1" vertex="1">
          <mxGeometry x="384" y="102" width="120" height="40" as="geometry" />
        </mxCell>
        <mxCell id="XaZgcLjFqqzCOr37Tj6B-19" style="edgeStyle=orthogonalEdgeStyle;rounded=0;orthogonalLoop=1;jettySize=auto;html=1;endArrow=none;endFill=0;" parent="7tuzXcdUXrdJQI32HFEA-1" source="7tuzXcdUXrdJQI32HFEA-68" edge="1">
          <mxGeometry relative="1" as="geometry">
            <mxPoint x="161" y="172" as="targetPoint" />
            <Array as="points">
              <mxPoint x="169" y="172" />
            </Array>
          </mxGeometry>
        </mxCell>
        <mxCell id="7tuzXcdUXrdJQI32HFEA-68" value="Ошибка&lt;br&gt;&lt;span style=&quot;font-size: 10px;&quot;&gt;Этот автобус слишком стар для эксплуатации, его можно добавить только на списание!&lt;/span&gt;" style="shape=parallelogram;perimeter=parallelogramPerimeter;whiteSpace=wrap;html=1;fixedSize=1;" parent="7tuzXcdUXrdJQI32HFEA-1" vertex="1">
          <mxGeometry x="179" y="142" width="190" height="60" as="geometry" />
        </mxCell>
        <mxCell id="7tuzXcdUXrdJQI32HFEA-69" value="Нет" style="text;html=1;align=center;verticalAlign=middle;whiteSpace=wrap;rounded=0;" parent="7tuzXcdUXrdJQI32HFEA-1" vertex="1">
          <mxGeometry x="341.5" y="102" width="30" height="20" as="geometry" />
        </mxCell>
        <mxCell id="XaZgcLjFqqzCOr37Tj6B-10" style="edgeStyle=orthogonalEdgeStyle;rounded=0;orthogonalLoop=1;jettySize=auto;html=1;entryX=0.5;entryY=1;entryDx=0;entryDy=0;" parent="7tuzXcdUXrdJQI32HFEA-1" source="7tuzXcdUXrdJQI32HFEA-71" target="XaZgcLjFqqzCOr37Tj6B-8" edge="1">
          <mxGeometry relative="1" as="geometry" />
        </mxCell>
        <mxCell id="7tuzXcdUXrdJQI32HFEA-71" value="Цикл 6&lt;br&gt;&lt;font style=&quot;font-size: 10px;&quot;&gt;busStatus == &quot;В эксплуатации&quot;&lt;/font&gt;" style="shape=loopLimit;whiteSpace=wrap;html=1;" parent="7tuzXcdUXrdJQI32HFEA-1" vertex="1">
          <mxGeometry x="-43" y="414" width="160" height="30" as="geometry" />
        </mxCell>
        <mxCell id="7tuzXcdUXrdJQI32HFEA-72" value="Да" style="text;html=1;align=center;verticalAlign=middle;whiteSpace=wrap;rounded=0;" parent="7tuzXcdUXrdJQI32HFEA-1" vertex="1">
          <mxGeometry x="459" y="142" width="20" height="20" as="geometry" />
        </mxCell>
        <mxCell id="7tuzXcdUXrdJQI32HFEA-83" style="edgeStyle=orthogonalEdgeStyle;rounded=0;orthogonalLoop=1;jettySize=auto;html=1;entryX=0.5;entryY=1;entryDx=0;entryDy=0;" parent="7tuzXcdUXrdJQI32HFEA-1" source="7tuzXcdUXrdJQI32HFEA-84" target="7tuzXcdUXrdJQI32HFEA-87" edge="1">
          <mxGeometry relative="1" as="geometry" />
        </mxCell>
        <mxCell id="7tuzXcdUXrdJQI32HFEA-84" value="Цикл 7&lt;br&gt;&lt;font style=&quot;font-size: 10px;&quot;&gt;capacity &amp;lt; 8 || capacity &amp;gt; 200&lt;/font&gt;" style="shape=loopLimit;whiteSpace=wrap;html=1;" parent="7tuzXcdUXrdJQI32HFEA-1" vertex="1">
          <mxGeometry x="371.5" y="172" width="145" height="30" as="geometry" />
        </mxCell>
        <mxCell id="7tuzXcdUXrdJQI32HFEA-86" value="" style="group" parent="7tuzXcdUXrdJQI32HFEA-1" vertex="1" connectable="0">
          <mxGeometry x="371.5" y="222" width="145" height="20" as="geometry" />
        </mxCell>
        <mxCell id="7tuzXcdUXrdJQI32HFEA-87" value="" style="shape=loopLimit;whiteSpace=wrap;html=1;rotation=-180;direction=east;" parent="7tuzXcdUXrdJQI32HFEA-86" vertex="1">
          <mxGeometry width="145" height="20" as="geometry" />
        </mxCell>
        <mxCell id="7tuzXcdUXrdJQI32HFEA-88" value="Цикл 7" style="text;html=1;align=center;verticalAlign=middle;whiteSpace=wrap;rounded=0;direction=west;" parent="7tuzXcdUXrdJQI32HFEA-86" vertex="1">
          <mxGeometry x="36.25" y="2.5" width="72.5" height="15" as="geometry" />
        </mxCell>
        <mxCell id="7tuzXcdUXrdJQI32HFEA-89" style="edgeStyle=orthogonalEdgeStyle;rounded=0;orthogonalLoop=1;jettySize=auto;html=1;entryX=0.5;entryY=0;entryDx=0;entryDy=0;" parent="7tuzXcdUXrdJQI32HFEA-1" source="7tuzXcdUXrdJQI32HFEA-91" edge="1">
          <mxGeometry relative="1" as="geometry">
            <mxPoint x="264" y="312" as="targetPoint" />
            <Array as="points">
              <mxPoint x="269" y="287" />
              <mxPoint x="269" y="312" />
            </Array>
          </mxGeometry>
        </mxCell>
        <mxCell id="XaZgcLjFqqzCOr37Tj6B-20" style="edgeStyle=orthogonalEdgeStyle;rounded=0;orthogonalLoop=1;jettySize=auto;html=1;entryX=0.5;entryY=0;entryDx=0;entryDy=0;" parent="7tuzXcdUXrdJQI32HFEA-1" source="7tuzXcdUXrdJQI32HFEA-91" target="7tuzXcdUXrdJQI32HFEA-123" edge="1">
          <mxGeometry relative="1" as="geometry" />
        </mxCell>
        <mxCell id="7tuzXcdUXrdJQI32HFEA-91" value="Вместимость&lt;br&gt;соответствует" style="rhombus;whiteSpace=wrap;html=1;" parent="7tuzXcdUXrdJQI32HFEA-1" vertex="1">
          <mxGeometry x="364" y="262" width="160" height="50" as="geometry" />
        </mxCell>
        <mxCell id="7tuzXcdUXrdJQI32HFEA-92" style="edgeStyle=orthogonalEdgeStyle;rounded=0;orthogonalLoop=1;jettySize=auto;html=1;entryX=0.5;entryY=0;entryDx=0;entryDy=0;" parent="7tuzXcdUXrdJQI32HFEA-1" source="7tuzXcdUXrdJQI32HFEA-87" edge="1">
          <mxGeometry relative="1" as="geometry">
            <mxPoint x="444" y="262" as="targetPoint" />
          </mxGeometry>
        </mxCell>
        <mxCell id="I5gxuKiB4czhWme-lOhZ-21" style="edgeStyle=orthogonalEdgeStyle;rounded=0;orthogonalLoop=1;jettySize=auto;html=1;endArrow=none;endFill=0;" parent="7tuzXcdUXrdJQI32HFEA-1" source="7tuzXcdUXrdJQI32HFEA-94" edge="1">
          <mxGeometry relative="1" as="geometry">
            <mxPoint x="161" y="342" as="targetPoint" />
            <Array as="points">
              <mxPoint x="161" y="342" />
              <mxPoint x="161" y="342" />
            </Array>
          </mxGeometry>
        </mxCell>
        <mxCell id="7tuzXcdUXrdJQI32HFEA-94" value="Ошибка&lt;br&gt;&lt;span style=&quot;font-size: 10px;&quot;&gt;Вместимость автобуса не может быть меньше 8 и больше 200 человек!&lt;/span&gt;" style="shape=parallelogram;perimeter=parallelogramPerimeter;whiteSpace=wrap;html=1;fixedSize=1;" parent="7tuzXcdUXrdJQI32HFEA-1" vertex="1">
          <mxGeometry x="179" y="312" width="170" height="60" as="geometry" />
        </mxCell>
        <mxCell id="7tuzXcdUXrdJQI32HFEA-95" value="Нет" style="text;html=1;align=center;verticalAlign=middle;whiteSpace=wrap;rounded=0;" parent="7tuzXcdUXrdJQI32HFEA-1" vertex="1">
          <mxGeometry x="341.5" y="262" width="20" height="20" as="geometry" />
        </mxCell>
        <mxCell id="7tuzXcdUXrdJQI32HFEA-122" style="edgeStyle=orthogonalEdgeStyle;rounded=0;orthogonalLoop=1;jettySize=auto;html=1;entryX=0.5;entryY=1;entryDx=0;entryDy=0;" parent="7tuzXcdUXrdJQI32HFEA-1" source="7tuzXcdUXrdJQI32HFEA-123" target="7tuzXcdUXrdJQI32HFEA-126" edge="1">
          <mxGeometry relative="1" as="geometry" />
        </mxCell>
        <mxCell id="7tuzXcdUXrdJQI32HFEA-123" value="Цикл 8&lt;br&gt;&lt;font style=&quot;font-size: 10px;&quot;&gt;Data.flight == null&lt;/font&gt;" style="shape=loopLimit;whiteSpace=wrap;html=1;" parent="7tuzXcdUXrdJQI32HFEA-1" vertex="1">
          <mxGeometry x="391.5" y="332" width="105" height="40" as="geometry" />
        </mxCell>
        <mxCell id="7tuzXcdUXrdJQI32HFEA-125" value="" style="group" parent="7tuzXcdUXrdJQI32HFEA-1" vertex="1" connectable="0">
          <mxGeometry x="391.5" y="392" width="105" height="40" as="geometry" />
        </mxCell>
        <mxCell id="7tuzXcdUXrdJQI32HFEA-126" value="" style="shape=loopLimit;whiteSpace=wrap;html=1;rotation=-180;" parent="7tuzXcdUXrdJQI32HFEA-125" vertex="1">
          <mxGeometry width="105" height="30" as="geometry" />
        </mxCell>
        <mxCell id="7tuzXcdUXrdJQI32HFEA-127" value="Цикл 8" style="text;html=1;align=center;verticalAlign=middle;whiteSpace=wrap;rounded=0;" parent="7tuzXcdUXrdJQI32HFEA-125" vertex="1">
          <mxGeometry x="22.5" width="60" height="30" as="geometry" />
        </mxCell>
        <mxCell id="7tuzXcdUXrdJQI32HFEA-128" style="edgeStyle=orthogonalEdgeStyle;rounded=0;orthogonalLoop=1;jettySize=auto;html=1;entryX=0.5;entryY=0;entryDx=0;entryDy=0;" parent="7tuzXcdUXrdJQI32HFEA-1" source="7tuzXcdUXrdJQI32HFEA-130" target="7tuzXcdUXrdJQI32HFEA-132" edge="1">
          <mxGeometry relative="1" as="geometry" />
        </mxCell>
        <mxCell id="7tuzXcdUXrdJQI32HFEA-129" style="edgeStyle=orthogonalEdgeStyle;rounded=0;orthogonalLoop=1;jettySize=auto;html=1;entryX=0.5;entryY=0;entryDx=0;entryDy=0;" parent="7tuzXcdUXrdJQI32HFEA-1" source="7tuzXcdUXrdJQI32HFEA-130" target="7tuzXcdUXrdJQI32HFEA-138" edge="1">
          <mxGeometry relative="1" as="geometry" />
        </mxCell>
        <mxCell id="7tuzXcdUXrdJQI32HFEA-130" value="Значение новое" style="rhombus;whiteSpace=wrap;html=1;" parent="7tuzXcdUXrdJQI32HFEA-1" vertex="1">
          <mxGeometry x="384" y="442" width="120" height="40" as="geometry" />
        </mxCell>
        <mxCell id="7tuzXcdUXrdJQI32HFEA-131" style="edgeStyle=orthogonalEdgeStyle;rounded=0;orthogonalLoop=1;jettySize=auto;html=1;entryX=1;entryY=0.5;entryDx=0;entryDy=0;" parent="7tuzXcdUXrdJQI32HFEA-1" source="7tuzXcdUXrdJQI32HFEA-132" target="7tuzXcdUXrdJQI32HFEA-135" edge="1">
          <mxGeometry relative="1" as="geometry">
            <Array as="points">
              <mxPoint x="584" y="562" />
            </Array>
          </mxGeometry>
        </mxCell>
        <mxCell id="7tuzXcdUXrdJQI32HFEA-132" value="Внести&lt;br&gt;изменения" style="shape=parallelogram;perimeter=parallelogramPerimeter;whiteSpace=wrap;html=1;fixedSize=1;" parent="7tuzXcdUXrdJQI32HFEA-1" vertex="1">
          <mxGeometry x="534" y="482" width="100" height="40" as="geometry" />
        </mxCell>
        <mxCell id="7tuzXcdUXrdJQI32HFEA-133" value="Нет" style="text;html=1;align=center;verticalAlign=middle;whiteSpace=wrap;rounded=0;" parent="7tuzXcdUXrdJQI32HFEA-1" vertex="1">
          <mxGeometry x="514" y="442" width="30" height="20" as="geometry" />
        </mxCell>
        <mxCell id="7tuzXcdUXrdJQI32HFEA-134" style="edgeStyle=orthogonalEdgeStyle;rounded=0;orthogonalLoop=1;jettySize=auto;html=1;entryX=0.5;entryY=0;entryDx=0;entryDy=0;" parent="7tuzXcdUXrdJQI32HFEA-1" source="7tuzXcdUXrdJQI32HFEA-126" target="7tuzXcdUXrdJQI32HFEA-130" edge="1">
          <mxGeometry relative="1" as="geometry" />
        </mxCell>
        <mxCell id="7tuzXcdUXrdJQI32HFEA-135" value="Конец" style="ellipse;whiteSpace=wrap;html=1;" parent="7tuzXcdUXrdJQI32HFEA-1" vertex="1">
          <mxGeometry x="384" y="542" width="120" height="40" as="geometry" />
        </mxCell>
        <mxCell id="7tuzXcdUXrdJQI32HFEA-136" value="Да" style="text;html=1;align=center;verticalAlign=middle;whiteSpace=wrap;rounded=0;" parent="7tuzXcdUXrdJQI32HFEA-1" vertex="1">
          <mxGeometry x="354" y="442" width="20" height="20" as="geometry" />
        </mxCell>
        <mxCell id="7tuzXcdUXrdJQI32HFEA-137" style="edgeStyle=orthogonalEdgeStyle;rounded=0;orthogonalLoop=1;jettySize=auto;html=1;entryX=0;entryY=0.5;entryDx=0;entryDy=0;" parent="7tuzXcdUXrdJQI32HFEA-1" source="7tuzXcdUXrdJQI32HFEA-138" target="7tuzXcdUXrdJQI32HFEA-135" edge="1">
          <mxGeometry relative="1" as="geometry">
            <Array as="points">
              <mxPoint x="304" y="562" />
            </Array>
          </mxGeometry>
        </mxCell>
        <mxCell id="7tuzXcdUXrdJQI32HFEA-138" value="Сохранить&lt;br&gt;новую строку" style="shape=parallelogram;perimeter=parallelogramPerimeter;whiteSpace=wrap;html=1;fixedSize=1;" parent="7tuzXcdUXrdJQI32HFEA-1" vertex="1">
          <mxGeometry x="254" y="482" width="110" height="40" as="geometry" />
        </mxCell>
        <mxCell id="XaZgcLjFqqzCOr37Tj6B-7" value="" style="group" parent="7tuzXcdUXrdJQI32HFEA-1" vertex="1" connectable="0">
          <mxGeometry x="-43" y="464" width="160" height="20" as="geometry" />
        </mxCell>
        <mxCell id="XaZgcLjFqqzCOr37Tj6B-8" value="" style="shape=loopLimit;whiteSpace=wrap;html=1;rotation=-180;direction=east;" parent="XaZgcLjFqqzCOr37Tj6B-7" vertex="1">
          <mxGeometry width="160.00000000000003" height="20" as="geometry" />
        </mxCell>
        <mxCell id="XaZgcLjFqqzCOr37Tj6B-9" value="Цикл 6" style="text;html=1;align=center;verticalAlign=middle;whiteSpace=wrap;rounded=0;direction=west;" parent="XaZgcLjFqqzCOr37Tj6B-7" vertex="1">
          <mxGeometry x="40.00000000000001" y="2.5" width="80.00000000000001" height="15" as="geometry" />
        </mxCell>
        <mxCell id="XaZgcLjFqqzCOr37Tj6B-14" style="edgeStyle=orthogonalEdgeStyle;rounded=0;orthogonalLoop=1;jettySize=auto;html=1;entryX=0.5;entryY=1;entryDx=0;entryDy=0;" parent="7tuzXcdUXrdJQI32HFEA-1" source="XaZgcLjFqqzCOr37Tj6B-8" target="7tuzXcdUXrdJQI32HFEA-61" edge="1">
          <mxGeometry relative="1" as="geometry" />
        </mxCell>
        <mxCell id="XaZgcLjFqqzCOr37Tj6B-21" value="Да" style="text;html=1;align=center;verticalAlign=middle;whiteSpace=wrap;rounded=0;" parent="7tuzXcdUXrdJQI32HFEA-1" vertex="1">
          <mxGeometry x="459" y="312" width="20" height="20" as="geometry" />
        </mxCell>
        <mxCell id="I5gxuKiB4czhWme-lOhZ-0" value="1" style="ellipse;whiteSpace=wrap;html=1;aspect=fixed;" parent="7tuzXcdUXrdJQI32HFEA-1" vertex="1">
          <mxGeometry x="-413" y="562" width="20" height="20" as="geometry" />
        </mxCell>
        <mxCell id="I5gxuKiB4czhWme-lOhZ-5" style="edgeStyle=orthogonalEdgeStyle;rounded=0;orthogonalLoop=1;jettySize=auto;html=1;entryX=0.5;entryY=0;entryDx=0;entryDy=0;" parent="7tuzXcdUXrdJQI32HFEA-1" source="7tuzXcdUXrdJQI32HFEA-35" target="I5gxuKiB4czhWme-lOhZ-0" edge="1">
          <mxGeometry relative="1" as="geometry" />
        </mxCell>
        <mxCell id="I5gxuKiB4czhWme-lOhZ-8" value="1" style="whiteSpace=wrap;html=1;aspect=fixed;" parent="7tuzXcdUXrdJQI32HFEA-1" vertex="1">
          <mxGeometry x="-672" y="558" width="20" height="20" as="geometry" />
        </mxCell>
        <mxCell id="I5gxuKiB4czhWme-lOhZ-10" style="edgeStyle=orthogonalEdgeStyle;rounded=0;orthogonalLoop=1;jettySize=auto;html=1;entryX=0.5;entryY=0;entryDx=0;entryDy=0;" parent="7tuzXcdUXrdJQI32HFEA-1" source="I5gxuKiB4czhWme-lOhZ-9" target="7tuzXcdUXrdJQI32HFEA-39" edge="1">
          <mxGeometry relative="1" as="geometry" />
        </mxCell>
        <mxCell id="I5gxuKiB4czhWme-lOhZ-9" value="1" style="ellipse;whiteSpace=wrap;html=1;aspect=fixed;" parent="7tuzXcdUXrdJQI32HFEA-1" vertex="1">
          <mxGeometry x="27" y="84" width="20" height="20" as="geometry" />
        </mxCell>
        <mxCell id="I5gxuKiB4czhWme-lOhZ-11" value="2" style="ellipse;whiteSpace=wrap;html=1;aspect=fixed;" parent="7tuzXcdUXrdJQI32HFEA-1" vertex="1">
          <mxGeometry x="27" y="544" width="20" height="20" as="geometry" />
        </mxCell>
        <mxCell id="I5gxuKiB4czhWme-lOhZ-13" style="edgeStyle=orthogonalEdgeStyle;rounded=0;orthogonalLoop=1;jettySize=auto;html=1;entryX=0.5;entryY=0;entryDx=0;entryDy=0;" parent="7tuzXcdUXrdJQI32HFEA-1" source="7tuzXcdUXrdJQI32HFEA-61" target="I5gxuKiB4czhWme-lOhZ-11" edge="1">
          <mxGeometry relative="1" as="geometry" />
        </mxCell>
        <mxCell id="I5gxuKiB4czhWme-lOhZ-14" value="2" style="whiteSpace=wrap;html=1;aspect=fixed;" parent="7tuzXcdUXrdJQI32HFEA-1" vertex="1">
          <mxGeometry x="-245" y="540" width="20" height="20" as="geometry" />
        </mxCell>
        <mxCell id="I5gxuKiB4czhWme-lOhZ-16" style="edgeStyle=orthogonalEdgeStyle;rounded=0;orthogonalLoop=1;jettySize=auto;html=1;endArrow=none;endFill=0;" parent="7tuzXcdUXrdJQI32HFEA-1" source="I5gxuKiB4czhWme-lOhZ-15" edge="1">
          <mxGeometry relative="1" as="geometry">
            <mxPoint x="-235" y="184" as="targetPoint" />
          </mxGeometry>
        </mxCell>
        <mxCell id="I5gxuKiB4czhWme-lOhZ-15" value="1" style="whiteSpace=wrap;html=1;aspect=fixed;" parent="7tuzXcdUXrdJQI32HFEA-1" vertex="1">
          <mxGeometry x="-245" y="84" width="20" height="20" as="geometry" />
        </mxCell>
        <mxCell id="I5gxuKiB4czhWme-lOhZ-23" style="edgeStyle=orthogonalEdgeStyle;rounded=0;orthogonalLoop=1;jettySize=auto;html=1;endArrow=none;endFill=0;" parent="7tuzXcdUXrdJQI32HFEA-1" source="I5gxuKiB4czhWme-lOhZ-17" edge="1">
          <mxGeometry relative="1" as="geometry">
            <mxPoint x="161" y="562" as="targetPoint" />
          </mxGeometry>
        </mxCell>
        <mxCell id="I5gxuKiB4czhWme-lOhZ-17" value="2" style="whiteSpace=wrap;html=1;aspect=fixed;" parent="7tuzXcdUXrdJQI32HFEA-1" vertex="1">
          <mxGeometry x="151" y="62" width="20" height="20" as="geometry" />
        </mxCell>
        <mxCell id="I5gxuKiB4czhWme-lOhZ-19" style="edgeStyle=orthogonalEdgeStyle;rounded=0;orthogonalLoop=1;jettySize=auto;html=1;entryX=0.5;entryY=0;entryDx=0;entryDy=0;" parent="7tuzXcdUXrdJQI32HFEA-1" source="I5gxuKiB4czhWme-lOhZ-18" target="7tuzXcdUXrdJQI32HFEA-65" edge="1">
          <mxGeometry relative="1" as="geometry" />
        </mxCell>
        <mxCell id="I5gxuKiB4czhWme-lOhZ-18" value="2" style="ellipse;whiteSpace=wrap;html=1;aspect=fixed;" parent="7tuzXcdUXrdJQI32HFEA-1" vertex="1">
          <mxGeometry x="434" y="62" width="20" height="20" as="geometry" />
        </mxCell>
        <mxCell id="I5gxuKiB4czhWme-lOhZ-22" value="" style="endArrow=none;html=1;rounded=0;entryX=0;entryY=0.5;entryDx=0;entryDy=0;endFill=0;" parent="7tuzXcdUXrdJQI32HFEA-1" target="7tuzXcdUXrdJQI32HFEA-135" edge="1">
          <mxGeometry width="50" height="50" relative="1" as="geometry">
            <mxPoint x="161" y="562" as="sourcePoint" />
            <mxPoint x="311" y="562" as="targetPoint" />
          </mxGeometry>
        </mxCell>
      </root>
    </mxGraphModel>
  </diagram>
  <diagram name="Repair" id="ujV3idLmN84S39sUjn9l">
    <mxGraphModel dx="1995" dy="703" grid="0" gridSize="10" guides="1" tooltips="1" connect="1" arrows="1" fold="1" page="0" pageScale="1" pageWidth="827" pageHeight="1169" math="0" shadow="0">
      <root>
        <mxCell id="Xk36y5VOcnHEW3bhQWVh-0" />
        <mxCell id="Xk36y5VOcnHEW3bhQWVh-1" parent="Xk36y5VOcnHEW3bhQWVh-0" />
        <mxCell id="Xk36y5VOcnHEW3bhQWVh-2" style="edgeStyle=orthogonalEdgeStyle;rounded=0;orthogonalLoop=1;jettySize=auto;html=1;entryX=0.5;entryY=0;entryDx=0;entryDy=0;" parent="Xk36y5VOcnHEW3bhQWVh-1" source="Xk36y5VOcnHEW3bhQWVh-3" target="Xk36y5VOcnHEW3bhQWVh-5" edge="1">
          <mxGeometry relative="1" as="geometry" />
        </mxCell>
        <mxCell id="Xk36y5VOcnHEW3bhQWVh-3" value="Начало" style="ellipse;whiteSpace=wrap;html=1;" parent="Xk36y5VOcnHEW3bhQWVh-1" vertex="1">
          <mxGeometry x="-311" y="39.5" width="120" height="40" as="geometry" />
        </mxCell>
        <mxCell id="Xk36y5VOcnHEW3bhQWVh-4" style="edgeStyle=orthogonalEdgeStyle;rounded=0;orthogonalLoop=1;jettySize=auto;html=1;entryX=0.5;entryY=0;entryDx=0;entryDy=0;" parent="Xk36y5VOcnHEW3bhQWVh-1" source="Xk36y5VOcnHEW3bhQWVh-5" target="Xk36y5VOcnHEW3bhQWVh-7" edge="1">
          <mxGeometry relative="1" as="geometry" />
        </mxCell>
        <mxCell id="Xk36y5VOcnHEW3bhQWVh-5" value="Ввод значений" style="shape=parallelogram;perimeter=parallelogramPerimeter;whiteSpace=wrap;html=1;fixedSize=1;" parent="Xk36y5VOcnHEW3bhQWVh-1" vertex="1">
          <mxGeometry x="-311" y="99.5" width="120" height="20" as="geometry" />
        </mxCell>
        <mxCell id="Xk36y5VOcnHEW3bhQWVh-6" style="edgeStyle=orthogonalEdgeStyle;rounded=0;orthogonalLoop=1;jettySize=auto;html=1;entryX=0.5;entryY=1;entryDx=0;entryDy=0;" parent="Xk36y5VOcnHEW3bhQWVh-1" source="Xk36y5VOcnHEW3bhQWVh-7" target="Xk36y5VOcnHEW3bhQWVh-19" edge="1">
          <mxGeometry relative="1" as="geometry" />
        </mxCell>
        <mxCell id="Xk36y5VOcnHEW3bhQWVh-7" value="Цикл 1&lt;br&gt;&lt;font style=&quot;font-size: 10px;&quot;&gt;string.IsNullOrEmpty&lt;/font&gt;" style="shape=loopLimit;whiteSpace=wrap;html=1;" parent="Xk36y5VOcnHEW3bhQWVh-1" vertex="1">
          <mxGeometry x="-311" y="139.5" width="120" height="40" as="geometry" />
        </mxCell>
        <mxCell id="Xk36y5VOcnHEW3bhQWVh-8" style="edgeStyle=orthogonalEdgeStyle;rounded=0;orthogonalLoop=1;jettySize=auto;html=1;entryX=0.5;entryY=0;entryDx=0;entryDy=0;" parent="Xk36y5VOcnHEW3bhQWVh-1" source="Xk36y5VOcnHEW3bhQWVh-19" target="Xk36y5VOcnHEW3bhQWVh-11" edge="1">
          <mxGeometry relative="1" as="geometry" />
        </mxCell>
        <mxCell id="Xk36y5VOcnHEW3bhQWVh-9" style="edgeStyle=orthogonalEdgeStyle;rounded=0;orthogonalLoop=1;jettySize=auto;html=1;entryX=0.5;entryY=0;entryDx=0;entryDy=0;" parent="Xk36y5VOcnHEW3bhQWVh-1" source="Xk36y5VOcnHEW3bhQWVh-11" target="Xk36y5VOcnHEW3bhQWVh-13" edge="1">
          <mxGeometry relative="1" as="geometry" />
        </mxCell>
        <mxCell id="Xk36y5VOcnHEW3bhQWVh-10" style="edgeStyle=orthogonalEdgeStyle;rounded=0;orthogonalLoop=1;jettySize=auto;html=1;entryX=0.5;entryY=0;entryDx=0;entryDy=0;" parent="Xk36y5VOcnHEW3bhQWVh-1" source="Xk36y5VOcnHEW3bhQWVh-11" target="Xk36y5VOcnHEW3bhQWVh-16" edge="1">
          <mxGeometry relative="1" as="geometry" />
        </mxCell>
        <mxCell id="Xk36y5VOcnHEW3bhQWVh-11" value="Поле пустое" style="rhombus;whiteSpace=wrap;html=1;" parent="Xk36y5VOcnHEW3bhQWVh-1" vertex="1">
          <mxGeometry x="-311" y="239.5" width="120" height="40" as="geometry" />
        </mxCell>
        <mxCell id="I8pWfqS-vdKtvqW7SqA9-2" style="edgeStyle=orthogonalEdgeStyle;rounded=0;orthogonalLoop=1;jettySize=auto;html=1;entryX=0.5;entryY=0;entryDx=0;entryDy=0;" edge="1" parent="Xk36y5VOcnHEW3bhQWVh-1" source="Xk36y5VOcnHEW3bhQWVh-13" target="akDjCjLMder03HWNkA3b-0">
          <mxGeometry relative="1" as="geometry">
            <mxPoint x="-511" y="570.5" as="targetPoint" />
            <Array as="points">
              <mxPoint x="-511" y="299.5" />
            </Array>
          </mxGeometry>
        </mxCell>
        <mxCell id="Xk36y5VOcnHEW3bhQWVh-13" value="Ошибка&lt;br&gt;&lt;font style=&quot;font-size: 10px;&quot;&gt;Пожалуйста, заполни все поля!&lt;/font&gt;" style="shape=parallelogram;perimeter=parallelogramPerimeter;whiteSpace=wrap;html=1;fixedSize=1;" parent="Xk36y5VOcnHEW3bhQWVh-1" vertex="1">
          <mxGeometry x="-471" y="279.5" width="140" height="40" as="geometry" />
        </mxCell>
        <mxCell id="Xk36y5VOcnHEW3bhQWVh-14" value="Да" style="text;html=1;align=center;verticalAlign=middle;whiteSpace=wrap;rounded=0;" parent="Xk36y5VOcnHEW3bhQWVh-1" vertex="1">
          <mxGeometry x="-341" y="239.5" width="20" height="20" as="geometry" />
        </mxCell>
        <mxCell id="Xk36y5VOcnHEW3bhQWVh-15" style="edgeStyle=orthogonalEdgeStyle;rounded=0;orthogonalLoop=1;jettySize=auto;html=1;entryX=0.5;entryY=1;entryDx=0;entryDy=0;" parent="Xk36y5VOcnHEW3bhQWVh-1" source="Xk36y5VOcnHEW3bhQWVh-16" target="Xk36y5VOcnHEW3bhQWVh-22" edge="1">
          <mxGeometry relative="1" as="geometry" />
        </mxCell>
        <mxCell id="Xk36y5VOcnHEW3bhQWVh-16" value="Цикл 2&lt;br&gt;&lt;font style=&quot;font-size: 10px;&quot;&gt;bus == null&lt;/font&gt;" style="shape=loopLimit;whiteSpace=wrap;html=1;" parent="Xk36y5VOcnHEW3bhQWVh-1" vertex="1">
          <mxGeometry x="-311" y="299.5" width="120" height="40" as="geometry" />
        </mxCell>
        <mxCell id="Xk36y5VOcnHEW3bhQWVh-17" value="Нет" style="text;html=1;align=center;verticalAlign=middle;whiteSpace=wrap;rounded=0;" parent="Xk36y5VOcnHEW3bhQWVh-1" vertex="1">
          <mxGeometry x="-241" y="279.5" width="30" height="20" as="geometry" />
        </mxCell>
        <mxCell id="Xk36y5VOcnHEW3bhQWVh-18" value="" style="group" parent="Xk36y5VOcnHEW3bhQWVh-1" vertex="1" connectable="0">
          <mxGeometry x="-311" y="199.5" width="120" height="20" as="geometry" />
        </mxCell>
        <mxCell id="Xk36y5VOcnHEW3bhQWVh-19" value="" style="shape=loopLimit;whiteSpace=wrap;html=1;rotation=-180;direction=east;" parent="Xk36y5VOcnHEW3bhQWVh-18" vertex="1">
          <mxGeometry width="120" height="20" as="geometry" />
        </mxCell>
        <mxCell id="Xk36y5VOcnHEW3bhQWVh-20" value="Цикл 1" style="text;html=1;align=center;verticalAlign=middle;whiteSpace=wrap;rounded=0;direction=west;" parent="Xk36y5VOcnHEW3bhQWVh-18" vertex="1">
          <mxGeometry x="30" y="2.5" width="60" height="15" as="geometry" />
        </mxCell>
        <mxCell id="Xk36y5VOcnHEW3bhQWVh-21" value="" style="group" parent="Xk36y5VOcnHEW3bhQWVh-1" vertex="1" connectable="0">
          <mxGeometry x="-311" y="359.5" width="120" height="20" as="geometry" />
        </mxCell>
        <mxCell id="Xk36y5VOcnHEW3bhQWVh-22" value="" style="shape=loopLimit;whiteSpace=wrap;html=1;rotation=-180;direction=east;" parent="Xk36y5VOcnHEW3bhQWVh-21" vertex="1">
          <mxGeometry width="120" height="20" as="geometry" />
        </mxCell>
        <mxCell id="Xk36y5VOcnHEW3bhQWVh-23" value="Цикл 2" style="text;html=1;align=center;verticalAlign=middle;whiteSpace=wrap;rounded=0;direction=west;" parent="Xk36y5VOcnHEW3bhQWVh-21" vertex="1">
          <mxGeometry x="30" y="2.5" width="60" height="15" as="geometry" />
        </mxCell>
        <mxCell id="Xk36y5VOcnHEW3bhQWVh-24" style="edgeStyle=orthogonalEdgeStyle;rounded=0;orthogonalLoop=1;jettySize=auto;html=1;entryX=0.5;entryY=0;entryDx=0;entryDy=0;" parent="Xk36y5VOcnHEW3bhQWVh-1" source="Xk36y5VOcnHEW3bhQWVh-26" target="Xk36y5VOcnHEW3bhQWVh-28" edge="1">
          <mxGeometry relative="1" as="geometry" />
        </mxCell>
        <mxCell id="Xk36y5VOcnHEW3bhQWVh-25" style="edgeStyle=orthogonalEdgeStyle;rounded=0;orthogonalLoop=1;jettySize=auto;html=1;entryX=0.5;entryY=0;entryDx=0;entryDy=0;" parent="Xk36y5VOcnHEW3bhQWVh-1" source="Xk36y5VOcnHEW3bhQWVh-26" target="Xk36y5VOcnHEW3bhQWVh-33" edge="1">
          <mxGeometry relative="1" as="geometry" />
        </mxCell>
        <mxCell id="Xk36y5VOcnHEW3bhQWVh-26" value="ID существует" style="rhombus;whiteSpace=wrap;html=1;" parent="Xk36y5VOcnHEW3bhQWVh-1" vertex="1">
          <mxGeometry x="-311" y="399.5" width="120" height="40" as="geometry" />
        </mxCell>
        <mxCell id="Xk36y5VOcnHEW3bhQWVh-27" style="edgeStyle=orthogonalEdgeStyle;rounded=0;orthogonalLoop=1;jettySize=auto;html=1;endArrow=none;endFill=0;" parent="Xk36y5VOcnHEW3bhQWVh-1" source="Xk36y5VOcnHEW3bhQWVh-28" edge="1">
          <mxGeometry relative="1" as="geometry">
            <mxPoint x="-511" y="459.5" as="targetPoint" />
          </mxGeometry>
        </mxCell>
        <mxCell id="Xk36y5VOcnHEW3bhQWVh-28" value="Ошибка&lt;br&gt;&lt;font style=&quot;font-size: 10px;&quot;&gt;Автобуса с таким ID не существует!&lt;/font&gt;" style="shape=parallelogram;perimeter=parallelogramPerimeter;whiteSpace=wrap;html=1;fixedSize=1;" parent="Xk36y5VOcnHEW3bhQWVh-1" vertex="1">
          <mxGeometry x="-471" y="439.5" width="140" height="40" as="geometry" />
        </mxCell>
        <mxCell id="Xk36y5VOcnHEW3bhQWVh-29" value="Нет" style="text;html=1;align=center;verticalAlign=middle;whiteSpace=wrap;rounded=0;" parent="Xk36y5VOcnHEW3bhQWVh-1" vertex="1">
          <mxGeometry x="-346" y="399.5" width="30" height="20" as="geometry" />
        </mxCell>
        <mxCell id="Xk36y5VOcnHEW3bhQWVh-30" style="edgeStyle=orthogonalEdgeStyle;rounded=0;orthogonalLoop=1;jettySize=auto;html=1;entryX=0.5;entryY=0;entryDx=0;entryDy=0;" parent="Xk36y5VOcnHEW3bhQWVh-1" source="Xk36y5VOcnHEW3bhQWVh-22" target="Xk36y5VOcnHEW3bhQWVh-26" edge="1">
          <mxGeometry relative="1" as="geometry" />
        </mxCell>
        <mxCell id="Xk36y5VOcnHEW3bhQWVh-31" value="Да" style="text;html=1;align=center;verticalAlign=middle;whiteSpace=wrap;rounded=0;" parent="Xk36y5VOcnHEW3bhQWVh-1" vertex="1">
          <mxGeometry x="-236" y="439.5" width="20" height="20" as="geometry" />
        </mxCell>
        <mxCell id="ncsuLvz0gBi99lyDgexm-0" style="edgeStyle=orthogonalEdgeStyle;rounded=0;orthogonalLoop=1;jettySize=auto;html=1;entryX=0.5;entryY=0;entryDx=0;entryDy=0;" parent="Xk36y5VOcnHEW3bhQWVh-1" source="Xk36y5VOcnHEW3bhQWVh-33" target="Xk36y5VOcnHEW3bhQWVh-45" edge="1">
          <mxGeometry relative="1" as="geometry" />
        </mxCell>
        <mxCell id="Xk36y5VOcnHEW3bhQWVh-33" value="Цикл 3&lt;br&gt;&lt;font style=&quot;font-size: 10px;&quot;&gt;repairStatus == &quot;На ремонте&quot;&lt;/font&gt;" style="shape=loopLimit;whiteSpace=wrap;html=1;" parent="Xk36y5VOcnHEW3bhQWVh-1" vertex="1">
          <mxGeometry x="-311" y="459.5" width="120" height="50" as="geometry" />
        </mxCell>
        <mxCell id="Xk36y5VOcnHEW3bhQWVh-34" value="" style="group" parent="Xk36y5VOcnHEW3bhQWVh-1" vertex="1" connectable="0">
          <mxGeometry x="-135" y="501" width="120" height="20" as="geometry" />
        </mxCell>
        <mxCell id="Xk36y5VOcnHEW3bhQWVh-35" value="" style="shape=loopLimit;whiteSpace=wrap;html=1;rotation=-180;direction=east;" parent="Xk36y5VOcnHEW3bhQWVh-34" vertex="1">
          <mxGeometry width="120" height="20" as="geometry" />
        </mxCell>
        <mxCell id="Xk36y5VOcnHEW3bhQWVh-36" value="Цикл 3" style="text;html=1;align=center;verticalAlign=middle;whiteSpace=wrap;rounded=0;direction=west;" parent="Xk36y5VOcnHEW3bhQWVh-34" vertex="1">
          <mxGeometry x="30" y="2.5" width="60" height="15" as="geometry" />
        </mxCell>
        <mxCell id="Xk36y5VOcnHEW3bhQWVh-45" value="Цикл 4&lt;br&gt;&lt;font style=&quot;font-size: 10px;&quot;&gt;bus != null&lt;/font&gt;" style="shape=loopLimit;whiteSpace=wrap;html=1;" parent="Xk36y5VOcnHEW3bhQWVh-1" vertex="1">
          <mxGeometry x="-291" y="529.5" width="80" height="30" as="geometry" />
        </mxCell>
        <mxCell id="Xk36y5VOcnHEW3bhQWVh-47" value="" style="group" parent="Xk36y5VOcnHEW3bhQWVh-1" vertex="1" connectable="0">
          <mxGeometry x="-115" y="461" width="80" height="20" as="geometry" />
        </mxCell>
        <mxCell id="Xk36y5VOcnHEW3bhQWVh-48" value="" style="shape=loopLimit;whiteSpace=wrap;html=1;rotation=-180;direction=east;" parent="Xk36y5VOcnHEW3bhQWVh-47" vertex="1">
          <mxGeometry width="80" height="20" as="geometry" />
        </mxCell>
        <mxCell id="Xk36y5VOcnHEW3bhQWVh-49" value="Цикл 4" style="text;html=1;align=center;verticalAlign=middle;whiteSpace=wrap;rounded=0;direction=west;" parent="Xk36y5VOcnHEW3bhQWVh-47" vertex="1">
          <mxGeometry x="20" y="2.5" width="40" height="15" as="geometry" />
        </mxCell>
        <mxCell id="Xk36y5VOcnHEW3bhQWVh-50" style="edgeStyle=orthogonalEdgeStyle;rounded=0;orthogonalLoop=1;jettySize=auto;html=1;entryX=0.5;entryY=0;entryDx=0;entryDy=0;" parent="Xk36y5VOcnHEW3bhQWVh-1" source="Xk36y5VOcnHEW3bhQWVh-52" target="Xk36y5VOcnHEW3bhQWVh-55" edge="1">
          <mxGeometry relative="1" as="geometry" />
        </mxCell>
        <mxCell id="Xk36y5VOcnHEW3bhQWVh-52" value="Существует" style="rhombus;whiteSpace=wrap;html=1;" parent="Xk36y5VOcnHEW3bhQWVh-1" vertex="1">
          <mxGeometry x="-135" y="71" width="120" height="40" as="geometry" />
        </mxCell>
        <mxCell id="jJXGbHiPcYCDRw09RAjr-2" style="edgeStyle=orthogonalEdgeStyle;rounded=0;orthogonalLoop=1;jettySize=auto;html=1;entryX=0.5;entryY=0;entryDx=0;entryDy=0;" parent="Xk36y5VOcnHEW3bhQWVh-1" source="Xk36y5VOcnHEW3bhQWVh-55" target="Xk36y5VOcnHEW3bhQWVh-58" edge="1">
          <mxGeometry relative="1" as="geometry" />
        </mxCell>
        <mxCell id="Xk36y5VOcnHEW3bhQWVh-55" value="Установка статуса" style="shape=parallelogram;perimeter=parallelogramPerimeter;whiteSpace=wrap;html=1;fixedSize=1;" parent="Xk36y5VOcnHEW3bhQWVh-1" vertex="1">
          <mxGeometry x="-145" y="131" width="140" height="20" as="geometry" />
        </mxCell>
        <mxCell id="jJXGbHiPcYCDRw09RAjr-4" style="edgeStyle=orthogonalEdgeStyle;rounded=0;orthogonalLoop=1;jettySize=auto;html=1;entryX=0.5;entryY=0;entryDx=0;entryDy=0;" parent="Xk36y5VOcnHEW3bhQWVh-1" source="Xk36y5VOcnHEW3bhQWVh-58" target="jJXGbHiPcYCDRw09RAjr-3" edge="1">
          <mxGeometry relative="1" as="geometry" />
        </mxCell>
        <mxCell id="Xk36y5VOcnHEW3bhQWVh-58" value="Цикл 5&lt;br&gt;&lt;font style=&quot;font-size: 10px;&quot;&gt;Data.repair == null&lt;/font&gt;" style="shape=loopLimit;whiteSpace=wrap;html=1;" parent="Xk36y5VOcnHEW3bhQWVh-1" vertex="1">
          <mxGeometry x="-130" y="171" width="110" height="30" as="geometry" />
        </mxCell>
        <mxCell id="Xk36y5VOcnHEW3bhQWVh-60" value="" style="group" parent="Xk36y5VOcnHEW3bhQWVh-1" vertex="1" connectable="0">
          <mxGeometry x="-130" y="421" width="110" height="20" as="geometry" />
        </mxCell>
        <mxCell id="Xk36y5VOcnHEW3bhQWVh-61" value="" style="shape=loopLimit;whiteSpace=wrap;html=1;rotation=-180;direction=east;" parent="Xk36y5VOcnHEW3bhQWVh-60" vertex="1">
          <mxGeometry width="109.99999999999999" height="20" as="geometry" />
        </mxCell>
        <mxCell id="Xk36y5VOcnHEW3bhQWVh-62" value="Цикл 5" style="text;html=1;align=center;verticalAlign=middle;whiteSpace=wrap;rounded=0;direction=west;" parent="Xk36y5VOcnHEW3bhQWVh-60" vertex="1">
          <mxGeometry x="27.499999999999996" y="2.5" width="54.99999999999999" height="15" as="geometry" />
        </mxCell>
        <mxCell id="jJXGbHiPcYCDRw09RAjr-80" style="edgeStyle=orthogonalEdgeStyle;rounded=0;orthogonalLoop=1;jettySize=auto;html=1;entryX=0.5;entryY=1;entryDx=0;entryDy=0;" parent="Xk36y5VOcnHEW3bhQWVh-1" source="Xk36y5VOcnHEW3bhQWVh-130" target="jJXGbHiPcYCDRw09RAjr-68" edge="1">
          <mxGeometry relative="1" as="geometry" />
        </mxCell>
        <mxCell id="Xk36y5VOcnHEW3bhQWVh-130" value="Сохранение&lt;br&gt;строки" style="rhombus;whiteSpace=wrap;html=1;" parent="Xk36y5VOcnHEW3bhQWVh-1" vertex="1">
          <mxGeometry x="197" y="497" width="120" height="50" as="geometry" />
        </mxCell>
        <mxCell id="Xk36y5VOcnHEW3bhQWVh-135" value="Конец" style="ellipse;whiteSpace=wrap;html=1;" parent="Xk36y5VOcnHEW3bhQWVh-1" vertex="1">
          <mxGeometry x="197" y="607" width="120" height="40" as="geometry" />
        </mxCell>
        <mxCell id="jJXGbHiPcYCDRw09RAjr-11" style="edgeStyle=orthogonalEdgeStyle;rounded=0;orthogonalLoop=1;jettySize=auto;html=1;entryX=0.5;entryY=0;entryDx=0;entryDy=0;" parent="Xk36y5VOcnHEW3bhQWVh-1" source="jJXGbHiPcYCDRw09RAjr-3" target="jJXGbHiPcYCDRw09RAjr-6" edge="1">
          <mxGeometry relative="1" as="geometry" />
        </mxCell>
        <mxCell id="jJXGbHiPcYCDRw09RAjr-3" value="Существует" style="rhombus;whiteSpace=wrap;html=1;" parent="Xk36y5VOcnHEW3bhQWVh-1" vertex="1">
          <mxGeometry x="-135" y="221" width="120" height="40" as="geometry" />
        </mxCell>
        <mxCell id="jJXGbHiPcYCDRw09RAjr-13" style="edgeStyle=orthogonalEdgeStyle;rounded=0;orthogonalLoop=1;jettySize=auto;html=1;entryX=0.5;entryY=0;entryDx=0;entryDy=0;" parent="Xk36y5VOcnHEW3bhQWVh-1" source="jJXGbHiPcYCDRw09RAjr-6" target="jJXGbHiPcYCDRw09RAjr-12" edge="1">
          <mxGeometry relative="1" as="geometry" />
        </mxCell>
        <mxCell id="jJXGbHiPcYCDRw09RAjr-6" value="Цикл 6&lt;br&gt;&lt;font style=&quot;font-size: 10px;&quot;&gt;var flight in flights&lt;/font&gt;" style="shape=loopLimit;whiteSpace=wrap;html=1;" parent="Xk36y5VOcnHEW3bhQWVh-1" vertex="1">
          <mxGeometry x="-130" y="281" width="110" height="30" as="geometry" />
        </mxCell>
        <mxCell id="jJXGbHiPcYCDRw09RAjr-7" value="" style="group" parent="Xk36y5VOcnHEW3bhQWVh-1" vertex="1" connectable="0">
          <mxGeometry x="-130" y="381" width="110" height="20" as="geometry" />
        </mxCell>
        <mxCell id="jJXGbHiPcYCDRw09RAjr-8" value="" style="shape=loopLimit;whiteSpace=wrap;html=1;rotation=-180;direction=east;" parent="jJXGbHiPcYCDRw09RAjr-7" vertex="1">
          <mxGeometry width="109.99999999999999" height="20" as="geometry" />
        </mxCell>
        <mxCell id="jJXGbHiPcYCDRw09RAjr-9" value="Цикл 6" style="text;html=1;align=center;verticalAlign=middle;whiteSpace=wrap;rounded=0;direction=west;" parent="jJXGbHiPcYCDRw09RAjr-7" vertex="1">
          <mxGeometry x="27.499999999999996" y="2.5" width="54.99999999999999" height="15" as="geometry" />
        </mxCell>
        <mxCell id="jJXGbHiPcYCDRw09RAjr-17" style="edgeStyle=orthogonalEdgeStyle;rounded=0;orthogonalLoop=1;jettySize=auto;html=1;entryX=0.5;entryY=1;entryDx=0;entryDy=0;" parent="Xk36y5VOcnHEW3bhQWVh-1" source="jJXGbHiPcYCDRw09RAjr-12" target="jJXGbHiPcYCDRw09RAjr-8" edge="1">
          <mxGeometry relative="1" as="geometry" />
        </mxCell>
        <mxCell id="jJXGbHiPcYCDRw09RAjr-12" value="Удаление билетов&lt;br&gt;и рейсов" style="shape=parallelogram;perimeter=parallelogramPerimeter;whiteSpace=wrap;html=1;fixedSize=1;" parent="Xk36y5VOcnHEW3bhQWVh-1" vertex="1">
          <mxGeometry x="-145" y="331" width="140" height="30" as="geometry" />
        </mxCell>
        <mxCell id="jJXGbHiPcYCDRw09RAjr-18" style="edgeStyle=orthogonalEdgeStyle;rounded=0;orthogonalLoop=1;jettySize=auto;html=1;entryX=0.5;entryY=1;entryDx=0;entryDy=0;" parent="Xk36y5VOcnHEW3bhQWVh-1" source="jJXGbHiPcYCDRw09RAjr-8" target="Xk36y5VOcnHEW3bhQWVh-61" edge="1">
          <mxGeometry relative="1" as="geometry" />
        </mxCell>
        <mxCell id="jJXGbHiPcYCDRw09RAjr-19" style="edgeStyle=orthogonalEdgeStyle;rounded=0;orthogonalLoop=1;jettySize=auto;html=1;entryX=0.5;entryY=1;entryDx=0;entryDy=0;" parent="Xk36y5VOcnHEW3bhQWVh-1" source="Xk36y5VOcnHEW3bhQWVh-61" target="Xk36y5VOcnHEW3bhQWVh-48" edge="1">
          <mxGeometry relative="1" as="geometry" />
        </mxCell>
        <mxCell id="jJXGbHiPcYCDRw09RAjr-21" style="edgeStyle=orthogonalEdgeStyle;rounded=0;orthogonalLoop=1;jettySize=auto;html=1;entryX=0.5;entryY=1;entryDx=0;entryDy=0;" parent="Xk36y5VOcnHEW3bhQWVh-1" source="Xk36y5VOcnHEW3bhQWVh-48" target="Xk36y5VOcnHEW3bhQWVh-35" edge="1">
          <mxGeometry relative="1" as="geometry" />
        </mxCell>
        <mxCell id="jJXGbHiPcYCDRw09RAjr-25" value="Цикл 7&lt;br&gt;&lt;font style=&quot;font-size: 10px;&quot;&gt;repairStatus == &quot;Завершен&quot;&lt;/font&gt;" style="shape=loopLimit;whiteSpace=wrap;html=1;" parent="Xk36y5VOcnHEW3bhQWVh-1" vertex="1">
          <mxGeometry x="-125" y="541" width="100" height="50" as="geometry" />
        </mxCell>
        <mxCell id="jJXGbHiPcYCDRw09RAjr-26" style="edgeStyle=orthogonalEdgeStyle;rounded=0;orthogonalLoop=1;jettySize=auto;html=1;entryX=0.5;entryY=0;entryDx=0;entryDy=0;" parent="Xk36y5VOcnHEW3bhQWVh-1" source="Xk36y5VOcnHEW3bhQWVh-35" target="jJXGbHiPcYCDRw09RAjr-25" edge="1">
          <mxGeometry relative="1" as="geometry" />
        </mxCell>
        <mxCell id="jJXGbHiPcYCDRw09RAjr-30" style="edgeStyle=orthogonalEdgeStyle;rounded=0;orthogonalLoop=1;jettySize=auto;html=1;entryX=0.5;entryY=0;entryDx=0;entryDy=0;" parent="Xk36y5VOcnHEW3bhQWVh-1" source="jJXGbHiPcYCDRw09RAjr-27" target="jJXGbHiPcYCDRw09RAjr-29" edge="1">
          <mxGeometry relative="1" as="geometry" />
        </mxCell>
        <mxCell id="jJXGbHiPcYCDRw09RAjr-27" value="Цикл 8&lt;br&gt;&lt;font style=&quot;font-size: 10px;&quot;&gt;bus != null&lt;/font&gt;" style="shape=loopLimit;whiteSpace=wrap;html=1;" parent="Xk36y5VOcnHEW3bhQWVh-1" vertex="1">
          <mxGeometry x="207" y="66" width="100" height="31" as="geometry" />
        </mxCell>
        <mxCell id="jJXGbHiPcYCDRw09RAjr-35" style="edgeStyle=orthogonalEdgeStyle;rounded=0;orthogonalLoop=1;jettySize=auto;html=1;entryX=0.5;entryY=1;entryDx=0;entryDy=0;" parent="Xk36y5VOcnHEW3bhQWVh-1" source="jJXGbHiPcYCDRw09RAjr-29" target="jJXGbHiPcYCDRw09RAjr-33" edge="1">
          <mxGeometry relative="1" as="geometry" />
        </mxCell>
        <mxCell id="jJXGbHiPcYCDRw09RAjr-29" value="Обновление статуса" style="shape=parallelogram;perimeter=parallelogramPerimeter;whiteSpace=wrap;html=1;fixedSize=1;" parent="Xk36y5VOcnHEW3bhQWVh-1" vertex="1">
          <mxGeometry x="187" y="116" width="140" height="21" as="geometry" />
        </mxCell>
        <mxCell id="jJXGbHiPcYCDRw09RAjr-32" value="" style="group" parent="Xk36y5VOcnHEW3bhQWVh-1" vertex="1" connectable="0">
          <mxGeometry x="207" y="157" width="100" height="20" as="geometry" />
        </mxCell>
        <mxCell id="jJXGbHiPcYCDRw09RAjr-39" style="edgeStyle=orthogonalEdgeStyle;rounded=0;orthogonalLoop=1;jettySize=auto;html=1;" parent="jJXGbHiPcYCDRw09RAjr-32" source="jJXGbHiPcYCDRw09RAjr-33" edge="1">
          <mxGeometry relative="1" as="geometry">
            <mxPoint x="50" y="40" as="targetPoint" />
          </mxGeometry>
        </mxCell>
        <mxCell id="jJXGbHiPcYCDRw09RAjr-33" value="" style="shape=loopLimit;whiteSpace=wrap;html=1;rotation=-180;direction=east;" parent="jJXGbHiPcYCDRw09RAjr-32" vertex="1">
          <mxGeometry width="100" height="20" as="geometry" />
        </mxCell>
        <mxCell id="jJXGbHiPcYCDRw09RAjr-34" value="Цикл 8" style="text;html=1;align=center;verticalAlign=middle;whiteSpace=wrap;rounded=0;direction=west;" parent="jJXGbHiPcYCDRw09RAjr-32" vertex="1">
          <mxGeometry x="25" y="2.5" width="50" height="15" as="geometry" />
        </mxCell>
        <mxCell id="jJXGbHiPcYCDRw09RAjr-36" value="" style="group" parent="Xk36y5VOcnHEW3bhQWVh-1" vertex="1" connectable="0">
          <mxGeometry x="207" y="197" width="100" height="20" as="geometry" />
        </mxCell>
        <mxCell id="jJXGbHiPcYCDRw09RAjr-37" value="" style="shape=loopLimit;whiteSpace=wrap;html=1;rotation=-180;direction=east;" parent="jJXGbHiPcYCDRw09RAjr-36" vertex="1">
          <mxGeometry width="100" height="20" as="geometry" />
        </mxCell>
        <mxCell id="jJXGbHiPcYCDRw09RAjr-38" value="Цикл 7" style="text;html=1;align=center;verticalAlign=middle;whiteSpace=wrap;rounded=0;direction=west;" parent="jJXGbHiPcYCDRw09RAjr-36" vertex="1">
          <mxGeometry x="25" y="2.5" width="50" height="15" as="geometry" />
        </mxCell>
        <mxCell id="jJXGbHiPcYCDRw09RAjr-47" style="edgeStyle=orthogonalEdgeStyle;rounded=0;orthogonalLoop=1;jettySize=auto;html=1;entryX=0.5;entryY=0;entryDx=0;entryDy=0;" parent="Xk36y5VOcnHEW3bhQWVh-1" source="jJXGbHiPcYCDRw09RAjr-40" target="jJXGbHiPcYCDRw09RAjr-46" edge="1">
          <mxGeometry relative="1" as="geometry" />
        </mxCell>
        <mxCell id="jJXGbHiPcYCDRw09RAjr-40" value="Цикл 9&lt;br&gt;&lt;font style=&quot;font-size: 10px;&quot;&gt;Data.repair == null&lt;/font&gt;" style="shape=loopLimit;whiteSpace=wrap;html=1;" parent="Xk36y5VOcnHEW3bhQWVh-1" vertex="1">
          <mxGeometry x="207" y="237" width="100" height="31" as="geometry" />
        </mxCell>
        <mxCell id="jJXGbHiPcYCDRw09RAjr-45" style="edgeStyle=orthogonalEdgeStyle;rounded=0;orthogonalLoop=1;jettySize=auto;html=1;entryX=0.5;entryY=0;entryDx=0;entryDy=0;" parent="Xk36y5VOcnHEW3bhQWVh-1" source="jJXGbHiPcYCDRw09RAjr-37" target="jJXGbHiPcYCDRw09RAjr-40" edge="1">
          <mxGeometry relative="1" as="geometry" />
        </mxCell>
        <mxCell id="jJXGbHiPcYCDRw09RAjr-50" style="edgeStyle=orthogonalEdgeStyle;rounded=0;orthogonalLoop=1;jettySize=auto;html=1;entryX=0.5;entryY=0;entryDx=0;entryDy=0;" parent="Xk36y5VOcnHEW3bhQWVh-1" source="jJXGbHiPcYCDRw09RAjr-46" target="jJXGbHiPcYCDRw09RAjr-49" edge="1">
          <mxGeometry relative="1" as="geometry">
            <Array as="points">
              <mxPoint x="107" y="332" />
            </Array>
          </mxGeometry>
        </mxCell>
        <mxCell id="jJXGbHiPcYCDRw09RAjr-53" style="edgeStyle=orthogonalEdgeStyle;rounded=0;orthogonalLoop=1;jettySize=auto;html=1;entryX=0.5;entryY=0;entryDx=0;entryDy=0;" parent="Xk36y5VOcnHEW3bhQWVh-1" source="jJXGbHiPcYCDRw09RAjr-46" target="jJXGbHiPcYCDRw09RAjr-52" edge="1">
          <mxGeometry relative="1" as="geometry">
            <Array as="points">
              <mxPoint x="407" y="332" />
            </Array>
          </mxGeometry>
        </mxCell>
        <mxCell id="jJXGbHiPcYCDRw09RAjr-46" value="Предупреждение&lt;div&gt;&lt;span style=&quot;font-size: 10px;&quot;&gt;ВНИМАНИЕ! Это действие приведет к удалению связанных рейсов и билетов!&lt;/span&gt;&lt;br&gt;&lt;/div&gt;" style="rhombus;whiteSpace=wrap;html=1;" parent="Xk36y5VOcnHEW3bhQWVh-1" vertex="1">
          <mxGeometry x="132" y="287" width="250" height="90" as="geometry" />
        </mxCell>
        <mxCell id="jJXGbHiPcYCDRw09RAjr-65" style="edgeStyle=orthogonalEdgeStyle;rounded=0;orthogonalLoop=1;jettySize=auto;html=1;entryX=0.5;entryY=1;entryDx=0;entryDy=0;" parent="Xk36y5VOcnHEW3bhQWVh-1" source="jJXGbHiPcYCDRw09RAjr-48" target="jJXGbHiPcYCDRw09RAjr-60" edge="1">
          <mxGeometry relative="1" as="geometry" />
        </mxCell>
        <mxCell id="jJXGbHiPcYCDRw09RAjr-48" value="Сохранение записи" style="shape=parallelogram;perimeter=parallelogramPerimeter;whiteSpace=wrap;html=1;fixedSize=1;" parent="Xk36y5VOcnHEW3bhQWVh-1" vertex="1">
          <mxGeometry x="37" y="427" width="140" height="30" as="geometry" />
        </mxCell>
        <mxCell id="jJXGbHiPcYCDRw09RAjr-56" style="edgeStyle=orthogonalEdgeStyle;rounded=0;orthogonalLoop=1;jettySize=auto;html=1;entryX=0.5;entryY=0;entryDx=0;entryDy=0;" parent="Xk36y5VOcnHEW3bhQWVh-1" source="jJXGbHiPcYCDRw09RAjr-49" target="jJXGbHiPcYCDRw09RAjr-48" edge="1">
          <mxGeometry relative="1" as="geometry" />
        </mxCell>
        <mxCell id="jJXGbHiPcYCDRw09RAjr-49" value="Цикл 10&lt;br&gt;&lt;font style=&quot;font-size: 10px;&quot;&gt;result == MessageBoxResult.Yes&lt;/font&gt;" style="shape=loopLimit;whiteSpace=wrap;html=1;" parent="Xk36y5VOcnHEW3bhQWVh-1" vertex="1">
          <mxGeometry x="27" y="377" width="160" height="31" as="geometry" />
        </mxCell>
        <mxCell id="jJXGbHiPcYCDRw09RAjr-51" value="Да" style="text;html=1;align=center;verticalAlign=middle;whiteSpace=wrap;rounded=0;" parent="Xk36y5VOcnHEW3bhQWVh-1" vertex="1">
          <mxGeometry x="112" y="307" width="20" height="20" as="geometry" />
        </mxCell>
        <mxCell id="jJXGbHiPcYCDRw09RAjr-58" style="edgeStyle=orthogonalEdgeStyle;rounded=0;orthogonalLoop=1;jettySize=auto;html=1;entryX=0.5;entryY=0;entryDx=0;entryDy=0;" parent="Xk36y5VOcnHEW3bhQWVh-1" source="jJXGbHiPcYCDRw09RAjr-52" target="jJXGbHiPcYCDRw09RAjr-57" edge="1">
          <mxGeometry relative="1" as="geometry" />
        </mxCell>
        <mxCell id="jJXGbHiPcYCDRw09RAjr-52" value="Цикл 11&lt;br&gt;&lt;font style=&quot;font-size: 10px;&quot;&gt;result == MessageBoxResult.No&lt;/font&gt;" style="shape=loopLimit;whiteSpace=wrap;html=1;" parent="Xk36y5VOcnHEW3bhQWVh-1" vertex="1">
          <mxGeometry x="327" y="377" width="160" height="31" as="geometry" />
        </mxCell>
        <mxCell id="jJXGbHiPcYCDRw09RAjr-54" value="Нет" style="text;html=1;align=center;verticalAlign=middle;whiteSpace=wrap;rounded=0;" parent="Xk36y5VOcnHEW3bhQWVh-1" vertex="1">
          <mxGeometry x="382" y="307" width="20" height="20" as="geometry" />
        </mxCell>
        <mxCell id="jJXGbHiPcYCDRw09RAjr-66" style="edgeStyle=orthogonalEdgeStyle;rounded=0;orthogonalLoop=1;jettySize=auto;html=1;entryX=0.5;entryY=1;entryDx=0;entryDy=0;" parent="Xk36y5VOcnHEW3bhQWVh-1" source="jJXGbHiPcYCDRw09RAjr-57" target="jJXGbHiPcYCDRw09RAjr-63" edge="1">
          <mxGeometry relative="1" as="geometry" />
        </mxCell>
        <mxCell id="jJXGbHiPcYCDRw09RAjr-57" value="Возврат" style="shape=parallelogram;perimeter=parallelogramPerimeter;whiteSpace=wrap;html=1;fixedSize=1;" parent="Xk36y5VOcnHEW3bhQWVh-1" vertex="1">
          <mxGeometry x="362" y="427" width="90" height="30" as="geometry" />
        </mxCell>
        <mxCell id="jJXGbHiPcYCDRw09RAjr-59" value="" style="group" parent="Xk36y5VOcnHEW3bhQWVh-1" vertex="1" connectable="0">
          <mxGeometry x="27" y="477" width="160" height="20" as="geometry" />
        </mxCell>
        <mxCell id="jJXGbHiPcYCDRw09RAjr-60" value="" style="shape=loopLimit;whiteSpace=wrap;html=1;rotation=-180;direction=east;" parent="jJXGbHiPcYCDRw09RAjr-59" vertex="1">
          <mxGeometry width="160" height="20" as="geometry" />
        </mxCell>
        <mxCell id="jJXGbHiPcYCDRw09RAjr-61" value="Цикл 10" style="text;html=1;align=center;verticalAlign=middle;whiteSpace=wrap;rounded=0;direction=west;" parent="jJXGbHiPcYCDRw09RAjr-59" vertex="1">
          <mxGeometry x="40" y="2.5" width="80" height="15" as="geometry" />
        </mxCell>
        <mxCell id="jJXGbHiPcYCDRw09RAjr-62" value="" style="group" parent="Xk36y5VOcnHEW3bhQWVh-1" vertex="1" connectable="0">
          <mxGeometry x="327" y="477" width="160" height="20" as="geometry" />
        </mxCell>
        <mxCell id="jJXGbHiPcYCDRw09RAjr-63" value="" style="shape=loopLimit;whiteSpace=wrap;html=1;rotation=-180;direction=east;" parent="jJXGbHiPcYCDRw09RAjr-62" vertex="1">
          <mxGeometry width="160" height="20" as="geometry" />
        </mxCell>
        <mxCell id="jJXGbHiPcYCDRw09RAjr-64" value="Цикл 11" style="text;html=1;align=center;verticalAlign=middle;whiteSpace=wrap;rounded=0;direction=west;" parent="jJXGbHiPcYCDRw09RAjr-62" vertex="1">
          <mxGeometry x="40" y="2.5" width="80" height="15" as="geometry" />
        </mxCell>
        <mxCell id="jJXGbHiPcYCDRw09RAjr-67" value="" style="group" parent="Xk36y5VOcnHEW3bhQWVh-1" vertex="1" connectable="0">
          <mxGeometry x="207" y="567" width="100" height="20" as="geometry" />
        </mxCell>
        <mxCell id="jJXGbHiPcYCDRw09RAjr-68" value="" style="shape=loopLimit;whiteSpace=wrap;html=1;rotation=-180;direction=east;" parent="jJXGbHiPcYCDRw09RAjr-67" vertex="1">
          <mxGeometry width="100" height="20" as="geometry" />
        </mxCell>
        <mxCell id="jJXGbHiPcYCDRw09RAjr-69" value="Цикл 9" style="text;html=1;align=center;verticalAlign=middle;whiteSpace=wrap;rounded=0;direction=west;" parent="jJXGbHiPcYCDRw09RAjr-67" vertex="1">
          <mxGeometry x="25" y="2.5" width="50" height="15" as="geometry" />
        </mxCell>
        <mxCell id="jJXGbHiPcYCDRw09RAjr-78" style="edgeStyle=orthogonalEdgeStyle;rounded=0;orthogonalLoop=1;jettySize=auto;html=1;entryX=0.5;entryY=0;entryDx=0;entryDy=0;" parent="Xk36y5VOcnHEW3bhQWVh-1" target="Xk36y5VOcnHEW3bhQWVh-130" edge="1">
          <mxGeometry relative="1" as="geometry">
            <mxPoint x="187" y="477" as="sourcePoint" />
            <Array as="points">
              <mxPoint x="207" y="477" />
              <mxPoint x="257" y="477" />
            </Array>
          </mxGeometry>
        </mxCell>
        <mxCell id="jJXGbHiPcYCDRw09RAjr-79" style="edgeStyle=orthogonalEdgeStyle;rounded=0;orthogonalLoop=1;jettySize=auto;html=1;entryX=0.5;entryY=0;entryDx=0;entryDy=0;" parent="Xk36y5VOcnHEW3bhQWVh-1" target="Xk36y5VOcnHEW3bhQWVh-130" edge="1">
          <mxGeometry relative="1" as="geometry">
            <mxPoint x="327" y="477" as="sourcePoint" />
            <Array as="points">
              <mxPoint x="307" y="477" />
              <mxPoint x="257" y="477" />
            </Array>
          </mxGeometry>
        </mxCell>
        <mxCell id="jJXGbHiPcYCDRw09RAjr-81" style="edgeStyle=orthogonalEdgeStyle;rounded=0;orthogonalLoop=1;jettySize=auto;html=1;entryX=0.5;entryY=0;entryDx=0;entryDy=0;" parent="Xk36y5VOcnHEW3bhQWVh-1" source="jJXGbHiPcYCDRw09RAjr-68" target="Xk36y5VOcnHEW3bhQWVh-135" edge="1">
          <mxGeometry relative="1" as="geometry" />
        </mxCell>
        <mxCell id="fSqtw8rAOB9tWexo7Egu-0" value="1" style="ellipse;whiteSpace=wrap;html=1;aspect=fixed;" vertex="1" parent="Xk36y5VOcnHEW3bhQWVh-1">
          <mxGeometry x="-261" y="576.5" width="20" height="20" as="geometry" />
        </mxCell>
        <mxCell id="I8pWfqS-vdKtvqW7SqA9-1" value="" style="endArrow=classic;html=1;rounded=0;entryX=0.5;entryY=0;entryDx=0;entryDy=0;exitX=0.5;exitY=1;exitDx=0;exitDy=0;" edge="1" parent="Xk36y5VOcnHEW3bhQWVh-1" source="Xk36y5VOcnHEW3bhQWVh-45" target="fSqtw8rAOB9tWexo7Egu-0">
          <mxGeometry width="50" height="50" relative="1" as="geometry">
            <mxPoint x="-208" y="515.5" as="sourcePoint" />
            <mxPoint x="-158" y="465.5" as="targetPoint" />
          </mxGeometry>
        </mxCell>
        <mxCell id="akDjCjLMder03HWNkA3b-0" value="1" style="whiteSpace=wrap;html=1;aspect=fixed;" vertex="1" parent="Xk36y5VOcnHEW3bhQWVh-1">
          <mxGeometry x="-521" y="576.5" width="20" height="20" as="geometry" />
        </mxCell>
        <mxCell id="YFqgcifupfxWn_dDpMFM-0" value="1" style="ellipse;whiteSpace=wrap;html=1;aspect=fixed;" vertex="1" parent="Xk36y5VOcnHEW3bhQWVh-1">
          <mxGeometry x="-85" y="37" width="20" height="20" as="geometry" />
        </mxCell>
        <mxCell id="YFqgcifupfxWn_dDpMFM-2" value="" style="endArrow=classic;html=1;rounded=0;entryX=0.5;entryY=0;entryDx=0;entryDy=0;exitX=0.5;exitY=1;exitDx=0;exitDy=0;" edge="1" parent="Xk36y5VOcnHEW3bhQWVh-1" source="YFqgcifupfxWn_dDpMFM-0" target="Xk36y5VOcnHEW3bhQWVh-52">
          <mxGeometry width="50" height="50" relative="1" as="geometry">
            <mxPoint x="-135" y="157" as="sourcePoint" />
            <mxPoint x="-85" y="107" as="targetPoint" />
          </mxGeometry>
        </mxCell>
        <mxCell id="YFqgcifupfxWn_dDpMFM-5" style="edgeStyle=orthogonalEdgeStyle;rounded=0;orthogonalLoop=1;jettySize=auto;html=1;entryX=0.5;entryY=0;entryDx=0;entryDy=0;" edge="1" parent="Xk36y5VOcnHEW3bhQWVh-1" source="YFqgcifupfxWn_dDpMFM-3" target="YFqgcifupfxWn_dDpMFM-4">
          <mxGeometry relative="1" as="geometry" />
        </mxCell>
        <mxCell id="YFqgcifupfxWn_dDpMFM-3" value="1" style="whiteSpace=wrap;html=1;aspect=fixed;" vertex="1" parent="Xk36y5VOcnHEW3bhQWVh-1">
          <mxGeometry x="-165" y="37" width="20" height="20" as="geometry" />
        </mxCell>
        <mxCell id="YFqgcifupfxWn_dDpMFM-4" value="2" style="whiteSpace=wrap;html=1;aspect=fixed;" vertex="1" parent="Xk36y5VOcnHEW3bhQWVh-1">
          <mxGeometry x="-165" y="579" width="20" height="20" as="geometry" />
        </mxCell>
        <mxCell id="YFqgcifupfxWn_dDpMFM-7" style="edgeStyle=orthogonalEdgeStyle;rounded=0;orthogonalLoop=1;jettySize=auto;html=1;entryX=0;entryY=0.5;entryDx=0;entryDy=0;" edge="1" parent="Xk36y5VOcnHEW3bhQWVh-1" source="YFqgcifupfxWn_dDpMFM-6" target="Xk36y5VOcnHEW3bhQWVh-135">
          <mxGeometry relative="1" as="geometry">
            <mxPoint x="176.83333333333348" y="637.6666666666667" as="targetPoint" />
            <Array as="points">
              <mxPoint x="11" y="627" />
            </Array>
          </mxGeometry>
        </mxCell>
        <mxCell id="YFqgcifupfxWn_dDpMFM-6" value="2" style="whiteSpace=wrap;html=1;aspect=fixed;" vertex="1" parent="Xk36y5VOcnHEW3bhQWVh-1">
          <mxGeometry x="1" y="27" width="20" height="20" as="geometry" />
        </mxCell>
        <mxCell id="YFqgcifupfxWn_dDpMFM-8" value="2" style="ellipse;whiteSpace=wrap;html=1;aspect=fixed;" vertex="1" parent="Xk36y5VOcnHEW3bhQWVh-1">
          <mxGeometry x="-85" y="605" width="20" height="20" as="geometry" />
        </mxCell>
        <mxCell id="YFqgcifupfxWn_dDpMFM-9" value="" style="endArrow=classic;html=1;rounded=0;entryX=0.5;entryY=0;entryDx=0;entryDy=0;exitX=0.5;exitY=1;exitDx=0;exitDy=0;" edge="1" parent="Xk36y5VOcnHEW3bhQWVh-1" source="jJXGbHiPcYCDRw09RAjr-25" target="YFqgcifupfxWn_dDpMFM-8">
          <mxGeometry width="50" height="50" relative="1" as="geometry">
            <mxPoint x="-204" y="541" as="sourcePoint" />
            <mxPoint x="-154" y="491" as="targetPoint" />
          </mxGeometry>
        </mxCell>
        <mxCell id="YFqgcifupfxWn_dDpMFM-10" value="2" style="ellipse;whiteSpace=wrap;html=1;aspect=fixed;" vertex="1" parent="Xk36y5VOcnHEW3bhQWVh-1">
          <mxGeometry x="247" y="27" width="20" height="20" as="geometry" />
        </mxCell>
        <mxCell id="YFqgcifupfxWn_dDpMFM-11" value="" style="endArrow=classic;html=1;rounded=0;entryX=0.5;entryY=0;entryDx=0;entryDy=0;exitX=0.5;exitY=1;exitDx=0;exitDy=0;" edge="1" parent="Xk36y5VOcnHEW3bhQWVh-1" source="YFqgcifupfxWn_dDpMFM-10" target="jJXGbHiPcYCDRw09RAjr-27">
          <mxGeometry width="50" height="50" relative="1" as="geometry">
            <mxPoint x="25" y="130" as="sourcePoint" />
            <mxPoint x="75" y="80" as="targetPoint" />
          </mxGeometry>
        </mxCell>
      </root>
    </mxGraphModel>
  </diagram>
  <diagram name="Workers" id="mGAobxP-WSL-w90-Lcoi">
    <mxGraphModel dx="2487" dy="993" grid="0" gridSize="10" guides="1" tooltips="1" connect="1" arrows="1" fold="1" page="0" pageScale="1" pageWidth="827" pageHeight="1169" math="0" shadow="0">
      <root>
        <mxCell id="trw67ywv3AeTja7egNuF-0" />
        <mxCell id="trw67ywv3AeTja7egNuF-1" parent="trw67ywv3AeTja7egNuF-0" />
        <mxCell id="trw67ywv3AeTja7egNuF-2" style="edgeStyle=orthogonalEdgeStyle;rounded=0;orthogonalLoop=1;jettySize=auto;html=1;entryX=0.5;entryY=0;entryDx=0;entryDy=0;" parent="trw67ywv3AeTja7egNuF-1" source="trw67ywv3AeTja7egNuF-3" target="trw67ywv3AeTja7egNuF-5" edge="1">
          <mxGeometry relative="1" as="geometry" />
        </mxCell>
        <mxCell id="trw67ywv3AeTja7egNuF-3" value="Начало" style="ellipse;whiteSpace=wrap;html=1;" parent="trw67ywv3AeTja7egNuF-1" vertex="1">
          <mxGeometry x="-413" y="73" width="120" height="40" as="geometry" />
        </mxCell>
        <mxCell id="trw67ywv3AeTja7egNuF-4" style="edgeStyle=orthogonalEdgeStyle;rounded=0;orthogonalLoop=1;jettySize=auto;html=1;entryX=0.5;entryY=0;entryDx=0;entryDy=0;" parent="trw67ywv3AeTja7egNuF-1" source="trw67ywv3AeTja7egNuF-5" target="trw67ywv3AeTja7egNuF-7" edge="1">
          <mxGeometry relative="1" as="geometry" />
        </mxCell>
        <mxCell id="trw67ywv3AeTja7egNuF-5" value="Ввод значений" style="shape=parallelogram;perimeter=parallelogramPerimeter;whiteSpace=wrap;html=1;fixedSize=1;" parent="trw67ywv3AeTja7egNuF-1" vertex="1">
          <mxGeometry x="-413" y="133" width="120" height="20" as="geometry" />
        </mxCell>
        <mxCell id="trw67ywv3AeTja7egNuF-6" style="edgeStyle=orthogonalEdgeStyle;rounded=0;orthogonalLoop=1;jettySize=auto;html=1;entryX=0.5;entryY=1;entryDx=0;entryDy=0;" parent="trw67ywv3AeTja7egNuF-1" source="trw67ywv3AeTja7egNuF-7" target="trw67ywv3AeTja7egNuF-19" edge="1">
          <mxGeometry relative="1" as="geometry" />
        </mxCell>
        <mxCell id="trw67ywv3AeTja7egNuF-7" value="Цикл 1&lt;br&gt;&lt;font style=&quot;font-size: 10px;&quot;&gt;string.IsNullOrEmpty&lt;/font&gt;" style="shape=loopLimit;whiteSpace=wrap;html=1;" parent="trw67ywv3AeTja7egNuF-1" vertex="1">
          <mxGeometry x="-413" y="173" width="120" height="40" as="geometry" />
        </mxCell>
        <mxCell id="trw67ywv3AeTja7egNuF-8" style="edgeStyle=orthogonalEdgeStyle;rounded=0;orthogonalLoop=1;jettySize=auto;html=1;entryX=0.5;entryY=0;entryDx=0;entryDy=0;" parent="trw67ywv3AeTja7egNuF-1" source="trw67ywv3AeTja7egNuF-19" target="trw67ywv3AeTja7egNuF-11" edge="1">
          <mxGeometry relative="1" as="geometry" />
        </mxCell>
        <mxCell id="trw67ywv3AeTja7egNuF-9" style="edgeStyle=orthogonalEdgeStyle;rounded=0;orthogonalLoop=1;jettySize=auto;html=1;entryX=0.5;entryY=0;entryDx=0;entryDy=0;" parent="trw67ywv3AeTja7egNuF-1" source="trw67ywv3AeTja7egNuF-11" target="trw67ywv3AeTja7egNuF-13" edge="1">
          <mxGeometry relative="1" as="geometry" />
        </mxCell>
        <mxCell id="trw67ywv3AeTja7egNuF-10" style="edgeStyle=orthogonalEdgeStyle;rounded=0;orthogonalLoop=1;jettySize=auto;html=1;entryX=0.5;entryY=0;entryDx=0;entryDy=0;" parent="trw67ywv3AeTja7egNuF-1" source="trw67ywv3AeTja7egNuF-11" target="trw67ywv3AeTja7egNuF-16" edge="1">
          <mxGeometry relative="1" as="geometry" />
        </mxCell>
        <mxCell id="trw67ywv3AeTja7egNuF-11" value="Поле пустое" style="rhombus;whiteSpace=wrap;html=1;" parent="trw67ywv3AeTja7egNuF-1" vertex="1">
          <mxGeometry x="-413" y="273" width="120" height="40" as="geometry" />
        </mxCell>
        <mxCell id="8eA11BCh0E8RB2t4YU1J-2" style="edgeStyle=orthogonalEdgeStyle;rounded=0;orthogonalLoop=1;jettySize=auto;html=1;entryX=0.5;entryY=0;entryDx=0;entryDy=0;" edge="1" parent="trw67ywv3AeTja7egNuF-1" source="trw67ywv3AeTja7egNuF-13" target="0l1JXs9DsTR5z2grRGWv-0">
          <mxGeometry relative="1" as="geometry">
            <mxPoint x="-606" y="805" as="targetPoint" />
          </mxGeometry>
        </mxCell>
        <mxCell id="trw67ywv3AeTja7egNuF-13" value="Ошибка&lt;br&gt;&lt;font style=&quot;font-size: 10px;&quot;&gt;Пожалуйста, заполни все поля!&lt;/font&gt;" style="shape=parallelogram;perimeter=parallelogramPerimeter;whiteSpace=wrap;html=1;fixedSize=1;" parent="trw67ywv3AeTja7egNuF-1" vertex="1">
          <mxGeometry x="-573" y="313" width="140" height="40" as="geometry" />
        </mxCell>
        <mxCell id="trw67ywv3AeTja7egNuF-14" value="Да" style="text;html=1;align=center;verticalAlign=middle;whiteSpace=wrap;rounded=0;" parent="trw67ywv3AeTja7egNuF-1" vertex="1">
          <mxGeometry x="-443" y="273" width="20" height="20" as="geometry" />
        </mxCell>
        <mxCell id="trw67ywv3AeTja7egNuF-15" style="edgeStyle=orthogonalEdgeStyle;rounded=0;orthogonalLoop=1;jettySize=auto;html=1;entryX=0.5;entryY=1;entryDx=0;entryDy=0;" parent="trw67ywv3AeTja7egNuF-1" source="trw67ywv3AeTja7egNuF-16" target="trw67ywv3AeTja7egNuF-22" edge="1">
          <mxGeometry relative="1" as="geometry" />
        </mxCell>
        <mxCell id="trw67ywv3AeTja7egNuF-16" value="Цикл 2&lt;br&gt;&lt;font style=&quot;font-size: 10px;&quot;&gt;!System.Text.RegularExpressions.Regex.IsMatch(workerLastName, namePattern)&lt;/font&gt;" style="shape=loopLimit;whiteSpace=wrap;html=1;" parent="trw67ywv3AeTja7egNuF-1" vertex="1">
          <mxGeometry x="-508" y="373" width="310" height="40" as="geometry" />
        </mxCell>
        <mxCell id="trw67ywv3AeTja7egNuF-17" value="Нет" style="text;html=1;align=center;verticalAlign=middle;whiteSpace=wrap;rounded=0;" parent="trw67ywv3AeTja7egNuF-1" vertex="1">
          <mxGeometry x="-343" y="313" width="30" height="20" as="geometry" />
        </mxCell>
        <mxCell id="trw67ywv3AeTja7egNuF-18" value="" style="group" parent="trw67ywv3AeTja7egNuF-1" vertex="1" connectable="0">
          <mxGeometry x="-413" y="233" width="120" height="20" as="geometry" />
        </mxCell>
        <mxCell id="trw67ywv3AeTja7egNuF-19" value="" style="shape=loopLimit;whiteSpace=wrap;html=1;rotation=-180;direction=east;" parent="trw67ywv3AeTja7egNuF-18" vertex="1">
          <mxGeometry width="120" height="20" as="geometry" />
        </mxCell>
        <mxCell id="trw67ywv3AeTja7egNuF-20" value="Цикл 1" style="text;html=1;align=center;verticalAlign=middle;whiteSpace=wrap;rounded=0;direction=west;" parent="trw67ywv3AeTja7egNuF-18" vertex="1">
          <mxGeometry x="30" y="2.5" width="60" height="15" as="geometry" />
        </mxCell>
        <mxCell id="trw67ywv3AeTja7egNuF-21" value="" style="group" parent="trw67ywv3AeTja7egNuF-1" vertex="1" connectable="0">
          <mxGeometry x="-508" y="433" width="310" height="20" as="geometry" />
        </mxCell>
        <mxCell id="trw67ywv3AeTja7egNuF-22" value="" style="shape=loopLimit;whiteSpace=wrap;html=1;rotation=-180;direction=east;" parent="trw67ywv3AeTja7egNuF-21" vertex="1">
          <mxGeometry width="310" height="20" as="geometry" />
        </mxCell>
        <mxCell id="trw67ywv3AeTja7egNuF-23" value="Цикл 2" style="text;html=1;align=center;verticalAlign=middle;whiteSpace=wrap;rounded=0;direction=west;" parent="trw67ywv3AeTja7egNuF-21" vertex="1">
          <mxGeometry x="77.5" y="2.5" width="155" height="15" as="geometry" />
        </mxCell>
        <mxCell id="trw67ywv3AeTja7egNuF-24" style="edgeStyle=orthogonalEdgeStyle;rounded=0;orthogonalLoop=1;jettySize=auto;html=1;entryX=0.5;entryY=0;entryDx=0;entryDy=0;" parent="trw67ywv3AeTja7egNuF-1" source="trw67ywv3AeTja7egNuF-26" target="trw67ywv3AeTja7egNuF-28" edge="1">
          <mxGeometry relative="1" as="geometry">
            <Array as="points">
              <mxPoint x="-483" y="493" />
            </Array>
          </mxGeometry>
        </mxCell>
        <mxCell id="trw67ywv3AeTja7egNuF-25" style="edgeStyle=orthogonalEdgeStyle;rounded=0;orthogonalLoop=1;jettySize=auto;html=1;entryX=0.5;entryY=0;entryDx=0;entryDy=0;" parent="trw67ywv3AeTja7egNuF-1" source="trw67ywv3AeTja7egNuF-26" target="trw67ywv3AeTja7egNuF-33" edge="1">
          <mxGeometry relative="1" as="geometry" />
        </mxCell>
        <mxCell id="trw67ywv3AeTja7egNuF-26" value="Есть буквы" style="rhombus;whiteSpace=wrap;html=1;" parent="trw67ywv3AeTja7egNuF-1" vertex="1">
          <mxGeometry x="-413" y="473" width="120" height="40" as="geometry" />
        </mxCell>
        <mxCell id="trw67ywv3AeTja7egNuF-27" style="edgeStyle=orthogonalEdgeStyle;rounded=0;orthogonalLoop=1;jettySize=auto;html=1;endArrow=none;endFill=0;" parent="trw67ywv3AeTja7egNuF-1" source="trw67ywv3AeTja7egNuF-28" edge="1">
          <mxGeometry relative="1" as="geometry">
            <mxPoint x="-613" y="493" as="targetPoint" />
          </mxGeometry>
        </mxCell>
        <mxCell id="trw67ywv3AeTja7egNuF-28" value="Ошибка&lt;br&gt;&lt;font style=&quot;font-size: 10px;&quot;&gt;В поле «Фамилия» должны быть буквы!&lt;/font&gt;" style="shape=parallelogram;perimeter=parallelogramPerimeter;whiteSpace=wrap;html=1;fixedSize=1;" parent="trw67ywv3AeTja7egNuF-1" vertex="1">
          <mxGeometry x="-573" y="513" width="180" height="40" as="geometry" />
        </mxCell>
        <mxCell id="trw67ywv3AeTja7egNuF-29" value="Нет" style="text;html=1;align=center;verticalAlign=middle;whiteSpace=wrap;rounded=0;" parent="trw67ywv3AeTja7egNuF-1" vertex="1">
          <mxGeometry x="-448" y="473" width="30" height="20" as="geometry" />
        </mxCell>
        <mxCell id="trw67ywv3AeTja7egNuF-30" style="edgeStyle=orthogonalEdgeStyle;rounded=0;orthogonalLoop=1;jettySize=auto;html=1;entryX=0.5;entryY=0;entryDx=0;entryDy=0;" parent="trw67ywv3AeTja7egNuF-1" source="trw67ywv3AeTja7egNuF-22" target="trw67ywv3AeTja7egNuF-26" edge="1">
          <mxGeometry relative="1" as="geometry" />
        </mxCell>
        <mxCell id="trw67ywv3AeTja7egNuF-31" value="Да" style="text;html=1;align=center;verticalAlign=middle;whiteSpace=wrap;rounded=0;" parent="trw67ywv3AeTja7egNuF-1" vertex="1">
          <mxGeometry x="-338" y="553" width="20" height="20" as="geometry" />
        </mxCell>
        <mxCell id="trw67ywv3AeTja7egNuF-32" style="edgeStyle=orthogonalEdgeStyle;rounded=0;orthogonalLoop=1;jettySize=auto;html=1;entryX=0.5;entryY=1;entryDx=0;entryDy=0;" parent="trw67ywv3AeTja7egNuF-1" source="trw67ywv3AeTja7egNuF-33" target="trw67ywv3AeTja7egNuF-35" edge="1">
          <mxGeometry relative="1" as="geometry" />
        </mxCell>
        <mxCell id="trw67ywv3AeTja7egNuF-33" value="Цикл 3&lt;br&gt;&lt;font style=&quot;font-size: 10px;&quot;&gt;!System.Text.RegularExpressions.Regex.IsMatch(workerFirstName, namePattern)&lt;/font&gt;" style="shape=loopLimit;whiteSpace=wrap;html=1;" parent="trw67ywv3AeTja7egNuF-1" vertex="1">
          <mxGeometry x="-508" y="573" width="310" height="50" as="geometry" />
        </mxCell>
        <mxCell id="trw67ywv3AeTja7egNuF-34" value="" style="group" parent="trw67ywv3AeTja7egNuF-1" vertex="1" connectable="0">
          <mxGeometry x="-508" y="643" width="310" height="20" as="geometry" />
        </mxCell>
        <mxCell id="trw67ywv3AeTja7egNuF-35" value="" style="shape=loopLimit;whiteSpace=wrap;html=1;rotation=-180;direction=east;" parent="trw67ywv3AeTja7egNuF-34" vertex="1">
          <mxGeometry width="310" height="20" as="geometry" />
        </mxCell>
        <mxCell id="trw67ywv3AeTja7egNuF-36" value="Цикл 3" style="text;html=1;align=center;verticalAlign=middle;whiteSpace=wrap;rounded=0;direction=west;" parent="trw67ywv3AeTja7egNuF-34" vertex="1">
          <mxGeometry x="77.5" y="2.5" width="155" height="15" as="geometry" />
        </mxCell>
        <mxCell id="trw67ywv3AeTja7egNuF-37" style="edgeStyle=orthogonalEdgeStyle;rounded=0;orthogonalLoop=1;jettySize=auto;html=1;entryX=0.5;entryY=0;entryDx=0;entryDy=0;" parent="trw67ywv3AeTja7egNuF-1" source="trw67ywv3AeTja7egNuF-39" target="trw67ywv3AeTja7egNuF-42" edge="1">
          <mxGeometry relative="1" as="geometry">
            <mxPoint x="-513" y="723" as="targetPoint" />
          </mxGeometry>
        </mxCell>
        <mxCell id="trw67ywv3AeTja7egNuF-38" style="edgeStyle=orthogonalEdgeStyle;rounded=0;orthogonalLoop=1;jettySize=auto;html=1;entryX=0.5;entryY=0;entryDx=0;entryDy=0;" parent="trw67ywv3AeTja7egNuF-1" source="trw67ywv3AeTja7egNuF-39" edge="1">
          <mxGeometry relative="1" as="geometry">
            <mxPoint x="-353" y="783" as="targetPoint" />
          </mxGeometry>
        </mxCell>
        <mxCell id="trw67ywv3AeTja7egNuF-39" value="Есть буквы" style="rhombus;whiteSpace=wrap;html=1;" parent="trw67ywv3AeTja7egNuF-1" vertex="1">
          <mxGeometry x="-413" y="683" width="120" height="40" as="geometry" />
        </mxCell>
        <mxCell id="trw67ywv3AeTja7egNuF-40" style="edgeStyle=orthogonalEdgeStyle;rounded=0;orthogonalLoop=1;jettySize=auto;html=1;entryX=0.5;entryY=0;entryDx=0;entryDy=0;" parent="trw67ywv3AeTja7egNuF-1" source="trw67ywv3AeTja7egNuF-35" target="trw67ywv3AeTja7egNuF-39" edge="1">
          <mxGeometry relative="1" as="geometry" />
        </mxCell>
        <mxCell id="trw67ywv3AeTja7egNuF-41" style="edgeStyle=orthogonalEdgeStyle;rounded=0;orthogonalLoop=1;jettySize=auto;html=1;endArrow=none;endFill=0;" parent="trw67ywv3AeTja7egNuF-1" source="trw67ywv3AeTja7egNuF-42" edge="1">
          <mxGeometry relative="1" as="geometry">
            <mxPoint x="-613" y="663" as="targetPoint" />
          </mxGeometry>
        </mxCell>
        <mxCell id="trw67ywv3AeTja7egNuF-42" value="Ошибка&lt;br&gt;&lt;span style=&quot;font-size: 10px;&quot;&gt;В поле «Имя» должны быть буквы!&lt;/span&gt;" style="shape=parallelogram;perimeter=parallelogramPerimeter;whiteSpace=wrap;html=1;fixedSize=1;" parent="trw67ywv3AeTja7egNuF-1" vertex="1">
          <mxGeometry x="-593" y="733" width="160" height="40" as="geometry" />
        </mxCell>
        <mxCell id="trw67ywv3AeTja7egNuF-43" value="Нет" style="text;html=1;align=center;verticalAlign=middle;whiteSpace=wrap;rounded=0;" parent="trw67ywv3AeTja7egNuF-1" vertex="1">
          <mxGeometry x="-448" y="683" width="30" height="20" as="geometry" />
        </mxCell>
        <mxCell id="trw67ywv3AeTja7egNuF-46" value="Да" style="text;html=1;align=center;verticalAlign=middle;whiteSpace=wrap;rounded=0;" parent="trw67ywv3AeTja7egNuF-1" vertex="1">
          <mxGeometry x="-338" y="723" width="20" height="20" as="geometry" />
        </mxCell>
        <mxCell id="trw67ywv3AeTja7egNuF-122" style="edgeStyle=orthogonalEdgeStyle;rounded=0;orthogonalLoop=1;jettySize=auto;html=1;entryX=0.5;entryY=1;entryDx=0;entryDy=0;" parent="trw67ywv3AeTja7egNuF-1" source="trw67ywv3AeTja7egNuF-123" target="trw67ywv3AeTja7egNuF-126" edge="1">
          <mxGeometry relative="1" as="geometry" />
        </mxCell>
        <mxCell id="trw67ywv3AeTja7egNuF-123" value="Цикл 10&lt;br&gt;&lt;font style=&quot;font-size: 10px;&quot;&gt;Data.flight == null&lt;/font&gt;" style="shape=loopLimit;whiteSpace=wrap;html=1;" parent="trw67ywv3AeTja7egNuF-1" vertex="1">
          <mxGeometry x="28.5" y="532" width="105" height="40" as="geometry" />
        </mxCell>
        <mxCell id="trw67ywv3AeTja7egNuF-125" value="" style="group" parent="trw67ywv3AeTja7egNuF-1" vertex="1" connectable="0">
          <mxGeometry x="28.5" y="592" width="105" height="40" as="geometry" />
        </mxCell>
        <mxCell id="trw67ywv3AeTja7egNuF-126" value="" style="shape=loopLimit;whiteSpace=wrap;html=1;rotation=-180;" parent="trw67ywv3AeTja7egNuF-125" vertex="1">
          <mxGeometry width="105" height="40" as="geometry" />
        </mxCell>
        <mxCell id="trw67ywv3AeTja7egNuF-127" value="Цикл 10" style="text;html=1;align=center;verticalAlign=middle;whiteSpace=wrap;rounded=0;" parent="trw67ywv3AeTja7egNuF-125" vertex="1">
          <mxGeometry x="22.5" y="5" width="60" height="30" as="geometry" />
        </mxCell>
        <mxCell id="trw67ywv3AeTja7egNuF-128" style="edgeStyle=orthogonalEdgeStyle;rounded=0;orthogonalLoop=1;jettySize=auto;html=1;entryX=0.5;entryY=0;entryDx=0;entryDy=0;" parent="trw67ywv3AeTja7egNuF-1" source="trw67ywv3AeTja7egNuF-130" target="trw67ywv3AeTja7egNuF-132" edge="1">
          <mxGeometry relative="1" as="geometry" />
        </mxCell>
        <mxCell id="trw67ywv3AeTja7egNuF-129" style="edgeStyle=orthogonalEdgeStyle;rounded=0;orthogonalLoop=1;jettySize=auto;html=1;entryX=0.5;entryY=0;entryDx=0;entryDy=0;" parent="trw67ywv3AeTja7egNuF-1" source="trw67ywv3AeTja7egNuF-130" target="trw67ywv3AeTja7egNuF-138" edge="1">
          <mxGeometry relative="1" as="geometry" />
        </mxCell>
        <mxCell id="trw67ywv3AeTja7egNuF-130" value="Значение новое" style="rhombus;whiteSpace=wrap;html=1;" parent="trw67ywv3AeTja7egNuF-1" vertex="1">
          <mxGeometry x="21" y="652" width="120" height="40" as="geometry" />
        </mxCell>
        <mxCell id="trw67ywv3AeTja7egNuF-131" style="edgeStyle=orthogonalEdgeStyle;rounded=0;orthogonalLoop=1;jettySize=auto;html=1;entryX=1;entryY=0.5;entryDx=0;entryDy=0;" parent="trw67ywv3AeTja7egNuF-1" source="trw67ywv3AeTja7egNuF-132" target="trw67ywv3AeTja7egNuF-135" edge="1">
          <mxGeometry relative="1" as="geometry">
            <Array as="points">
              <mxPoint x="221" y="772" />
            </Array>
          </mxGeometry>
        </mxCell>
        <mxCell id="trw67ywv3AeTja7egNuF-132" value="Внести&lt;br&gt;изменения" style="shape=parallelogram;perimeter=parallelogramPerimeter;whiteSpace=wrap;html=1;fixedSize=1;" parent="trw67ywv3AeTja7egNuF-1" vertex="1">
          <mxGeometry x="171" y="692" width="100" height="40" as="geometry" />
        </mxCell>
        <mxCell id="trw67ywv3AeTja7egNuF-133" value="Нет" style="text;html=1;align=center;verticalAlign=middle;whiteSpace=wrap;rounded=0;" parent="trw67ywv3AeTja7egNuF-1" vertex="1">
          <mxGeometry x="151" y="652" width="30" height="20" as="geometry" />
        </mxCell>
        <mxCell id="trw67ywv3AeTja7egNuF-134" style="edgeStyle=orthogonalEdgeStyle;rounded=0;orthogonalLoop=1;jettySize=auto;html=1;entryX=0.5;entryY=0;entryDx=0;entryDy=0;" parent="trw67ywv3AeTja7egNuF-1" source="trw67ywv3AeTja7egNuF-126" target="trw67ywv3AeTja7egNuF-130" edge="1">
          <mxGeometry relative="1" as="geometry" />
        </mxCell>
        <mxCell id="trw67ywv3AeTja7egNuF-135" value="Конец" style="ellipse;whiteSpace=wrap;html=1;" parent="trw67ywv3AeTja7egNuF-1" vertex="1">
          <mxGeometry x="21" y="752" width="120" height="40" as="geometry" />
        </mxCell>
        <mxCell id="trw67ywv3AeTja7egNuF-136" value="Да" style="text;html=1;align=center;verticalAlign=middle;whiteSpace=wrap;rounded=0;" parent="trw67ywv3AeTja7egNuF-1" vertex="1">
          <mxGeometry x="-9" y="652" width="20" height="20" as="geometry" />
        </mxCell>
        <mxCell id="trw67ywv3AeTja7egNuF-137" style="edgeStyle=orthogonalEdgeStyle;rounded=0;orthogonalLoop=1;jettySize=auto;html=1;entryX=0;entryY=0.5;entryDx=0;entryDy=0;" parent="trw67ywv3AeTja7egNuF-1" source="trw67ywv3AeTja7egNuF-138" target="trw67ywv3AeTja7egNuF-135" edge="1">
          <mxGeometry relative="1" as="geometry">
            <Array as="points">
              <mxPoint x="-59" y="772" />
            </Array>
          </mxGeometry>
        </mxCell>
        <mxCell id="trw67ywv3AeTja7egNuF-138" value="Сохранить&lt;br&gt;новую строку" style="shape=parallelogram;perimeter=parallelogramPerimeter;whiteSpace=wrap;html=1;fixedSize=1;" parent="trw67ywv3AeTja7egNuF-1" vertex="1">
          <mxGeometry x="-109" y="692" width="110" height="40" as="geometry" />
        </mxCell>
        <mxCell id="5m_iy_N4kNVYTUbyOOyB-1" style="edgeStyle=orthogonalEdgeStyle;rounded=0;orthogonalLoop=1;jettySize=auto;html=1;entryX=0.5;entryY=1;entryDx=0;entryDy=0;" parent="trw67ywv3AeTja7egNuF-1" source="5m_iy_N4kNVYTUbyOOyB-2" target="5m_iy_N4kNVYTUbyOOyB-4" edge="1">
          <mxGeometry relative="1" as="geometry" />
        </mxCell>
        <mxCell id="5m_iy_N4kNVYTUbyOOyB-2" value="Цикл 4&lt;br&gt;&lt;font style=&quot;font-size: 10px;&quot;&gt;!System.Text.RegularExpressions.Regex.IsMatch(workerMiddleName, namePattern)&lt;/font&gt;" style="shape=loopLimit;whiteSpace=wrap;html=1;" parent="trw67ywv3AeTja7egNuF-1" vertex="1">
          <mxGeometry x="-74" y="123" width="310" height="50" as="geometry" />
        </mxCell>
        <mxCell id="5m_iy_N4kNVYTUbyOOyB-3" value="" style="group" parent="trw67ywv3AeTja7egNuF-1" vertex="1" connectable="0">
          <mxGeometry x="-74" y="193" width="310" height="20" as="geometry" />
        </mxCell>
        <mxCell id="5m_iy_N4kNVYTUbyOOyB-4" value="" style="shape=loopLimit;whiteSpace=wrap;html=1;rotation=-180;direction=east;" parent="5m_iy_N4kNVYTUbyOOyB-3" vertex="1">
          <mxGeometry width="310" height="20" as="geometry" />
        </mxCell>
        <mxCell id="5m_iy_N4kNVYTUbyOOyB-5" value="Цикл 4" style="text;html=1;align=center;verticalAlign=middle;whiteSpace=wrap;rounded=0;direction=west;" parent="5m_iy_N4kNVYTUbyOOyB-3" vertex="1">
          <mxGeometry x="77.5" y="2.5" width="155" height="15" as="geometry" />
        </mxCell>
        <mxCell id="5m_iy_N4kNVYTUbyOOyB-18" style="edgeStyle=orthogonalEdgeStyle;rounded=0;orthogonalLoop=1;jettySize=auto;html=1;entryX=0.5;entryY=0;entryDx=0;entryDy=0;" parent="trw67ywv3AeTja7egNuF-1" source="5m_iy_N4kNVYTUbyOOyB-6" target="5m_iy_N4kNVYTUbyOOyB-14" edge="1">
          <mxGeometry relative="1" as="geometry" />
        </mxCell>
        <mxCell id="5m_iy_N4kNVYTUbyOOyB-6" value="Есть буквы" style="rhombus;whiteSpace=wrap;html=1;" parent="trw67ywv3AeTja7egNuF-1" vertex="1">
          <mxGeometry x="21" y="232" width="120" height="40" as="geometry" />
        </mxCell>
        <mxCell id="5m_iy_N4kNVYTUbyOOyB-8" style="edgeStyle=orthogonalEdgeStyle;rounded=0;orthogonalLoop=1;jettySize=auto;html=1;entryX=0.5;entryY=0;entryDx=0;entryDy=0;" parent="trw67ywv3AeTja7egNuF-1" target="5m_iy_N4kNVYTUbyOOyB-9" edge="1">
          <mxGeometry relative="1" as="geometry">
            <mxPoint x="21" y="252" as="sourcePoint" />
            <mxPoint x="-79" y="272" as="targetPoint" />
            <Array as="points">
              <mxPoint x="-79" y="252" />
            </Array>
          </mxGeometry>
        </mxCell>
        <mxCell id="5m_iy_N4kNVYTUbyOOyB-9" value="Ошибка&lt;br&gt;&lt;span style=&quot;font-size: 10px;&quot;&gt;В поле «Отчество» должны быть буквы!&lt;/span&gt;" style="shape=parallelogram;perimeter=parallelogramPerimeter;whiteSpace=wrap;html=1;fixedSize=1;" parent="trw67ywv3AeTja7egNuF-1" vertex="1">
          <mxGeometry x="-169" y="282" width="180" height="40" as="geometry" />
        </mxCell>
        <mxCell id="5m_iy_N4kNVYTUbyOOyB-10" value="Нет" style="text;html=1;align=center;verticalAlign=middle;whiteSpace=wrap;rounded=0;" parent="trw67ywv3AeTja7egNuF-1" vertex="1">
          <mxGeometry x="-14" y="232" width="30" height="20" as="geometry" />
        </mxCell>
        <mxCell id="5m_iy_N4kNVYTUbyOOyB-11" style="edgeStyle=orthogonalEdgeStyle;rounded=0;orthogonalLoop=1;jettySize=auto;html=1;endArrow=none;endFill=0;exitX=0;exitY=0.5;exitDx=0;exitDy=0;" parent="trw67ywv3AeTja7egNuF-1" source="5m_iy_N4kNVYTUbyOOyB-9" edge="1">
          <mxGeometry relative="1" as="geometry">
            <mxPoint x="-179" y="302" as="targetPoint" />
            <mxPoint x="-139" y="102" as="sourcePoint" />
            <Array as="points">
              <mxPoint x="-169" y="302" />
            </Array>
          </mxGeometry>
        </mxCell>
        <mxCell id="5m_iy_N4kNVYTUbyOOyB-12" value="Да" style="text;html=1;align=center;verticalAlign=middle;whiteSpace=wrap;rounded=0;" parent="trw67ywv3AeTja7egNuF-1" vertex="1">
          <mxGeometry x="96" y="272" width="20" height="20" as="geometry" />
        </mxCell>
        <mxCell id="5m_iy_N4kNVYTUbyOOyB-13" style="edgeStyle=orthogonalEdgeStyle;rounded=0;orthogonalLoop=1;jettySize=auto;html=1;entryX=0.5;entryY=1;entryDx=0;entryDy=0;" parent="trw67ywv3AeTja7egNuF-1" source="5m_iy_N4kNVYTUbyOOyB-14" target="5m_iy_N4kNVYTUbyOOyB-16" edge="1">
          <mxGeometry relative="1" as="geometry" />
        </mxCell>
        <mxCell id="5m_iy_N4kNVYTUbyOOyB-14" value="Цикл 5&lt;br&gt;&lt;font style=&quot;font-size: 10px;&quot;&gt;!System.Text.RegularExpressions.Regex.IsMatch(workerHireDate, datePattern)&lt;/font&gt;" style="shape=loopLimit;whiteSpace=wrap;html=1;" parent="trw67ywv3AeTja7egNuF-1" vertex="1">
          <mxGeometry x="-74" y="342" width="310" height="50" as="geometry" />
        </mxCell>
        <mxCell id="5m_iy_N4kNVYTUbyOOyB-15" value="" style="group" parent="trw67ywv3AeTja7egNuF-1" vertex="1" connectable="0">
          <mxGeometry x="-74" y="412" width="310" height="20" as="geometry" />
        </mxCell>
        <mxCell id="5m_iy_N4kNVYTUbyOOyB-16" value="" style="shape=loopLimit;whiteSpace=wrap;html=1;rotation=-180;direction=east;" parent="5m_iy_N4kNVYTUbyOOyB-15" vertex="1">
          <mxGeometry width="310" height="20" as="geometry" />
        </mxCell>
        <mxCell id="5m_iy_N4kNVYTUbyOOyB-17" value="Цикл 5" style="text;html=1;align=center;verticalAlign=middle;whiteSpace=wrap;rounded=0;direction=west;" parent="5m_iy_N4kNVYTUbyOOyB-15" vertex="1">
          <mxGeometry x="77.5" y="2.5" width="155" height="15" as="geometry" />
        </mxCell>
        <mxCell id="5m_iy_N4kNVYTUbyOOyB-23" style="edgeStyle=orthogonalEdgeStyle;rounded=0;orthogonalLoop=1;jettySize=auto;html=1;entryX=0.5;entryY=0;entryDx=0;entryDy=0;" parent="trw67ywv3AeTja7egNuF-1" source="5m_iy_N4kNVYTUbyOOyB-19" target="5m_iy_N4kNVYTUbyOOyB-22" edge="1">
          <mxGeometry relative="1" as="geometry">
            <Array as="points">
              <mxPoint x="-69" y="472" />
            </Array>
          </mxGeometry>
        </mxCell>
        <mxCell id="5m_iy_N4kNVYTUbyOOyB-26" style="edgeStyle=orthogonalEdgeStyle;rounded=0;orthogonalLoop=1;jettySize=auto;html=1;entryX=0.5;entryY=0;entryDx=0;entryDy=0;" parent="trw67ywv3AeTja7egNuF-1" source="5m_iy_N4kNVYTUbyOOyB-19" target="trw67ywv3AeTja7egNuF-123" edge="1">
          <mxGeometry relative="1" as="geometry" />
        </mxCell>
        <mxCell id="5m_iy_N4kNVYTUbyOOyB-19" value="Неверный&lt;br&gt;формат" style="rhombus;whiteSpace=wrap;html=1;" parent="trw67ywv3AeTja7egNuF-1" vertex="1">
          <mxGeometry x="21" y="452" width="120" height="40" as="geometry" />
        </mxCell>
        <mxCell id="5m_iy_N4kNVYTUbyOOyB-21" style="edgeStyle=orthogonalEdgeStyle;rounded=0;orthogonalLoop=1;jettySize=auto;html=1;entryX=0.5;entryY=0;entryDx=0;entryDy=0;" parent="trw67ywv3AeTja7egNuF-1" source="5m_iy_N4kNVYTUbyOOyB-16" target="5m_iy_N4kNVYTUbyOOyB-19" edge="1">
          <mxGeometry relative="1" as="geometry" />
        </mxCell>
        <mxCell id="njeDJR8d2ycgrYBD_-vV-5" style="edgeStyle=orthogonalEdgeStyle;rounded=0;orthogonalLoop=1;jettySize=auto;html=1;endArrow=none;endFill=0;" edge="1" parent="trw67ywv3AeTja7egNuF-1" source="5m_iy_N4kNVYTUbyOOyB-22">
          <mxGeometry relative="1" as="geometry">
            <mxPoint x="-178.66666666666674" y="532" as="targetPoint" />
          </mxGeometry>
        </mxCell>
        <mxCell id="5m_iy_N4kNVYTUbyOOyB-22" value="Ошибка&lt;br&gt;&lt;span style=&quot;font-size: 10px;&quot;&gt;Неверный формат даты в поле «Принят на работу»!&lt;/span&gt;" style="shape=parallelogram;perimeter=parallelogramPerimeter;whiteSpace=wrap;html=1;fixedSize=1;" parent="trw67ywv3AeTja7egNuF-1" vertex="1">
          <mxGeometry x="-159" y="512" width="180" height="40" as="geometry" />
        </mxCell>
        <mxCell id="5m_iy_N4kNVYTUbyOOyB-24" value="Да" style="text;html=1;align=center;verticalAlign=middle;whiteSpace=wrap;rounded=0;" parent="trw67ywv3AeTja7egNuF-1" vertex="1">
          <mxGeometry x="-14" y="452" width="30" height="20" as="geometry" />
        </mxCell>
        <mxCell id="5m_iy_N4kNVYTUbyOOyB-25" value="Нет" style="text;html=1;align=center;verticalAlign=middle;whiteSpace=wrap;rounded=0;" parent="trw67ywv3AeTja7egNuF-1" vertex="1">
          <mxGeometry x="96" y="502" width="20" height="20" as="geometry" />
        </mxCell>
        <mxCell id="8eA11BCh0E8RB2t4YU1J-1" style="edgeStyle=orthogonalEdgeStyle;rounded=0;orthogonalLoop=1;jettySize=auto;html=1;entryX=0.5;entryY=0;entryDx=0;entryDy=0;" edge="1" parent="trw67ywv3AeTja7egNuF-1" source="5m_iy_N4kNVYTUbyOOyB-4" target="5m_iy_N4kNVYTUbyOOyB-6">
          <mxGeometry relative="1" as="geometry" />
        </mxCell>
        <mxCell id="0l1JXs9DsTR5z2grRGWv-0" value="1" style="whiteSpace=wrap;html=1;aspect=fixed;" vertex="1" parent="trw67ywv3AeTja7egNuF-1">
          <mxGeometry x="-623" y="782" width="20" height="20" as="geometry" />
        </mxCell>
        <mxCell id="njeDJR8d2ycgrYBD_-vV-0" value="1" style="ellipse;whiteSpace=wrap;html=1;aspect=fixed;" vertex="1" parent="trw67ywv3AeTja7egNuF-1">
          <mxGeometry x="-363" y="782" width="20" height="20" as="geometry" />
        </mxCell>
        <mxCell id="njeDJR8d2ycgrYBD_-vV-4" style="edgeStyle=orthogonalEdgeStyle;rounded=0;orthogonalLoop=1;jettySize=auto;html=1;entryX=0;entryY=0.5;entryDx=0;entryDy=0;" edge="1" parent="trw67ywv3AeTja7egNuF-1" source="njeDJR8d2ycgrYBD_-vV-1" target="trw67ywv3AeTja7egNuF-135">
          <mxGeometry relative="1" as="geometry">
            <Array as="points">
              <mxPoint x="-179" y="772" />
            </Array>
          </mxGeometry>
        </mxCell>
        <mxCell id="njeDJR8d2ycgrYBD_-vV-1" value="1" style="whiteSpace=wrap;html=1;aspect=fixed;" vertex="1" parent="trw67ywv3AeTja7egNuF-1">
          <mxGeometry x="-194" y="73" width="20" height="20" as="geometry" />
        </mxCell>
        <mxCell id="njeDJR8d2ycgrYBD_-vV-3" style="edgeStyle=orthogonalEdgeStyle;rounded=0;orthogonalLoop=1;jettySize=auto;html=1;entryX=0.5;entryY=0;entryDx=0;entryDy=0;" edge="1" parent="trw67ywv3AeTja7egNuF-1" source="njeDJR8d2ycgrYBD_-vV-2" target="5m_iy_N4kNVYTUbyOOyB-2">
          <mxGeometry relative="1" as="geometry" />
        </mxCell>
        <mxCell id="njeDJR8d2ycgrYBD_-vV-2" value="1" style="ellipse;whiteSpace=wrap;html=1;aspect=fixed;" vertex="1" parent="trw67ywv3AeTja7egNuF-1">
          <mxGeometry x="71" y="73" width="20" height="20" as="geometry" />
        </mxCell>
      </root>
    </mxGraphModel>
  </diagram>
  <diagram name="Clients" id="P_oJNIZHicQdm-52EGN1">
    <mxGraphModel dx="2234" dy="844" grid="0" gridSize="10" guides="1" tooltips="1" connect="1" arrows="1" fold="1" page="0" pageScale="1" pageWidth="827" pageHeight="1169" math="0" shadow="0">
      <root>
        <mxCell id="8B3d1EvUy9ZRNWCa27w8-0" />
        <mxCell id="8B3d1EvUy9ZRNWCa27w8-1" parent="8B3d1EvUy9ZRNWCa27w8-0" />
        <mxCell id="8B3d1EvUy9ZRNWCa27w8-2" style="edgeStyle=orthogonalEdgeStyle;rounded=0;orthogonalLoop=1;jettySize=auto;html=1;entryX=0.5;entryY=0;entryDx=0;entryDy=0;" parent="8B3d1EvUy9ZRNWCa27w8-1" source="8B3d1EvUy9ZRNWCa27w8-3" target="8B3d1EvUy9ZRNWCa27w8-5" edge="1">
          <mxGeometry relative="1" as="geometry" />
        </mxCell>
        <mxCell id="8B3d1EvUy9ZRNWCa27w8-3" value="Начало" style="ellipse;whiteSpace=wrap;html=1;" parent="8B3d1EvUy9ZRNWCa27w8-1" vertex="1">
          <mxGeometry x="-328" y="7" width="120" height="40" as="geometry" />
        </mxCell>
        <mxCell id="8B3d1EvUy9ZRNWCa27w8-4" style="edgeStyle=orthogonalEdgeStyle;rounded=0;orthogonalLoop=1;jettySize=auto;html=1;entryX=0.5;entryY=0;entryDx=0;entryDy=0;" parent="8B3d1EvUy9ZRNWCa27w8-1" source="8B3d1EvUy9ZRNWCa27w8-5" target="8B3d1EvUy9ZRNWCa27w8-7" edge="1">
          <mxGeometry relative="1" as="geometry" />
        </mxCell>
        <mxCell id="8B3d1EvUy9ZRNWCa27w8-5" value="Ввод значений" style="shape=parallelogram;perimeter=parallelogramPerimeter;whiteSpace=wrap;html=1;fixedSize=1;" parent="8B3d1EvUy9ZRNWCa27w8-1" vertex="1">
          <mxGeometry x="-328" y="67" width="120" height="20" as="geometry" />
        </mxCell>
        <mxCell id="8B3d1EvUy9ZRNWCa27w8-6" style="edgeStyle=orthogonalEdgeStyle;rounded=0;orthogonalLoop=1;jettySize=auto;html=1;entryX=0.5;entryY=1;entryDx=0;entryDy=0;" parent="8B3d1EvUy9ZRNWCa27w8-1" source="8B3d1EvUy9ZRNWCa27w8-7" target="8B3d1EvUy9ZRNWCa27w8-19" edge="1">
          <mxGeometry relative="1" as="geometry" />
        </mxCell>
        <mxCell id="8B3d1EvUy9ZRNWCa27w8-7" value="Цикл 1&lt;br&gt;&lt;font style=&quot;font-size: 10px;&quot;&gt;string.IsNullOrEmpty&lt;/font&gt;" style="shape=loopLimit;whiteSpace=wrap;html=1;" parent="8B3d1EvUy9ZRNWCa27w8-1" vertex="1">
          <mxGeometry x="-328" y="107" width="120" height="40" as="geometry" />
        </mxCell>
        <mxCell id="8B3d1EvUy9ZRNWCa27w8-8" style="edgeStyle=orthogonalEdgeStyle;rounded=0;orthogonalLoop=1;jettySize=auto;html=1;entryX=0.5;entryY=0;entryDx=0;entryDy=0;" parent="8B3d1EvUy9ZRNWCa27w8-1" source="8B3d1EvUy9ZRNWCa27w8-19" target="8B3d1EvUy9ZRNWCa27w8-11" edge="1">
          <mxGeometry relative="1" as="geometry" />
        </mxCell>
        <mxCell id="8B3d1EvUy9ZRNWCa27w8-9" style="edgeStyle=orthogonalEdgeStyle;rounded=0;orthogonalLoop=1;jettySize=auto;html=1;entryX=0.5;entryY=0;entryDx=0;entryDy=0;" parent="8B3d1EvUy9ZRNWCa27w8-1" source="8B3d1EvUy9ZRNWCa27w8-11" target="8B3d1EvUy9ZRNWCa27w8-13" edge="1">
          <mxGeometry relative="1" as="geometry" />
        </mxCell>
        <mxCell id="8B3d1EvUy9ZRNWCa27w8-10" style="edgeStyle=orthogonalEdgeStyle;rounded=0;orthogonalLoop=1;jettySize=auto;html=1;entryX=0.5;entryY=0;entryDx=0;entryDy=0;" parent="8B3d1EvUy9ZRNWCa27w8-1" source="8B3d1EvUy9ZRNWCa27w8-11" target="8B3d1EvUy9ZRNWCa27w8-16" edge="1">
          <mxGeometry relative="1" as="geometry" />
        </mxCell>
        <mxCell id="8B3d1EvUy9ZRNWCa27w8-11" value="Поле пустое" style="rhombus;whiteSpace=wrap;html=1;" parent="8B3d1EvUy9ZRNWCa27w8-1" vertex="1">
          <mxGeometry x="-328" y="207" width="120" height="40" as="geometry" />
        </mxCell>
        <mxCell id="YdR7k1CSy_zC7M5VZ0H9-1" style="edgeStyle=orthogonalEdgeStyle;rounded=0;orthogonalLoop=1;jettySize=auto;html=1;entryX=0.5;entryY=0;entryDx=0;entryDy=0;" edge="1" parent="8B3d1EvUy9ZRNWCa27w8-1" source="8B3d1EvUy9ZRNWCa27w8-13" target="YdR7k1CSy_zC7M5VZ0H9-0">
          <mxGeometry relative="1" as="geometry" />
        </mxCell>
        <mxCell id="8B3d1EvUy9ZRNWCa27w8-13" value="Ошибка&lt;br&gt;&lt;font style=&quot;font-size: 10px;&quot;&gt;Пожалуйста, заполни все поля!&lt;/font&gt;" style="shape=parallelogram;perimeter=parallelogramPerimeter;whiteSpace=wrap;html=1;fixedSize=1;" parent="8B3d1EvUy9ZRNWCa27w8-1" vertex="1">
          <mxGeometry x="-488" y="247" width="140" height="40" as="geometry" />
        </mxCell>
        <mxCell id="8B3d1EvUy9ZRNWCa27w8-14" value="Да" style="text;html=1;align=center;verticalAlign=middle;whiteSpace=wrap;rounded=0;" parent="8B3d1EvUy9ZRNWCa27w8-1" vertex="1">
          <mxGeometry x="-358" y="207" width="20" height="20" as="geometry" />
        </mxCell>
        <mxCell id="8B3d1EvUy9ZRNWCa27w8-15" style="edgeStyle=orthogonalEdgeStyle;rounded=0;orthogonalLoop=1;jettySize=auto;html=1;entryX=0.5;entryY=1;entryDx=0;entryDy=0;" parent="8B3d1EvUy9ZRNWCa27w8-1" source="8B3d1EvUy9ZRNWCa27w8-16" target="8B3d1EvUy9ZRNWCa27w8-22" edge="1">
          <mxGeometry relative="1" as="geometry" />
        </mxCell>
        <mxCell id="8B3d1EvUy9ZRNWCa27w8-16" value="Цикл 2&lt;br&gt;&lt;font style=&quot;font-size: 10px;&quot;&gt;!System.Text.RegularExpressions.Regex.IsMatch(clientLastName, namePattern)&lt;/font&gt;" style="shape=loopLimit;whiteSpace=wrap;html=1;" parent="8B3d1EvUy9ZRNWCa27w8-1" vertex="1">
          <mxGeometry x="-423" y="307" width="310" height="40" as="geometry" />
        </mxCell>
        <mxCell id="8B3d1EvUy9ZRNWCa27w8-17" value="Нет" style="text;html=1;align=center;verticalAlign=middle;whiteSpace=wrap;rounded=0;" parent="8B3d1EvUy9ZRNWCa27w8-1" vertex="1">
          <mxGeometry x="-258" y="247" width="30" height="20" as="geometry" />
        </mxCell>
        <mxCell id="8B3d1EvUy9ZRNWCa27w8-18" value="" style="group" parent="8B3d1EvUy9ZRNWCa27w8-1" vertex="1" connectable="0">
          <mxGeometry x="-328" y="167" width="120" height="20" as="geometry" />
        </mxCell>
        <mxCell id="8B3d1EvUy9ZRNWCa27w8-19" value="" style="shape=loopLimit;whiteSpace=wrap;html=1;rotation=-180;direction=east;" parent="8B3d1EvUy9ZRNWCa27w8-18" vertex="1">
          <mxGeometry width="120" height="20" as="geometry" />
        </mxCell>
        <mxCell id="8B3d1EvUy9ZRNWCa27w8-20" value="Цикл 1" style="text;html=1;align=center;verticalAlign=middle;whiteSpace=wrap;rounded=0;direction=west;" parent="8B3d1EvUy9ZRNWCa27w8-18" vertex="1">
          <mxGeometry x="30" y="2.5" width="60" height="15" as="geometry" />
        </mxCell>
        <mxCell id="8B3d1EvUy9ZRNWCa27w8-21" value="" style="group" parent="8B3d1EvUy9ZRNWCa27w8-1" vertex="1" connectable="0">
          <mxGeometry x="-423" y="367" width="310" height="20" as="geometry" />
        </mxCell>
        <mxCell id="8B3d1EvUy9ZRNWCa27w8-22" value="" style="shape=loopLimit;whiteSpace=wrap;html=1;rotation=-180;direction=east;" parent="8B3d1EvUy9ZRNWCa27w8-21" vertex="1">
          <mxGeometry width="310" height="20" as="geometry" />
        </mxCell>
        <mxCell id="8B3d1EvUy9ZRNWCa27w8-23" value="Цикл 2" style="text;html=1;align=center;verticalAlign=middle;whiteSpace=wrap;rounded=0;direction=west;" parent="8B3d1EvUy9ZRNWCa27w8-21" vertex="1">
          <mxGeometry x="77.5" y="2.5" width="155" height="15" as="geometry" />
        </mxCell>
        <mxCell id="8B3d1EvUy9ZRNWCa27w8-24" style="edgeStyle=orthogonalEdgeStyle;rounded=0;orthogonalLoop=1;jettySize=auto;html=1;entryX=0.5;entryY=0;entryDx=0;entryDy=0;" parent="8B3d1EvUy9ZRNWCa27w8-1" source="8B3d1EvUy9ZRNWCa27w8-26" target="8B3d1EvUy9ZRNWCa27w8-28" edge="1">
          <mxGeometry relative="1" as="geometry">
            <Array as="points">
              <mxPoint x="-398" y="427" />
            </Array>
          </mxGeometry>
        </mxCell>
        <mxCell id="8B3d1EvUy9ZRNWCa27w8-25" style="edgeStyle=orthogonalEdgeStyle;rounded=0;orthogonalLoop=1;jettySize=auto;html=1;entryX=0.5;entryY=0;entryDx=0;entryDy=0;" parent="8B3d1EvUy9ZRNWCa27w8-1" source="8B3d1EvUy9ZRNWCa27w8-26" target="8B3d1EvUy9ZRNWCa27w8-33" edge="1">
          <mxGeometry relative="1" as="geometry" />
        </mxCell>
        <mxCell id="8B3d1EvUy9ZRNWCa27w8-26" value="Есть буквы" style="rhombus;whiteSpace=wrap;html=1;" parent="8B3d1EvUy9ZRNWCa27w8-1" vertex="1">
          <mxGeometry x="-328" y="407" width="120" height="40" as="geometry" />
        </mxCell>
        <mxCell id="YdR7k1CSy_zC7M5VZ0H9-2" style="edgeStyle=orthogonalEdgeStyle;rounded=0;orthogonalLoop=1;jettySize=auto;html=1;endArrow=none;endFill=0;" edge="1" parent="8B3d1EvUy9ZRNWCa27w8-1" source="8B3d1EvUy9ZRNWCa27w8-28">
          <mxGeometry relative="1" as="geometry">
            <mxPoint x="-526.6111111111111" y="467" as="targetPoint" />
          </mxGeometry>
        </mxCell>
        <mxCell id="8B3d1EvUy9ZRNWCa27w8-28" value="Ошибка&lt;br&gt;&lt;font style=&quot;font-size: 10px;&quot;&gt;В поле «Фамилия» должны быть буквы!&lt;/font&gt;" style="shape=parallelogram;perimeter=parallelogramPerimeter;whiteSpace=wrap;html=1;fixedSize=1;" parent="8B3d1EvUy9ZRNWCa27w8-1" vertex="1">
          <mxGeometry x="-488" y="447" width="180" height="40" as="geometry" />
        </mxCell>
        <mxCell id="8B3d1EvUy9ZRNWCa27w8-29" value="Нет" style="text;html=1;align=center;verticalAlign=middle;whiteSpace=wrap;rounded=0;" parent="8B3d1EvUy9ZRNWCa27w8-1" vertex="1">
          <mxGeometry x="-363" y="407" width="30" height="20" as="geometry" />
        </mxCell>
        <mxCell id="8B3d1EvUy9ZRNWCa27w8-30" style="edgeStyle=orthogonalEdgeStyle;rounded=0;orthogonalLoop=1;jettySize=auto;html=1;entryX=0.5;entryY=0;entryDx=0;entryDy=0;" parent="8B3d1EvUy9ZRNWCa27w8-1" source="8B3d1EvUy9ZRNWCa27w8-22" target="8B3d1EvUy9ZRNWCa27w8-26" edge="1">
          <mxGeometry relative="1" as="geometry" />
        </mxCell>
        <mxCell id="8B3d1EvUy9ZRNWCa27w8-31" value="Да" style="text;html=1;align=center;verticalAlign=middle;whiteSpace=wrap;rounded=0;" parent="8B3d1EvUy9ZRNWCa27w8-1" vertex="1">
          <mxGeometry x="-253" y="487" width="20" height="20" as="geometry" />
        </mxCell>
        <mxCell id="8B3d1EvUy9ZRNWCa27w8-32" style="edgeStyle=orthogonalEdgeStyle;rounded=0;orthogonalLoop=1;jettySize=auto;html=1;entryX=0.5;entryY=1;entryDx=0;entryDy=0;" parent="8B3d1EvUy9ZRNWCa27w8-1" source="8B3d1EvUy9ZRNWCa27w8-33" target="8B3d1EvUy9ZRNWCa27w8-35" edge="1">
          <mxGeometry relative="1" as="geometry" />
        </mxCell>
        <mxCell id="8B3d1EvUy9ZRNWCa27w8-33" value="Цикл 3&lt;br&gt;&lt;font style=&quot;font-size: 10px;&quot;&gt;!System.Text.RegularExpressions.Regex.IsMatch(clientFirstName, namePattern)&lt;/font&gt;" style="shape=loopLimit;whiteSpace=wrap;html=1;" parent="8B3d1EvUy9ZRNWCa27w8-1" vertex="1">
          <mxGeometry x="-423" y="507" width="310" height="50" as="geometry" />
        </mxCell>
        <mxCell id="8B3d1EvUy9ZRNWCa27w8-34" value="" style="group" parent="8B3d1EvUy9ZRNWCa27w8-1" vertex="1" connectable="0">
          <mxGeometry x="-423" y="577" width="310" height="20" as="geometry" />
        </mxCell>
        <mxCell id="8B3d1EvUy9ZRNWCa27w8-35" value="" style="shape=loopLimit;whiteSpace=wrap;html=1;rotation=-180;direction=east;" parent="8B3d1EvUy9ZRNWCa27w8-34" vertex="1">
          <mxGeometry width="310" height="20" as="geometry" />
        </mxCell>
        <mxCell id="8B3d1EvUy9ZRNWCa27w8-36" value="Цикл 3" style="text;html=1;align=center;verticalAlign=middle;whiteSpace=wrap;rounded=0;direction=west;" parent="8B3d1EvUy9ZRNWCa27w8-34" vertex="1">
          <mxGeometry x="77.5" y="2.5" width="155" height="15" as="geometry" />
        </mxCell>
        <mxCell id="8B3d1EvUy9ZRNWCa27w8-37" style="edgeStyle=orthogonalEdgeStyle;rounded=0;orthogonalLoop=1;jettySize=auto;html=1;entryX=0.5;entryY=0;entryDx=0;entryDy=0;" parent="8B3d1EvUy9ZRNWCa27w8-1" source="8B3d1EvUy9ZRNWCa27w8-39" target="8B3d1EvUy9ZRNWCa27w8-42" edge="1">
          <mxGeometry relative="1" as="geometry">
            <mxPoint x="2" y="109" as="targetPoint" />
          </mxGeometry>
        </mxCell>
        <mxCell id="8B3d1EvUy9ZRNWCa27w8-38" style="edgeStyle=orthogonalEdgeStyle;rounded=0;orthogonalLoop=1;jettySize=auto;html=1;entryX=0.5;entryY=0;entryDx=0;entryDy=0;" parent="8B3d1EvUy9ZRNWCa27w8-1" source="8B3d1EvUy9ZRNWCa27w8-39" target="8B3d1EvUy9ZRNWCa27w8-62" edge="1">
          <mxGeometry relative="1" as="geometry">
            <mxPoint x="162" y="169" as="targetPoint" />
          </mxGeometry>
        </mxCell>
        <mxCell id="8B3d1EvUy9ZRNWCa27w8-39" value="Есть буквы" style="rhombus;whiteSpace=wrap;html=1;" parent="8B3d1EvUy9ZRNWCa27w8-1" vertex="1">
          <mxGeometry x="102" y="69" width="120" height="40" as="geometry" />
        </mxCell>
        <mxCell id="8B3d1EvUy9ZRNWCa27w8-42" value="Ошибка&lt;br&gt;&lt;span style=&quot;font-size: 10px;&quot;&gt;В поле «Имя» должны быть буквы!&lt;/span&gt;" style="shape=parallelogram;perimeter=parallelogramPerimeter;whiteSpace=wrap;html=1;fixedSize=1;" parent="8B3d1EvUy9ZRNWCa27w8-1" vertex="1">
          <mxGeometry x="-78" y="119" width="160" height="40" as="geometry" />
        </mxCell>
        <mxCell id="8B3d1EvUy9ZRNWCa27w8-43" value="Нет" style="text;html=1;align=center;verticalAlign=middle;whiteSpace=wrap;rounded=0;" parent="8B3d1EvUy9ZRNWCa27w8-1" vertex="1">
          <mxGeometry x="67" y="69" width="30" height="20" as="geometry" />
        </mxCell>
        <mxCell id="8B3d1EvUy9ZRNWCa27w8-44" value="Да" style="text;html=1;align=center;verticalAlign=middle;whiteSpace=wrap;rounded=0;" parent="8B3d1EvUy9ZRNWCa27w8-1" vertex="1">
          <mxGeometry x="177" y="109" width="20" height="20" as="geometry" />
        </mxCell>
        <mxCell id="8B3d1EvUy9ZRNWCa27w8-45" style="edgeStyle=orthogonalEdgeStyle;rounded=0;orthogonalLoop=1;jettySize=auto;html=1;entryX=0.5;entryY=1;entryDx=0;entryDy=0;" parent="8B3d1EvUy9ZRNWCa27w8-1" source="8B3d1EvUy9ZRNWCa27w8-46" target="8B3d1EvUy9ZRNWCa27w8-48" edge="1">
          <mxGeometry relative="1" as="geometry" />
        </mxCell>
        <mxCell id="8B3d1EvUy9ZRNWCa27w8-46" value="Цикл 10&lt;br&gt;&lt;font style=&quot;font-size: 10px;&quot;&gt;Data.flight == null&lt;/font&gt;" style="shape=loopLimit;whiteSpace=wrap;html=1;" parent="8B3d1EvUy9ZRNWCa27w8-1" vertex="1">
          <mxGeometry x="109.5" y="369" width="105" height="40" as="geometry" />
        </mxCell>
        <mxCell id="8B3d1EvUy9ZRNWCa27w8-47" value="" style="group" parent="8B3d1EvUy9ZRNWCa27w8-1" vertex="1" connectable="0">
          <mxGeometry x="109.5" y="429" width="105" height="40" as="geometry" />
        </mxCell>
        <mxCell id="8B3d1EvUy9ZRNWCa27w8-48" value="" style="shape=loopLimit;whiteSpace=wrap;html=1;rotation=-180;" parent="8B3d1EvUy9ZRNWCa27w8-47" vertex="1">
          <mxGeometry width="105" height="40" as="geometry" />
        </mxCell>
        <mxCell id="8B3d1EvUy9ZRNWCa27w8-49" value="Цикл 10" style="text;html=1;align=center;verticalAlign=middle;whiteSpace=wrap;rounded=0;" parent="8B3d1EvUy9ZRNWCa27w8-47" vertex="1">
          <mxGeometry x="22.5" y="5" width="60" height="30" as="geometry" />
        </mxCell>
        <mxCell id="8B3d1EvUy9ZRNWCa27w8-50" style="edgeStyle=orthogonalEdgeStyle;rounded=0;orthogonalLoop=1;jettySize=auto;html=1;entryX=0.5;entryY=0;entryDx=0;entryDy=0;" parent="8B3d1EvUy9ZRNWCa27w8-1" source="8B3d1EvUy9ZRNWCa27w8-52" target="8B3d1EvUy9ZRNWCa27w8-54" edge="1">
          <mxGeometry relative="1" as="geometry" />
        </mxCell>
        <mxCell id="8B3d1EvUy9ZRNWCa27w8-51" style="edgeStyle=orthogonalEdgeStyle;rounded=0;orthogonalLoop=1;jettySize=auto;html=1;entryX=0.5;entryY=0;entryDx=0;entryDy=0;" parent="8B3d1EvUy9ZRNWCa27w8-1" source="8B3d1EvUy9ZRNWCa27w8-52" target="8B3d1EvUy9ZRNWCa27w8-60" edge="1">
          <mxGeometry relative="1" as="geometry" />
        </mxCell>
        <mxCell id="8B3d1EvUy9ZRNWCa27w8-52" value="Значение новое" style="rhombus;whiteSpace=wrap;html=1;" parent="8B3d1EvUy9ZRNWCa27w8-1" vertex="1">
          <mxGeometry x="102" y="489" width="120" height="40" as="geometry" />
        </mxCell>
        <mxCell id="8B3d1EvUy9ZRNWCa27w8-53" style="edgeStyle=orthogonalEdgeStyle;rounded=0;orthogonalLoop=1;jettySize=auto;html=1;entryX=1;entryY=0.5;entryDx=0;entryDy=0;" parent="8B3d1EvUy9ZRNWCa27w8-1" source="8B3d1EvUy9ZRNWCa27w8-54" target="8B3d1EvUy9ZRNWCa27w8-57" edge="1">
          <mxGeometry relative="1" as="geometry">
            <Array as="points">
              <mxPoint x="302" y="599" />
              <mxPoint x="222" y="599" />
            </Array>
          </mxGeometry>
        </mxCell>
        <mxCell id="8B3d1EvUy9ZRNWCa27w8-54" value="Внести&lt;br&gt;изменения" style="shape=parallelogram;perimeter=parallelogramPerimeter;whiteSpace=wrap;html=1;fixedSize=1;" parent="8B3d1EvUy9ZRNWCa27w8-1" vertex="1">
          <mxGeometry x="252" y="529" width="100" height="40" as="geometry" />
        </mxCell>
        <mxCell id="8B3d1EvUy9ZRNWCa27w8-55" value="Нет" style="text;html=1;align=center;verticalAlign=middle;whiteSpace=wrap;rounded=0;" parent="8B3d1EvUy9ZRNWCa27w8-1" vertex="1">
          <mxGeometry x="232" y="489" width="30" height="20" as="geometry" />
        </mxCell>
        <mxCell id="8B3d1EvUy9ZRNWCa27w8-56" style="edgeStyle=orthogonalEdgeStyle;rounded=0;orthogonalLoop=1;jettySize=auto;html=1;entryX=0.5;entryY=0;entryDx=0;entryDy=0;" parent="8B3d1EvUy9ZRNWCa27w8-1" source="8B3d1EvUy9ZRNWCa27w8-48" target="8B3d1EvUy9ZRNWCa27w8-52" edge="1">
          <mxGeometry relative="1" as="geometry" />
        </mxCell>
        <mxCell id="8B3d1EvUy9ZRNWCa27w8-57" value="Конец" style="ellipse;whiteSpace=wrap;html=1;" parent="8B3d1EvUy9ZRNWCa27w8-1" vertex="1">
          <mxGeometry x="102" y="579" width="120" height="40" as="geometry" />
        </mxCell>
        <mxCell id="8B3d1EvUy9ZRNWCa27w8-58" value="Да" style="text;html=1;align=center;verticalAlign=middle;whiteSpace=wrap;rounded=0;" parent="8B3d1EvUy9ZRNWCa27w8-1" vertex="1">
          <mxGeometry x="72" y="489" width="20" height="20" as="geometry" />
        </mxCell>
        <mxCell id="8B3d1EvUy9ZRNWCa27w8-59" style="edgeStyle=orthogonalEdgeStyle;rounded=0;orthogonalLoop=1;jettySize=auto;html=1;entryX=0;entryY=0.5;entryDx=0;entryDy=0;" parent="8B3d1EvUy9ZRNWCa27w8-1" source="8B3d1EvUy9ZRNWCa27w8-60" target="8B3d1EvUy9ZRNWCa27w8-57" edge="1">
          <mxGeometry relative="1" as="geometry">
            <Array as="points">
              <mxPoint x="22" y="599" />
              <mxPoint x="102" y="599" />
            </Array>
          </mxGeometry>
        </mxCell>
        <mxCell id="8B3d1EvUy9ZRNWCa27w8-60" value="Сохранить&lt;br&gt;новую строку" style="shape=parallelogram;perimeter=parallelogramPerimeter;whiteSpace=wrap;html=1;fixedSize=1;" parent="8B3d1EvUy9ZRNWCa27w8-1" vertex="1">
          <mxGeometry x="-28" y="529" width="110" height="40" as="geometry" />
        </mxCell>
        <mxCell id="8B3d1EvUy9ZRNWCa27w8-61" style="edgeStyle=orthogonalEdgeStyle;rounded=0;orthogonalLoop=1;jettySize=auto;html=1;entryX=0.5;entryY=1;entryDx=0;entryDy=0;" parent="8B3d1EvUy9ZRNWCa27w8-1" source="8B3d1EvUy9ZRNWCa27w8-62" target="8B3d1EvUy9ZRNWCa27w8-64" edge="1">
          <mxGeometry relative="1" as="geometry" />
        </mxCell>
        <mxCell id="8B3d1EvUy9ZRNWCa27w8-62" value="Цикл 4&lt;br&gt;&lt;font style=&quot;font-size: 10px;&quot;&gt;!System.Text.RegularExpressions.Regex.IsMatch(clientMiddleName, namePattern)&lt;/font&gt;" style="shape=loopLimit;whiteSpace=wrap;html=1;" parent="8B3d1EvUy9ZRNWCa27w8-1" vertex="1">
          <mxGeometry x="7" y="179" width="310" height="50" as="geometry" />
        </mxCell>
        <mxCell id="8B3d1EvUy9ZRNWCa27w8-63" value="" style="group" parent="8B3d1EvUy9ZRNWCa27w8-1" vertex="1" connectable="0">
          <mxGeometry x="7" y="249" width="310" height="20" as="geometry" />
        </mxCell>
        <mxCell id="8B3d1EvUy9ZRNWCa27w8-64" value="" style="shape=loopLimit;whiteSpace=wrap;html=1;rotation=-180;direction=east;" parent="8B3d1EvUy9ZRNWCa27w8-63" vertex="1">
          <mxGeometry width="310" height="20" as="geometry" />
        </mxCell>
        <mxCell id="8B3d1EvUy9ZRNWCa27w8-65" value="Цикл 4" style="text;html=1;align=center;verticalAlign=middle;whiteSpace=wrap;rounded=0;direction=west;" parent="8B3d1EvUy9ZRNWCa27w8-63" vertex="1">
          <mxGeometry x="77.5" y="2.5" width="155" height="15" as="geometry" />
        </mxCell>
        <mxCell id="8B3d1EvUy9ZRNWCa27w8-66" style="edgeStyle=orthogonalEdgeStyle;rounded=0;orthogonalLoop=1;jettySize=auto;html=1;" parent="8B3d1EvUy9ZRNWCa27w8-1" source="8B3d1EvUy9ZRNWCa27w8-67" edge="1">
          <mxGeometry relative="1" as="geometry">
            <mxPoint x="162" y="369" as="targetPoint" />
          </mxGeometry>
        </mxCell>
        <mxCell id="8B3d1EvUy9ZRNWCa27w8-67" value="Есть буквы" style="rhombus;whiteSpace=wrap;html=1;" parent="8B3d1EvUy9ZRNWCa27w8-1" vertex="1">
          <mxGeometry x="102" y="289" width="120" height="40" as="geometry" />
        </mxCell>
        <mxCell id="8B3d1EvUy9ZRNWCa27w8-68" style="edgeStyle=orthogonalEdgeStyle;rounded=0;orthogonalLoop=1;jettySize=auto;html=1;" parent="8B3d1EvUy9ZRNWCa27w8-1" source="8B3d1EvUy9ZRNWCa27w8-64" target="8B3d1EvUy9ZRNWCa27w8-67" edge="1">
          <mxGeometry relative="1" as="geometry" />
        </mxCell>
        <mxCell id="8B3d1EvUy9ZRNWCa27w8-69" style="edgeStyle=orthogonalEdgeStyle;rounded=0;orthogonalLoop=1;jettySize=auto;html=1;entryX=0.5;entryY=0;entryDx=0;entryDy=0;" parent="8B3d1EvUy9ZRNWCa27w8-1" target="8B3d1EvUy9ZRNWCa27w8-70" edge="1">
          <mxGeometry relative="1" as="geometry">
            <mxPoint x="102" y="309" as="sourcePoint" />
            <mxPoint x="2" y="329" as="targetPoint" />
            <Array as="points">
              <mxPoint x="2" y="309" />
            </Array>
          </mxGeometry>
        </mxCell>
        <mxCell id="8B3d1EvUy9ZRNWCa27w8-70" value="Ошибка&lt;br&gt;&lt;span style=&quot;font-size: 10px;&quot;&gt;В поле «Отчество» должны быть буквы!&lt;/span&gt;" style="shape=parallelogram;perimeter=parallelogramPerimeter;whiteSpace=wrap;html=1;fixedSize=1;" parent="8B3d1EvUy9ZRNWCa27w8-1" vertex="1">
          <mxGeometry x="-88" y="339" width="180" height="40" as="geometry" />
        </mxCell>
        <mxCell id="8B3d1EvUy9ZRNWCa27w8-71" value="Нет" style="text;html=1;align=center;verticalAlign=middle;whiteSpace=wrap;rounded=0;" parent="8B3d1EvUy9ZRNWCa27w8-1" vertex="1">
          <mxGeometry x="67" y="289" width="30" height="20" as="geometry" />
        </mxCell>
        <mxCell id="8B3d1EvUy9ZRNWCa27w8-72" style="edgeStyle=orthogonalEdgeStyle;rounded=0;orthogonalLoop=1;jettySize=auto;html=1;endArrow=none;endFill=0;exitX=0;exitY=0.5;exitDx=0;exitDy=0;" parent="8B3d1EvUy9ZRNWCa27w8-1" source="8B3d1EvUy9ZRNWCa27w8-70" edge="1">
          <mxGeometry relative="1" as="geometry">
            <mxPoint x="-98" y="349" as="targetPoint" />
            <mxPoint x="-58" y="149" as="sourcePoint" />
            <Array as="points">
              <mxPoint x="-98" y="359" />
            </Array>
          </mxGeometry>
        </mxCell>
        <mxCell id="8B3d1EvUy9ZRNWCa27w8-73" value="Да" style="text;html=1;align=center;verticalAlign=middle;whiteSpace=wrap;rounded=0;" parent="8B3d1EvUy9ZRNWCa27w8-1" vertex="1">
          <mxGeometry x="177" y="329" width="20" height="20" as="geometry" />
        </mxCell>
        <mxCell id="jTbcsisHA4nak9RhzfZS-0" value="1" style="ellipse;whiteSpace=wrap;html=1;aspect=fixed;" vertex="1" parent="8B3d1EvUy9ZRNWCa27w8-1">
          <mxGeometry x="-278" y="617" width="20" height="20" as="geometry" />
        </mxCell>
        <mxCell id="jTbcsisHA4nak9RhzfZS-1" value="" style="endArrow=classic;html=1;rounded=0;entryX=0.5;entryY=0;entryDx=0;entryDy=0;exitX=0.5;exitY=0;exitDx=0;exitDy=0;" edge="1" parent="8B3d1EvUy9ZRNWCa27w8-1" source="8B3d1EvUy9ZRNWCa27w8-35" target="jTbcsisHA4nak9RhzfZS-0">
          <mxGeometry width="50" height="50" relative="1" as="geometry">
            <mxPoint x="-253" y="604" as="sourcePoint" />
            <mxPoint x="-203" y="554" as="targetPoint" />
          </mxGeometry>
        </mxCell>
        <mxCell id="YdR7k1CSy_zC7M5VZ0H9-0" value="1" style="whiteSpace=wrap;html=1;aspect=fixed;" vertex="1" parent="8B3d1EvUy9ZRNWCa27w8-1">
          <mxGeometry x="-536" y="617" width="20" height="20" as="geometry" />
        </mxCell>
        <mxCell id="YdR7k1CSy_zC7M5VZ0H9-5" style="edgeStyle=orthogonalEdgeStyle;rounded=0;orthogonalLoop=1;jettySize=auto;html=1;entryX=0.5;entryY=0;entryDx=0;entryDy=0;" edge="1" parent="8B3d1EvUy9ZRNWCa27w8-1" source="YdR7k1CSy_zC7M5VZ0H9-3" target="8B3d1EvUy9ZRNWCa27w8-39">
          <mxGeometry relative="1" as="geometry" />
        </mxCell>
        <mxCell id="YdR7k1CSy_zC7M5VZ0H9-3" value="1" style="ellipse;whiteSpace=wrap;html=1;aspect=fixed;" vertex="1" parent="8B3d1EvUy9ZRNWCa27w8-1">
          <mxGeometry x="152" y="22" width="20" height="20" as="geometry" />
        </mxCell>
        <mxCell id="YdR7k1CSy_zC7M5VZ0H9-7" style="edgeStyle=orthogonalEdgeStyle;rounded=0;orthogonalLoop=1;jettySize=auto;html=1;entryX=0;entryY=0.5;entryDx=0;entryDy=0;" edge="1" parent="8B3d1EvUy9ZRNWCa27w8-1" source="YdR7k1CSy_zC7M5VZ0H9-6" target="8B3d1EvUy9ZRNWCa27w8-57">
          <mxGeometry relative="1" as="geometry">
            <Array as="points">
              <mxPoint x="-98" y="599" />
            </Array>
          </mxGeometry>
        </mxCell>
        <mxCell id="YdR7k1CSy_zC7M5VZ0H9-6" value="1" style="whiteSpace=wrap;html=1;aspect=fixed;" vertex="1" parent="8B3d1EvUy9ZRNWCa27w8-1">
          <mxGeometry x="-108" y="25" width="20" height="20" as="geometry" />
        </mxCell>
      </root>
    </mxGraphModel>
  </diagram>
</mxfile>
